<ttFont>
    <TTGlyph name="A" xMin="46" yMin="0" xMax="742" yMax="712">
      <contour>
        <pt x="266" y="246" on="1"/>
        <pt x="471" y="246" on="1"/>
        <pt x="367" y="549" on="1"/>
      </contour>
      <contour>
        <pt x="46" y="0" on="1"/>
        <pt x="46" y="32" on="1"/>
        <pt x="83" y="32" on="1"/>
        <pt x="141" y="32" on="0"/>
        <pt x="167" y="105" on="1"/>
        <pt x="384" y="712" on="1"/>
        <pt x="409" y="712" on="1"/>
        <pt x="626" y="76" on="1"/>
        <pt x="644" y="32" on="0"/>
        <pt x="686" y="32" on="1"/>
        <pt x="742" y="32" on="1"/>
        <pt x="742" y="0" on="1"/>
        <pt x="432" y="0" on="1"/>
        <pt x="432" y="32" on="1"/>
        <pt x="498" y="32" on="1"/>
        <pt x="513" y="32" on="0"/>
        <pt x="533" y="47" on="0"/>
        <pt x="533" y="57" on="1"/>
        <pt x="533" y="70" on="0"/>
        <pt x="529" y="79" on="1"/>
        <pt x="484" y="210" on="1"/>
        <pt x="253" y="210" on="1"/>
        <pt x="230" y="145" on="1"/>
        <pt x="216" y="105" on="0"/>
        <pt x="216" y="85" on="1"/>
        <pt x="216" y="64" on="0"/>
        <pt x="239" y="32" on="0"/>
        <pt x="267" y="32" on="1"/>
        <pt x="320" y="32" on="1"/>
        <pt x="320" y="0" on="1"/>
      </contour>
    </TTGlyph>
    <TTGlyph name="AE" xMin="26" yMin="0" xMax="946" yMax="712">
      <contour>
        <pt x="26" y="0" on="1"/>
        <pt x="26" y="32" on="1"/>
        <pt x="58" y="32" on="1"/>
        <pt x="91" y="32" on="0"/>
        <pt x="140" y="68" on="0"/>
        <pt x="159" y="105" on="1"/>
        <pt x="425" y="608" on="1"/>
        <pt x="435" y="627" on="0"/>
        <pt x="438" y="636" on="1"/>
        <pt x="442" y="648" on="0"/>
        <pt x="442" y="660" on="1"/>
        <pt x="442" y="680" on="0"/>
        <pt x="417" y="680" on="1"/>
        <pt x="376" y="680" on="1"/>
        <pt x="376" y="712" on="1"/>
        <pt x="934" y="712" on="1"/>
        <pt x="938" y="486" on="1"/>
        <pt x="913" y="486" on="1"/>
        <pt x="912" y="506" on="1"/>
        <pt x="911" y="522" on="0"/>
        <pt x="900" y="561" on="1"/>
        <pt x="890" y="595" on="0"/>
        <pt x="872" y="622" on="1"/>
        <pt x="834" y="680" on="0"/>
        <pt x="755" y="680" on="1"/>
        <pt x="594" y="680" on="1"/>
        <pt x="567" y="680" on="0"/>
        <pt x="567" y="653" on="1"/>
        <pt x="567" y="380" on="1"/>
        <pt x="655" y="380" on="1"/>
        <pt x="682" y="380" on="0"/>
        <pt x="718" y="405" on="0"/>
        <pt x="732" y="451" on="0"/>
        <pt x="737" y="491" on="0"/>
        <pt x="737" y="518" on="1"/>
        <pt x="763" y="518" on="1"/>
        <pt x="763" y="205" on="1"/>
        <pt x="737" y="205" on="1"/>
        <pt x="737" y="233" on="0"/>
        <pt x="733" y="272" on="0"/>
        <pt x="718" y="319" on="0"/>
        <pt x="682" y="344" on="0"/>
        <pt x="655" y="344" on="1"/>
        <pt x="567" y="344" on="1"/>
        <pt x="567" y="59" on="1"/>
        <pt x="567" y="32" on="0"/>
        <pt x="594" y="32" on="1"/>
        <pt x="753" y="32" on="1"/>
        <pt x="783" y="32" on="0"/>
        <pt x="812" y="44" on="1"/>
        <pt x="846" y="58" on="0"/>
        <pt x="865" y="84" on="1"/>
        <pt x="885" y="112" on="0"/>
        <pt x="913" y="204" on="0"/>
        <pt x="917" y="236" on="1"/>
        <pt x="921" y="268" on="1"/>
        <pt x="946" y="268" on="1"/>
        <pt x="934" y="0" on="1"/>
        <pt x="381" y="0" on="1"/>
        <pt x="381" y="32" on="1"/>
        <pt x="448" y="32" on="1"/>
        <pt x="475" y="32" on="0"/>
        <pt x="475" y="59" on="1"/>
        <pt x="475" y="210" on="1"/>
        <pt x="258" y="210" on="1"/>
        <pt x="223" y="145" on="1"/>
        <pt x="205" y="112" on="0"/>
        <pt x="205" y="79" on="1"/>
        <pt x="205" y="32" on="0"/>
        <pt x="249" y="32" on="1"/>
        <pt x="296" y="32" on="1"/>
        <pt x="296" y="0" on="1"/>
      </contour>
      <contour>
        <pt x="475" y="246" on="1"/>
        <pt x="475" y="620" on="1"/>
        <pt x="277" y="246" on="1"/>
      </contour>
    </TTGlyph>
    <TTGlyph name="Aacute" xMin="46" yMin="0" xMax="742" yMax="938">
      <component glyphName="Acute" x="176" y="0" flags="0x1004"/>
      <component glyphName="A" x="0" y="0" flags="0x1204"/>
    </TTGlyph>
    <TTGlyph name="Acircumflex" xMin="46" yMin="0" xMax="742" yMax="920">
      <component glyphName="Circumflex" x="176" y="0" flags="0x1004"/>
      <component glyphName="A" x="0" y="0" flags="0x1204"/>
    </TTGlyph>
    <TTGlyph name="Acute" xMin="195" yMin="762" xMax="364" yMax="938">
      <contour>
        <pt x="336" y="938" on="1"/>
        <pt x="364" y="938" on="0"/>
        <pt x="364" y="907" on="1"/>
        <pt x="364" y="884" on="0"/>
        <pt x="336" y="863" on="1"/>
        <pt x="208" y="762" on="1"/>
        <pt x="195" y="773" on="1"/>
        <pt x="287" y="906" on="1"/>
        <pt x="310" y="938" on="0"/>
      </contour>
    </TTGlyph>
    <TTGlyph name="Adieresis" xMin="46" yMin="0" xMax="742" yMax="902">
      <component glyphName="Dieresis" x="176" y="0" flags="0x1004"/>
      <component glyphName="A" x="0" y="0" flags="0x1204"/>
    </TTGlyph>
    <TTGlyph name="Agrave" xMin="46" yMin="0" xMax="742" yMax="938">
      <component glyphName="Grave" x="176" y="0" flags="0x1004"/>
      <component glyphName="A" x="0" y="0" flags="0x1204"/>
    </TTGlyph>
    <TTGlyph name="Aring" xMin="46" yMin="0" xMax="742" yMax="948">
      <component glyphName="Ring" x="176" y="0" flags="0x1004"/>
      <component glyphName="A" x="0" y="0" flags="0x1204"/>
    </TTGlyph>
    <TTGlyph name="Atilde" xMin="46" yMin="0" xMax="742" yMax="904">
      <component glyphName="Tilde" x="176" y="0" flags="0x1004"/>
      <component glyphName="A" x="0" y="0" flags="0x1204"/>
    </TTGlyph>
    <TTGlyph name="B" xMin="62" yMin="0" xMax="634" yMax="712">
      <contour>
        <pt x="253" y="356" on="1"/>
        <pt x="253" y="59" on="1"/>
        <pt x="253" y="32" on="0"/>
        <pt x="280" y="32" on="1"/>
        <pt x="388" y="32" on="1"/>
        <pt x="528" y="32" on="0"/>
        <pt x="528" y="194" on="1"/>
        <pt x="528" y="356" on="0"/>
        <pt x="388" y="356" on="1"/>
      </contour>
      <contour>
        <pt x="62" y="0" on="1"/>
        <pt x="62" y="32" on="1"/>
        <pt x="134" y="32" on="1"/>
        <pt x="161" y="32" on="0"/>
        <pt x="161" y="59" on="1"/>
        <pt x="161" y="653" on="1"/>
        <pt x="161" y="680" on="0"/>
        <pt x="134" y="680" on="1"/>
        <pt x="62" y="680" on="1"/>
        <pt x="62" y="712" on="1"/>
        <pt x="388" y="712" on="1"/>
        <pt x="480" y="712" on="0"/>
        <pt x="612" y="615" on="0"/>
        <pt x="612" y="542" on="1"/>
        <pt x="612" y="474" on="0"/>
        <pt x="520" y="386" on="0"/>
        <pt x="459" y="373" on="1"/>
        <pt x="459" y="369" on="1"/>
        <pt x="524" y="364" on="0"/>
        <pt x="634" y="267" on="0"/>
        <pt x="634" y="194" on="1"/>
        <pt x="634" y="103" on="0"/>
        <pt x="498" y="0" on="0"/>
        <pt x="399" y="0" on="1"/>
      </contour>
      <contour>
        <pt x="253" y="388" on="1"/>
        <pt x="384" y="388" on="1"/>
        <pt x="465" y="388" on="0"/>
        <pt x="524" y="471" on="0"/>
        <pt x="524" y="542" on="1"/>
        <pt x="524" y="602" on="0"/>
        <pt x="448" y="680" on="0"/>
        <pt x="392" y="680" on="1"/>
        <pt x="280" y="680" on="1"/>
        <pt x="253" y="680" on="0"/>
        <pt x="253" y="653" on="1"/>
      </contour>
    </TTGlyph>
    <TTGlyph name="C" xMin="70" yMin="-18" xMax="606" yMax="730">
      <contour>
        <pt x="70" y="362" on="1"/>
        <pt x="70" y="463" on="0"/>
        <pt x="136" y="629" on="0"/>
        <pt x="264" y="730" on="0"/>
        <pt x="350" y="730" on="1"/>
        <pt x="411" y="730" on="0"/>
        <pt x="474" y="684" on="1"/>
        <pt x="490" y="674" on="0"/>
        <pt x="500" y="665" on="1"/>
        <pt x="516" y="651" on="0"/>
        <pt x="528" y="651" on="1"/>
        <pt x="536" y="651" on="0"/>
        <pt x="543" y="660" on="0"/>
        <pt x="548" y="673" on="1"/>
        <pt x="565" y="722" on="1"/>
        <pt x="590" y="722" on="1"/>
        <pt x="590" y="444" on="1"/>
        <pt x="565" y="444" on="1"/>
        <pt x="532" y="566" on="0"/>
        <pt x="413" y="698" on="0"/>
        <pt x="350" y="698" on="1"/>
        <pt x="308" y="698" on="0"/>
        <pt x="246" y="666" on="0"/>
        <pt x="208" y="612" on="0"/>
        <pt x="184" y="524" on="0"/>
        <pt x="176" y="427" on="0"/>
        <pt x="176" y="362" on="1"/>
        <pt x="176" y="297" on="0"/>
        <pt x="186" y="197" on="0"/>
        <pt x="212" y="106" on="0"/>
        <pt x="254" y="48" on="0"/>
        <pt x="321" y="14" on="0"/>
        <pt x="366" y="14" on="1"/>
        <pt x="416" y="14" on="0"/>
        <pt x="494" y="56" on="0"/>
        <pt x="541" y="128" on="0"/>
        <pt x="567" y="212" on="0"/>
        <pt x="570" y="259" on="1"/>
        <pt x="606" y="259" on="1"/>
        <pt x="605" y="237" on="0"/>
        <pt x="598" y="191" on="0"/>
        <pt x="582" y="136" on="0"/>
        <pt x="558" y="86" on="0"/>
        <pt x="520" y="38" on="0"/>
        <pt x="473" y="3" on="0"/>
        <pt x="406" y="-18" on="0"/>
        <pt x="366" y="-18" on="1"/>
        <pt x="296" y="-18" on="0"/>
        <pt x="181" y="48" on="0"/>
        <pt x="109" y="156" on="0"/>
        <pt x="70" y="290" on="0"/>
      </contour>
    </TTGlyph>
    <TTGlyph name="Ccedilla" xMin="70" yMin="-238" xMax="606" yMax="730">
      <contour>
        <pt x="70" y="362" on="1"/>
        <pt x="70" y="463" on="0"/>
        <pt x="136" y="629" on="0"/>
        <pt x="264" y="730" on="0"/>
        <pt x="350" y="730" on="1"/>
        <pt x="411" y="730" on="0"/>
        <pt x="474" y="684" on="1"/>
        <pt x="490" y="674" on="0"/>
        <pt x="500" y="665" on="1"/>
        <pt x="516" y="651" on="0"/>
        <pt x="528" y="651" on="1"/>
        <pt x="536" y="651" on="0"/>
        <pt x="543" y="660" on="0"/>
        <pt x="548" y="673" on="1"/>
        <pt x="565" y="722" on="1"/>
        <pt x="590" y="722" on="1"/>
        <pt x="590" y="444" on="1"/>
        <pt x="565" y="444" on="1"/>
        <pt x="532" y="566" on="0"/>
        <pt x="413" y="698" on="0"/>
        <pt x="350" y="698" on="1"/>
        <pt x="308" y="698" on="0"/>
        <pt x="246" y="666" on="0"/>
        <pt x="208" y="612" on="0"/>
        <pt x="184" y="524" on="0"/>
        <pt x="176" y="427" on="0"/>
        <pt x="176" y="297" on="0"/>
        <pt x="186" y="197" on="0"/>
        <pt x="212" y="106" on="0"/>
        <pt x="254" y="48" on="0"/>
        <pt x="321" y="14" on="0"/>
        <pt x="366" y="14" on="1"/>
        <pt x="406" y="14" on="0"/>
        <pt x="473" y="42" on="0"/>
        <pt x="519" y="89" on="0"/>
        <pt x="552" y="153" on="0"/>
        <pt x="568" y="222" on="0"/>
        <pt x="570" y="259" on="1"/>
        <pt x="606" y="259" on="1"/>
        <pt x="605" y="237" on="0"/>
        <pt x="598" y="191" on="0"/>
        <pt x="582" y="136" on="0"/>
        <pt x="558" y="86" on="0"/>
        <pt x="520" y="38" on="0"/>
        <pt x="473" y="3" on="0"/>
        <pt x="406" y="-18" on="0"/>
        <pt x="366" y="-18" on="1"/>
        <pt x="355" y="-18" on="1"/>
        <pt x="343" y="-54" on="1"/>
        <pt x="369" y="-60" on="1"/>
        <pt x="412" y="-70" on="0"/>
        <pt x="460" y="-119" on="0"/>
        <pt x="460" y="-154" on="1"/>
        <pt x="460" y="-192" on="0"/>
        <pt x="394" y="-238" on="0"/>
        <pt x="334" y="-238" on="1"/>
        <pt x="300" y="-238" on="0"/>
        <pt x="246" y="-208" on="0"/>
        <pt x="230" y="-187" on="1"/>
        <pt x="246" y="-170" on="1"/>
        <pt x="284" y="-206" on="0"/>
        <pt x="320" y="-206" on="1"/>
        <pt x="349" y="-206" on="0"/>
        <pt x="388" y="-180" on="0"/>
        <pt x="388" y="-148" on="1"/>
        <pt x="388" y="-120" on="0"/>
        <pt x="364" y="-90" on="0"/>
        <pt x="335" y="-83" on="1"/>
        <pt x="304" y="-76" on="1"/>
        <pt x="324" y="-15" on="1"/>
        <pt x="264" y="-6" on="0"/>
        <pt x="165" y="66" on="0"/>
        <pt x="103" y="170" on="0"/>
        <pt x="70" y="296" on="0"/>
      </contour>
    </TTGlyph>
    <TTGlyph name="Circumflex" xMin="62" yMin="762" xMax="378" yMax="920">
      <contour>
        <pt x="240" y="920" on="1"/>
        <pt x="287" y="830" on="0"/>
        <pt x="378" y="778" on="1"/>
        <pt x="368" y="762" on="1"/>
        <pt x="342" y="771" on="0"/>
        <pt x="251" y="830" on="0"/>
        <pt x="220" y="858" on="1"/>
        <pt x="189" y="830" on="0"/>
        <pt x="98" y="771" on="0"/>
        <pt x="72" y="762" on="1"/>
        <pt x="62" y="778" on="1"/>
        <pt x="153" y="830" on="0"/>
        <pt x="200" y="920" on="1"/>
      </contour>
    </TTGlyph>
    <TTGlyph name="D" xMin="62" yMin="0" xMax="730" yMax="712">
      <contour>
        <pt x="62" y="0" on="1"/>
        <pt x="62" y="32" on="1"/>
        <pt x="134" y="32" on="1"/>
        <pt x="161" y="32" on="0"/>
        <pt x="161" y="59" on="1"/>
        <pt x="161" y="653" on="1"/>
        <pt x="161" y="680" on="0"/>
        <pt x="134" y="680" on="1"/>
        <pt x="62" y="680" on="1"/>
        <pt x="62" y="712" on="1"/>
        <pt x="428" y="712" on="1"/>
        <pt x="555" y="712" on="0"/>
        <pt x="730" y="515" on="0"/>
        <pt x="730" y="362" on="1"/>
        <pt x="730" y="208" on="0"/>
        <pt x="554" y="0" on="0"/>
        <pt x="428" y="0" on="1"/>
      </contour>
      <contour>
        <pt x="624" y="362" on="1"/>
        <pt x="624" y="447" on="0"/>
        <pt x="588" y="584" on="0"/>
        <pt x="495" y="680" on="0"/>
        <pt x="424" y="680" on="1"/>
        <pt x="280" y="680" on="1"/>
        <pt x="253" y="680" on="0"/>
        <pt x="253" y="653" on="1"/>
        <pt x="253" y="59" on="1"/>
        <pt x="253" y="32" on="0"/>
        <pt x="280" y="32" on="1"/>
        <pt x="424" y="32" on="1"/>
        <pt x="477" y="32" on="0"/>
        <pt x="558" y="90" on="0"/>
        <pt x="603" y="187" on="0"/>
        <pt x="624" y="299" on="0"/>
      </contour>
    </TTGlyph>
    <TTGlyph name="Dieresis" xMin="66" yMin="798" xMax="374" yMax="902">
      <contour>
        <pt x="322" y="902" on="1"/>
        <pt x="344" y="902" on="0"/>
        <pt x="374" y="872" on="0"/>
        <pt x="374" y="850" on="1"/>
        <pt x="374" y="828" on="0"/>
        <pt x="344" y="798" on="0"/>
        <pt x="322" y="798" on="1"/>
        <pt x="300" y="798" on="0"/>
        <pt x="270" y="828" on="0"/>
        <pt x="270" y="850" on="1"/>
        <pt x="270" y="872" on="0"/>
        <pt x="300" y="902" on="0"/>
      </contour>
      <contour>
        <pt x="118" y="902" on="1"/>
        <pt x="140" y="902" on="0"/>
        <pt x="170" y="872" on="0"/>
        <pt x="170" y="850" on="1"/>
        <pt x="170" y="828" on="0"/>
        <pt x="140" y="798" on="0"/>
        <pt x="118" y="798" on="1"/>
        <pt x="96" y="798" on="0"/>
        <pt x="66" y="828" on="0"/>
        <pt x="66" y="850" on="1"/>
        <pt x="66" y="872" on="0"/>
        <pt x="96" y="902" on="0"/>
      </contour>
    </TTGlyph>
    <TTGlyph name="E" xMin="62" yMin="0" xMax="632" yMax="712">
      <contour>
        <pt x="62" y="0" on="1"/>
        <pt x="62" y="32" on="1"/>
        <pt x="134" y="32" on="1"/>
        <pt x="161" y="32" on="0"/>
        <pt x="161" y="59" on="1"/>
        <pt x="161" y="653" on="1"/>
        <pt x="161" y="680" on="0"/>
        <pt x="134" y="680" on="1"/>
        <pt x="62" y="680" on="1"/>
        <pt x="62" y="712" on="1"/>
        <pt x="620" y="712" on="1"/>
        <pt x="624" y="486" on="1"/>
        <pt x="599" y="486" on="1"/>
        <pt x="598" y="506" on="1"/>
        <pt x="596" y="527" on="0"/>
        <pt x="576" y="595" on="0"/>
        <pt x="558" y="622" on="1"/>
        <pt x="520" y="680" on="0"/>
        <pt x="441" y="680" on="1"/>
        <pt x="280" y="680" on="1"/>
        <pt x="253" y="680" on="0"/>
        <pt x="253" y="653" on="1"/>
        <pt x="253" y="380" on="1"/>
        <pt x="341" y="380" on="1"/>
        <pt x="368" y="380" on="0"/>
        <pt x="404" y="405" on="0"/>
        <pt x="418" y="451" on="0"/>
        <pt x="423" y="491" on="0"/>
        <pt x="423" y="518" on="1"/>
        <pt x="449" y="518" on="1"/>
        <pt x="449" y="205" on="1"/>
        <pt x="423" y="205" on="1"/>
        <pt x="423" y="233" on="0"/>
        <pt x="419" y="272" on="0"/>
        <pt x="404" y="319" on="0"/>
        <pt x="368" y="344" on="0"/>
        <pt x="341" y="344" on="1"/>
        <pt x="253" y="344" on="1"/>
        <pt x="253" y="59" on="1"/>
        <pt x="253" y="32" on="0"/>
        <pt x="280" y="32" on="1"/>
        <pt x="440" y="32" on="1"/>
        <pt x="467" y="32" on="0"/>
        <pt x="530" y="57" on="0"/>
        <pt x="550" y="83" on="1"/>
        <pt x="570" y="111" on="0"/>
        <pt x="599" y="203" on="0"/>
        <pt x="603" y="236" on="1"/>
        <pt x="607" y="268" on="1"/>
        <pt x="632" y="268" on="1"/>
        <pt x="620" y="0" on="1"/>
      </contour>
    </TTGlyph>
    <TTGlyph name="Eacute" xMin="62" yMin="0" xMax="632" yMax="938">
      <component glyphName="Acute" x="148" y="0" flags="0x1004"/>
      <component glyphName="E" x="0" y="0" flags="0x1204"/>
    </TTGlyph>
    <TTGlyph name="Ecircumflex" xMin="62" yMin="0" xMax="632" yMax="920">
      <component glyphName="Circumflex" x="148" y="0" flags="0x1004"/>
      <component glyphName="E" x="0" y="0" flags="0x1204"/>
    </TTGlyph>
    <TTGlyph name="Edieresis" xMin="62" yMin="0" xMax="632" yMax="902">
      <component glyphName="Dieresis" x="148" y="0" flags="0x1004"/>
      <component glyphName="E" x="0" y="0" flags="0x1204"/>
    </TTGlyph>
    <TTGlyph name="Egrave" xMin="62" yMin="0" xMax="632" yMax="938">
      <component glyphName="Grave" x="148" y="0" flags="0x1004"/>
      <component glyphName="E" x="0" y="0" flags="0x1204"/>
    </TTGlyph>
    <TTGlyph name="F" xMin="62" yMin="0" xMax="624" yMax="712">
      <contour>
        <pt x="68" y="0" on="1"/>
        <pt x="68" y="32" on="1"/>
        <pt x="134" y="32" on="1"/>
        <pt x="161" y="32" on="0"/>
        <pt x="161" y="59" on="1"/>
        <pt x="161" y="653" on="1"/>
        <pt x="161" y="680" on="0"/>
        <pt x="134" y="680" on="1"/>
        <pt x="62" y="680" on="1"/>
        <pt x="62" y="712" on="1"/>
        <pt x="620" y="712" on="1"/>
        <pt x="624" y="486" on="1"/>
        <pt x="599" y="486" on="1"/>
        <pt x="598" y="506" on="1"/>
        <pt x="596" y="527" on="0"/>
        <pt x="576" y="595" on="0"/>
        <pt x="558" y="622" on="1"/>
        <pt x="520" y="680" on="0"/>
        <pt x="441" y="680" on="1"/>
        <pt x="280" y="680" on="1"/>
        <pt x="253" y="680" on="0"/>
        <pt x="253" y="653" on="1"/>
        <pt x="253" y="380" on="1"/>
        <pt x="341" y="380" on="1"/>
        <pt x="368" y="380" on="0"/>
        <pt x="404" y="405" on="0"/>
        <pt x="418" y="451" on="0"/>
        <pt x="423" y="491" on="0"/>
        <pt x="423" y="518" on="1"/>
        <pt x="449" y="518" on="1"/>
        <pt x="449" y="205" on="1"/>
        <pt x="423" y="205" on="1"/>
        <pt x="423" y="233" on="0"/>
        <pt x="419" y="272" on="0"/>
        <pt x="404" y="319" on="0"/>
        <pt x="368" y="344" on="0"/>
        <pt x="341" y="344" on="1"/>
        <pt x="253" y="344" on="1"/>
        <pt x="253" y="59" on="1"/>
        <pt x="253" y="32" on="0"/>
        <pt x="280" y="32" on="1"/>
        <pt x="368" y="32" on="1"/>
        <pt x="368" y="0" on="1"/>
      </contour>
    </TTGlyph>
    <TTGlyph name="G" xMin="70" yMin="-18" xMax="690" yMax="730">
      <contour>
        <pt x="350" y="730" on="1"/>
        <pt x="411" y="730" on="0"/>
        <pt x="474" y="684" on="1"/>
        <pt x="490" y="673" on="0"/>
        <pt x="500" y="665" on="1"/>
        <pt x="515" y="651" on="0"/>
        <pt x="528" y="651" on="1"/>
        <pt x="536" y="651" on="0"/>
        <pt x="543" y="660" on="0"/>
        <pt x="548" y="673" on="1"/>
        <pt x="565" y="722" on="1"/>
        <pt x="590" y="722" on="1"/>
        <pt x="590" y="444" on="1"/>
        <pt x="565" y="444" on="1"/>
        <pt x="532" y="566" on="0"/>
        <pt x="413" y="698" on="0"/>
        <pt x="350" y="698" on="1"/>
        <pt x="297" y="698" on="0"/>
        <pt x="227" y="650" on="0"/>
        <pt x="190" y="555" on="0"/>
        <pt x="176" y="438" on="0"/>
        <pt x="176" y="356" on="1"/>
        <pt x="176" y="274" on="0"/>
        <pt x="190" y="158" on="0"/>
        <pt x="227" y="62" on="0"/>
        <pt x="297" y="14" on="0"/>
        <pt x="350" y="14" on="1"/>
        <pt x="406" y="14" on="0"/>
        <pt x="498" y="127" on="0"/>
        <pt x="498" y="189" on="1"/>
        <pt x="498" y="295" on="1"/>
        <pt x="498" y="322" on="0"/>
        <pt x="471" y="322" on="1"/>
        <pt x="399" y="322" on="1"/>
        <pt x="399" y="354" on="1"/>
        <pt x="690" y="354" on="1"/>
        <pt x="690" y="322" on="1"/>
        <pt x="617" y="322" on="1"/>
        <pt x="590" y="322" on="0"/>
        <pt x="590" y="295" on="1"/>
        <pt x="590" y="-13" on="1"/>
        <pt x="558" y="-13" on="1"/>
        <pt x="558" y="78" on="1"/>
        <pt x="558" y="112" on="0"/>
        <pt x="541" y="112" on="1"/>
        <pt x="524" y="112" on="0"/>
        <pt x="506" y="82" on="1"/>
        <pt x="483" y="45" on="0"/>
        <pt x="399" y="-18" on="0"/>
        <pt x="350" y="-18" on="1"/>
        <pt x="265" y="-18" on="0"/>
        <pt x="137" y="84" on="0"/>
        <pt x="70" y="251" on="0"/>
        <pt x="70" y="356" on="1"/>
        <pt x="70" y="457" on="0"/>
        <pt x="135" y="626" on="0"/>
        <pt x="265" y="730" on="0"/>
      </contour>
    </TTGlyph>
    <TTGlyph name="Grave" xMin="76" yMin="762" xMax="245" yMax="938">
      <contour>
        <pt x="104" y="938" on="1"/>
        <pt x="130" y="938" on="0"/>
        <pt x="153" y="906" on="1"/>
        <pt x="245" y="773" on="1"/>
        <pt x="232" y="762" on="1"/>
        <pt x="104" y="863" on="1"/>
        <pt x="76" y="884" on="0"/>
        <pt x="76" y="907" on="1"/>
        <pt x="76" y="938" on="0"/>
      </contour>
    </TTGlyph>
    <TTGlyph name="H" xMin="62" yMin="0" xMax="746" yMax="712">
      <contour>
        <pt x="62" y="0" on="1"/>
        <pt x="62" y="32" on="1"/>
        <pt x="134" y="32" on="1"/>
        <pt x="161" y="32" on="0"/>
        <pt x="161" y="59" on="1"/>
        <pt x="161" y="653" on="1"/>
        <pt x="161" y="680" on="0"/>
        <pt x="134" y="680" on="1"/>
        <pt x="62" y="680" on="1"/>
        <pt x="62" y="712" on="1"/>
        <pt x="352" y="712" on="1"/>
        <pt x="352" y="680" on="1"/>
        <pt x="280" y="680" on="1"/>
        <pt x="253" y="680" on="0"/>
        <pt x="253" y="653" on="1"/>
        <pt x="253" y="392" on="1"/>
        <pt x="555" y="392" on="1"/>
        <pt x="555" y="653" on="1"/>
        <pt x="555" y="680" on="0"/>
        <pt x="528" y="680" on="1"/>
        <pt x="456" y="680" on="1"/>
        <pt x="456" y="712" on="1"/>
        <pt x="746" y="712" on="1"/>
        <pt x="746" y="680" on="1"/>
        <pt x="674" y="680" on="1"/>
        <pt x="647" y="680" on="0"/>
        <pt x="647" y="653" on="1"/>
        <pt x="647" y="59" on="1"/>
        <pt x="647" y="32" on="0"/>
        <pt x="674" y="32" on="1"/>
        <pt x="746" y="32" on="1"/>
        <pt x="746" y="0" on="1"/>
        <pt x="456" y="0" on="1"/>
        <pt x="456" y="32" on="1"/>
        <pt x="528" y="32" on="1"/>
        <pt x="555" y="32" on="0"/>
        <pt x="555" y="59" on="1"/>
        <pt x="555" y="356" on="1"/>
        <pt x="253" y="356" on="1"/>
        <pt x="253" y="59" on="1"/>
        <pt x="253" y="32" on="0"/>
        <pt x="280" y="32" on="1"/>
        <pt x="352" y="32" on="1"/>
        <pt x="352" y="0" on="1"/>
      </contour>
    </TTGlyph>
    <TTGlyph name="I" xMin="62" yMin="0" xMax="352" yMax="712">
      <contour>
        <pt x="62" y="0" on="1"/>
        <pt x="62" y="32" on="1"/>
        <pt x="134" y="32" on="1"/>
        <pt x="161" y="32" on="0"/>
        <pt x="161" y="59" on="1"/>
        <pt x="161" y="653" on="1"/>
        <pt x="161" y="680" on="0"/>
        <pt x="134" y="680" on="1"/>
        <pt x="62" y="680" on="1"/>
        <pt x="62" y="712" on="1"/>
        <pt x="352" y="712" on="1"/>
        <pt x="352" y="680" on="1"/>
        <pt x="280" y="680" on="1"/>
        <pt x="253" y="680" on="0"/>
        <pt x="253" y="653" on="1"/>
        <pt x="253" y="59" on="1"/>
        <pt x="253" y="32" on="0"/>
        <pt x="280" y="32" on="1"/>
        <pt x="352" y="32" on="1"/>
        <pt x="352" y="0" on="1"/>
      </contour>
    </TTGlyph>
    <TTGlyph name="Iacute" xMin="62" yMin="0" xMax="352" yMax="938">
      <component glyphName="Acute" x="-12" y="0" flags="0x1004"/>
      <component glyphName="I" x="0" y="0" flags="0x1204"/>
    </TTGlyph>
    <TTGlyph name="Icircumflex" xMin="50" yMin="0" xMax="366" yMax="920">
      <component glyphName="Circumflex" x="-12" y="0" flags="0x1004"/>
      <component glyphName="I" x="0" y="0" flags="0x1204"/>
    </TTGlyph>
    <TTGlyph name="Idieresis" xMin="54" yMin="0" xMax="362" yMax="902">
      <component glyphName="Dieresis" x="-12" y="0" flags="0x1004"/>
      <component glyphName="I" x="0" y="0" flags="0x1204"/>
    </TTGlyph>
    <TTGlyph name="Igrave" xMin="62" yMin="0" xMax="352" yMax="938">
      <component glyphName="Grave" x="-12" y="0" flags="0x1004"/>
      <component glyphName="I" x="0" y="0" flags="0x1204"/>
    </TTGlyph>
    <TTGlyph name="J" xMin="44" yMin="-18" xMax="508" yMax="712">
      <contour>
        <pt x="508" y="712" on="1"/>
        <pt x="508" y="680" on="1"/>
        <pt x="436" y="680" on="1"/>
        <pt x="409" y="680" on="0"/>
        <pt x="409" y="653" on="1"/>
        <pt x="409" y="194" on="1"/>
        <pt x="409" y="96" on="0"/>
        <pt x="295" y="-18" on="0"/>
        <pt x="214" y="-18" on="1"/>
        <pt x="140" y="-18" on="0"/>
        <pt x="44" y="60" on="0"/>
        <pt x="44" y="127" on="1"/>
        <pt x="44" y="170" on="0"/>
        <pt x="90" y="218" on="0"/>
        <pt x="121" y="218" on="1"/>
        <pt x="150" y="218" on="0"/>
        <pt x="182" y="186" on="0"/>
        <pt x="182" y="161" on="1"/>
        <pt x="182" y="141" on="0"/>
        <pt x="154" y="112" on="0"/>
        <pt x="134" y="112" on="1"/>
        <pt x="118" y="112" on="0"/>
        <pt x="104" y="98" on="0"/>
        <pt x="104" y="82" on="1"/>
        <pt x="104" y="51" on="0"/>
        <pt x="168" y="14" on="0"/>
        <pt x="214" y="14" on="1"/>
        <pt x="263" y="14" on="0"/>
        <pt x="317" y="90" on="0"/>
        <pt x="317" y="143" on="1"/>
        <pt x="317" y="653" on="1"/>
        <pt x="317" y="680" on="0"/>
        <pt x="290" y="680" on="1"/>
        <pt x="218" y="680" on="1"/>
        <pt x="218" y="712" on="1"/>
      </contour>
    </TTGlyph>
    <TTGlyph name="K" xMin="62" yMin="0" xMax="714" yMax="712">
      <contour>
        <pt x="62" y="0" on="1"/>
        <pt x="62" y="32" on="1"/>
        <pt x="134" y="32" on="1"/>
        <pt x="161" y="32" on="0"/>
        <pt x="161" y="59" on="1"/>
        <pt x="161" y="653" on="1"/>
        <pt x="161" y="680" on="0"/>
        <pt x="134" y="680" on="1"/>
        <pt x="62" y="680" on="1"/>
        <pt x="62" y="712" on="1"/>
        <pt x="347" y="712" on="1"/>
        <pt x="347" y="680" on="1"/>
        <pt x="280" y="680" on="1"/>
        <pt x="253" y="680" on="0"/>
        <pt x="253" y="653" on="1"/>
        <pt x="253" y="343" on="1"/>
        <pt x="484" y="579" on="1"/>
        <pt x="490" y="587" on="0"/>
        <pt x="499" y="599" on="0"/>
        <pt x="505" y="611" on="0"/>
        <pt x="508" y="627" on="0"/>
        <pt x="508" y="638" on="1"/>
        <pt x="508" y="656" on="0"/>
        <pt x="482" y="680" on="0"/>
        <pt x="463" y="680" on="1"/>
        <pt x="436" y="680" on="1"/>
        <pt x="436" y="712" on="1"/>
        <pt x="700" y="712" on="1"/>
        <pt x="700" y="680" on="1"/>
        <pt x="660" y="680" on="1"/>
        <pt x="627" y="680" on="0"/>
        <pt x="570" y="621" on="1"/>
        <pt x="402" y="451" on="1"/>
        <pt x="606" y="76" on="1"/>
        <pt x="619" y="51" on="0"/>
        <pt x="651" y="32" on="0"/>
        <pt x="681" y="32" on="1"/>
        <pt x="714" y="32" on="1"/>
        <pt x="714" y="0" on="1"/>
        <pt x="412" y="0" on="1"/>
        <pt x="412" y="32" on="1"/>
        <pt x="479" y="32" on="1"/>
        <pt x="490" y="32" on="0"/>
        <pt x="506" y="45" on="0"/>
        <pt x="506" y="53" on="1"/>
        <pt x="506" y="68" on="0"/>
        <pt x="499" y="78" on="1"/>
        <pt x="336" y="384" on="1"/>
        <pt x="253" y="300" on="1"/>
        <pt x="253" y="59" on="1"/>
        <pt x="253" y="32" on="0"/>
        <pt x="280" y="32" on="1"/>
        <pt x="347" y="32" on="1"/>
        <pt x="347" y="0" on="1"/>
      </contour>
    </TTGlyph>
    <TTGlyph name="L" xMin="62" yMin="0" xMax="612" yMax="712">
      <contour>
        <pt x="62" y="0" on="1"/>
        <pt x="62" y="32" on="1"/>
        <pt x="134" y="32" on="1"/>
        <pt x="161" y="32" on="0"/>
        <pt x="161" y="59" on="1"/>
        <pt x="161" y="653" on="1"/>
        <pt x="161" y="680" on="0"/>
        <pt x="134" y="680" on="1"/>
        <pt x="62" y="680" on="1"/>
        <pt x="62" y="712" on="1"/>
        <pt x="368" y="712" on="1"/>
        <pt x="368" y="680" on="1"/>
        <pt x="280" y="680" on="1"/>
        <pt x="253" y="680" on="0"/>
        <pt x="253" y="653" on="1"/>
        <pt x="253" y="59" on="1"/>
        <pt x="253" y="32" on="0"/>
        <pt x="280" y="32" on="1"/>
        <pt x="420" y="32" on="1"/>
        <pt x="446" y="32" on="0"/>
        <pt x="510" y="58" on="0"/>
        <pt x="530" y="84" on="1"/>
        <pt x="550" y="112" on="0"/>
        <pt x="579" y="204" on="0"/>
        <pt x="583" y="236" on="1"/>
        <pt x="587" y="269" on="1"/>
        <pt x="612" y="269" on="1"/>
        <pt x="599" y="0" on="1"/>
      </contour>
    </TTGlyph>
    <TTGlyph name="M" xMin="62" yMin="-12" xMax="796" yMax="712">
      <contour>
        <pt x="62" y="0" on="1"/>
        <pt x="62" y="32" on="1"/>
        <pt x="98" y="32" on="1"/>
        <pt x="126" y="32" on="0"/>
        <pt x="161" y="75" on="0"/>
        <pt x="161" y="112" on="1"/>
        <pt x="161" y="653" on="1"/>
        <pt x="161" y="680" on="0"/>
        <pt x="134" y="680" on="1"/>
        <pt x="62" y="680" on="1"/>
        <pt x="62" y="712" on="1"/>
        <pt x="274" y="712" on="1"/>
        <pt x="437" y="161" on="1"/>
        <pt x="589" y="712" on="1"/>
        <pt x="796" y="712" on="1"/>
        <pt x="796" y="680" on="1"/>
        <pt x="724" y="680" on="1"/>
        <pt x="697" y="680" on="0"/>
        <pt x="697" y="653" on="1"/>
        <pt x="697" y="59" on="1"/>
        <pt x="697" y="32" on="0"/>
        <pt x="724" y="32" on="1"/>
        <pt x="796" y="32" on="1"/>
        <pt x="796" y="0" on="1"/>
        <pt x="506" y="0" on="1"/>
        <pt x="506" y="32" on="1"/>
        <pt x="578" y="32" on="1"/>
        <pt x="605" y="32" on="0"/>
        <pt x="605" y="59" on="1"/>
        <pt x="605" y="649" on="1"/>
        <pt x="422" y="-12" on="1"/>
        <pt x="398" y="-12" on="1"/>
        <pt x="207" y="622" on="1"/>
        <pt x="201" y="622" on="1"/>
        <pt x="201" y="112" on="1"/>
        <pt x="201" y="75" on="0"/>
        <pt x="236" y="32" on="0"/>
        <pt x="264" y="32" on="1"/>
        <pt x="300" y="32" on="1"/>
        <pt x="300" y="0" on="1"/>
      </contour>
    </TTGlyph>
    <TTGlyph name="N" xMin="62" yMin="-18" xMax="738" yMax="712">
      <contour>
        <pt x="62" y="0" on="1"/>
        <pt x="62" y="32" on="1"/>
        <pt x="98" y="32" on="1"/>
        <pt x="127" y="32" on="0"/>
        <pt x="161" y="75" on="0"/>
        <pt x="161" y="112" on="1"/>
        <pt x="161" y="653" on="1"/>
        <pt x="160" y="680" on="0"/>
        <pt x="134" y="680" on="1"/>
        <pt x="62" y="680" on="1"/>
        <pt x="62" y="712" on="1"/>
        <pt x="251" y="712" on="1"/>
        <pt x="598" y="154" on="1"/>
        <pt x="598" y="600" on="1"/>
        <pt x="598" y="637" on="0"/>
        <pt x="564" y="680" on="0"/>
        <pt x="536" y="680" on="1"/>
        <pt x="500" y="680" on="1"/>
        <pt x="500" y="712" on="1"/>
        <pt x="738" y="712" on="1"/>
        <pt x="738" y="680" on="1"/>
        <pt x="702" y="680" on="1"/>
        <pt x="674" y="680" on="0"/>
        <pt x="638" y="637" on="0"/>
        <pt x="638" y="600" on="1"/>
        <pt x="638" y="-18" on="1"/>
        <pt x="598" y="-18" on="1"/>
        <pt x="205" y="603" on="1"/>
        <pt x="201" y="603" on="1"/>
        <pt x="201" y="112" on="1"/>
        <pt x="201" y="75" on="0"/>
        <pt x="236" y="32" on="0"/>
        <pt x="264" y="32" on="1"/>
        <pt x="300" y="32" on="1"/>
        <pt x="300" y="0" on="1"/>
      </contour>
    </TTGlyph>
    <TTGlyph name="Ntilde" xMin="62" yMin="-18" xMax="738" yMax="904">
      <component glyphName="Tilde" x="196" y="0" flags="0x1004"/>
      <component glyphName="N" x="0" y="0" flags="0x1204"/>
    </TTGlyph>
    <TTGlyph name="O" xMin="70" yMin="-18" xMax="650" yMax="730">
      <contour>
        <pt x="360" y="-18" on="1"/>
        <pt x="276" y="-18" on="0"/>
        <pt x="141" y="91" on="0"/>
        <pt x="70" y="261" on="0"/>
        <pt x="70" y="356" on="1"/>
        <pt x="70" y="451" on="0"/>
        <pt x="141" y="621" on="0"/>
        <pt x="276" y="730" on="0"/>
        <pt x="360" y="730" on="1"/>
        <pt x="444" y="730" on="0"/>
        <pt x="579" y="621" on="0"/>
        <pt x="650" y="451" on="0"/>
        <pt x="650" y="356" on="1"/>
        <pt x="650" y="261" on="0"/>
        <pt x="579" y="91" on="0"/>
        <pt x="444" y="-18" on="0"/>
      </contour>
      <contour>
        <pt x="360" y="14" on="1"/>
        <pt x="544" y="14" on="0"/>
        <pt x="544" y="356" on="1"/>
        <pt x="544" y="698" on="0"/>
        <pt x="360" y="698" on="1"/>
        <pt x="176" y="698" on="0"/>
        <pt x="176" y="356" on="1"/>
        <pt x="176" y="14" on="0"/>
      </contour>
    </TTGlyph>
    <TTGlyph name="Oacute" xMin="70" yMin="-18" xMax="650" yMax="938">
      <component glyphName="Acute" x="140" y="0" flags="0x1004"/>
      <component glyphName="O" x="0" y="0" flags="0x1204"/>
    </TTGlyph>
    <TTGlyph name="Ocircumflex" xMin="70" yMin="-18" xMax="650" yMax="920">
      <component glyphName="Circumflex" x="140" y="0" flags="0x1004"/>
      <component glyphName="O" x="0" y="0" flags="0x1204"/>
    </TTGlyph>
    <TTGlyph name="Odieresis" xMin="70" yMin="-18" xMax="650" yMax="902">
      <component glyphName="Dieresis" x="140" y="0" flags="0x1004"/>
      <component glyphName="O" x="0" y="0" flags="0x1204"/>
    </TTGlyph>
    <TTGlyph name="Ograve" xMin="70" yMin="-18" xMax="650" yMax="938">
      <component glyphName="Grave" x="140" y="0" flags="0x1004"/>
      <component glyphName="O" x="0" y="0" flags="0x1204"/>
    </TTGlyph>
    <TTGlyph name="Oslash" xMin="70" yMin="-18" xMax="650" yMax="730">
      <contour>
        <pt x="360" y="-18" on="1"/>
        <pt x="250" y="-18" on="0"/>
        <pt x="170" y="72" on="1"/>
        <pt x="102" y="-18" on="1"/>
        <pt x="70" y="6" on="1"/>
        <pt x="145" y="105" on="1"/>
        <pt x="70" y="213" on="0"/>
        <pt x="70" y="356" on="1"/>
        <pt x="70" y="504" on="0"/>
        <pt x="234" y="730" on="0"/>
        <pt x="360" y="730" on="1"/>
        <pt x="468" y="730" on="0"/>
        <pt x="549" y="641" on="1"/>
        <pt x="616" y="730" on="1"/>
        <pt x="648" y="706" on="1"/>
        <pt x="574" y="608" on="1"/>
        <pt x="650" y="501" on="0"/>
        <pt x="650" y="356" on="1"/>
        <pt x="650" y="261" on="0"/>
        <pt x="579" y="91" on="0"/>
        <pt x="444" y="-18" on="0"/>
      </contour>
      <contour>
        <pt x="360" y="14" on="1"/>
        <pt x="544" y="14" on="0"/>
        <pt x="544" y="356" on="1"/>
        <pt x="544" y="467" on="0"/>
        <pt x="525" y="543" on="1"/>
        <pt x="209" y="124" on="1"/>
        <pt x="254" y="14" on="0"/>
      </contour>
      <contour>
        <pt x="360" y="698" on="1"/>
        <pt x="176" y="698" on="0"/>
        <pt x="176" y="356" on="1"/>
        <pt x="176" y="249" on="0"/>
        <pt x="194" y="171" on="1"/>
        <pt x="510" y="589" on="1"/>
        <pt x="466" y="698" on="0"/>
      </contour>
    </TTGlyph>
    <TTGlyph name="Otilde" xMin="70" yMin="-18" xMax="650" yMax="904">
      <component glyphName="Tilde" x="140" y="0" flags="0x1004"/>
      <component glyphName="O" x="0" y="0" flags="0x1204"/>
    </TTGlyph>
    <TTGlyph name="P" xMin="62" yMin="0" xMax="636" yMax="712">
      <contour>
        <pt x="62" y="0" on="1"/>
        <pt x="62" y="32" on="1"/>
        <pt x="134" y="32" on="1"/>
        <pt x="161" y="32" on="0"/>
        <pt x="161" y="59" on="1"/>
        <pt x="161" y="653" on="1"/>
        <pt x="161" y="680" on="0"/>
        <pt x="134" y="680" on="1"/>
        <pt x="62" y="680" on="1"/>
        <pt x="62" y="712" on="1"/>
        <pt x="396" y="712" on="1"/>
        <pt x="502" y="712" on="0"/>
        <pt x="636" y="609" on="0"/>
        <pt x="636" y="526" on="1"/>
        <pt x="636" y="443" on="0"/>
        <pt x="502" y="336" on="0"/>
        <pt x="396" y="336" on="1"/>
        <pt x="253" y="336" on="1"/>
        <pt x="253" y="59" on="1"/>
        <pt x="253" y="32" on="0"/>
        <pt x="280" y="32" on="1"/>
        <pt x="368" y="32" on="1"/>
        <pt x="368" y="0" on="1"/>
      </contour>
      <contour>
        <pt x="253" y="368" on="1"/>
        <pt x="409" y="368" on="1"/>
        <pt x="463" y="368" on="0"/>
        <pt x="530" y="461" on="0"/>
        <pt x="530" y="526" on="1"/>
        <pt x="530" y="591" on="0"/>
        <pt x="464" y="680" on="0"/>
        <pt x="409" y="680" on="1"/>
        <pt x="280" y="680" on="1"/>
        <pt x="253" y="680" on="0"/>
        <pt x="253" y="653" on="1"/>
      </contour>
    </TTGlyph>
    <TTGlyph name="Q" xMin="70" yMin="-168" xMax="650" yMax="730">
      <contour>
        <pt x="360" y="-18" on="1"/>
        <pt x="276" y="-18" on="0"/>
        <pt x="141" y="91" on="0"/>
        <pt x="70" y="261" on="0"/>
        <pt x="70" y="356" on="1"/>
        <pt x="70" y="451" on="0"/>
        <pt x="141" y="621" on="0"/>
        <pt x="276" y="730" on="0"/>
        <pt x="360" y="730" on="1"/>
        <pt x="444" y="730" on="0"/>
        <pt x="581" y="621" on="0"/>
        <pt x="650" y="447" on="0"/>
        <pt x="650" y="356" on="1"/>
        <pt x="650" y="249" on="0"/>
        <pt x="561" y="65" on="0"/>
        <pt x="483" y="17" on="1"/>
        <pt x="491" y="-37" on="1"/>
        <pt x="496" y="-71" on="0"/>
        <pt x="514" y="-85" on="1"/>
        <pt x="533" y="-100" on="0"/>
        <pt x="558" y="-100" on="1"/>
        <pt x="631" y="-100" on="0"/>
        <pt x="631" y="50" on="1"/>
        <pt x="650" y="50" on="1"/>
        <pt x="650" y="-168" on="0"/>
        <pt x="527" y="-168" on="1"/>
        <pt x="479" y="-168" on="0"/>
        <pt x="416" y="-101" on="0"/>
        <pt x="416" y="-48" on="1"/>
        <pt x="416" y="-10" on="1"/>
        <pt x="387" y="-18" on="0"/>
      </contour>
      <contour>
        <pt x="360" y="14" on="1"/>
        <pt x="392" y="14" on="0"/>
        <pt x="416" y="24" on="1"/>
        <pt x="416" y="52" on="1"/>
        <pt x="416" y="91" on="0"/>
        <pt x="385" y="139" on="0"/>
        <pt x="354" y="139" on="1"/>
        <pt x="330" y="139" on="0"/>
        <pt x="297" y="97" on="0"/>
        <pt x="297" y="72" on="1"/>
        <pt x="297" y="41" on="0"/>
        <pt x="320" y="14" on="0"/>
      </contour>
      <contour>
        <pt x="355" y="171" on="1"/>
        <pt x="444" y="171" on="0"/>
        <pt x="473" y="63" on="1"/>
        <pt x="544" y="143" on="0"/>
        <pt x="544" y="356" on="1"/>
        <pt x="544" y="698" on="0"/>
        <pt x="360" y="698" on="1"/>
        <pt x="176" y="698" on="0"/>
        <pt x="176" y="356" on="1"/>
        <pt x="176" y="123" on="0"/>
        <pt x="263" y="47" on="1"/>
        <pt x="260" y="58" on="0"/>
        <pt x="260" y="75" on="1"/>
        <pt x="260" y="113" on="0"/>
        <pt x="316" y="171" on="0"/>
      </contour>
    </TTGlyph>
    <TTGlyph name="R" xMin="62" yMin="-12" xMax="684" yMax="712">
      <contour>
        <pt x="253" y="400" on="1"/>
        <pt x="350" y="400" on="1"/>
        <pt x="505" y="400" on="0"/>
        <pt x="505" y="552" on="1"/>
        <pt x="505" y="613" on="0"/>
        <pt x="440" y="680" on="0"/>
        <pt x="384" y="680" on="1"/>
        <pt x="280" y="680" on="1"/>
        <pt x="253" y="680" on="0"/>
        <pt x="253" y="653" on="1"/>
      </contour>
      <contour>
        <pt x="62" y="0" on="1"/>
        <pt x="62" y="32" on="1"/>
        <pt x="134" y="32" on="1"/>
        <pt x="161" y="32" on="0"/>
        <pt x="161" y="59" on="1"/>
        <pt x="161" y="653" on="1"/>
        <pt x="161" y="680" on="0"/>
        <pt x="134" y="680" on="1"/>
        <pt x="62" y="680" on="1"/>
        <pt x="62" y="712" on="1"/>
        <pt x="390" y="712" on="1"/>
        <pt x="495" y="712" on="0"/>
        <pt x="611" y="629" on="0"/>
        <pt x="611" y="552" on="1"/>
        <pt x="611" y="478" on="0"/>
        <pt x="500" y="388" on="0"/>
        <pt x="422" y="380" on="1"/>
        <pt x="422" y="376" on="1"/>
        <pt x="479" y="365" on="0"/>
        <pt x="552" y="282" on="0"/>
        <pt x="564" y="182" on="1"/>
        <pt x="574" y="100" on="0"/>
        <pt x="592" y="52" on="0"/>
        <pt x="616" y="52" on="1"/>
        <pt x="659" y="52" on="0"/>
        <pt x="659" y="160" on="1"/>
        <pt x="684" y="160" on="1"/>
        <pt x="684" y="-12" on="0"/>
        <pt x="580" y="-12" on="1"/>
        <pt x="514" y="-12" on="0"/>
        <pt x="489" y="35" on="1"/>
        <pt x="462" y="87" on="0"/>
        <pt x="460" y="212" on="1"/>
        <pt x="459" y="279" on="0"/>
        <pt x="413" y="368" on="0"/>
        <pt x="362" y="368" on="1"/>
        <pt x="253" y="368" on="1"/>
        <pt x="253" y="59" on="1"/>
        <pt x="253" y="32" on="0"/>
        <pt x="280" y="32" on="1"/>
        <pt x="369" y="32" on="1"/>
        <pt x="369" y="0" on="1"/>
      </contour>
    </TTGlyph>
    <TTGlyph name="Ring" xMin="123" yMin="754" xMax="317" yMax="948">
      <contour>
        <pt x="220" y="754" on="1"/>
        <pt x="180" y="754" on="0"/>
        <pt x="123" y="811" on="0"/>
        <pt x="123" y="852" on="1"/>
        <pt x="123" y="892" on="0"/>
        <pt x="179" y="948" on="0"/>
        <pt x="220" y="948" on="1"/>
        <pt x="261" y="948" on="0"/>
        <pt x="317" y="892" on="0"/>
        <pt x="317" y="852" on="1"/>
        <pt x="317" y="811" on="0"/>
        <pt x="260" y="754" on="0"/>
      </contour>
      <contour>
        <pt x="220" y="778" on="1"/>
        <pt x="251" y="778" on="0"/>
        <pt x="293" y="820" on="0"/>
        <pt x="293" y="852" on="1"/>
        <pt x="293" y="883" on="0"/>
        <pt x="252" y="924" on="0"/>
        <pt x="220" y="924" on="1"/>
        <pt x="188" y="924" on="0"/>
        <pt x="147" y="883" on="0"/>
        <pt x="147" y="852" on="1"/>
        <pt x="147" y="820" on="0"/>
        <pt x="189" y="778" on="0"/>
      </contour>
    </TTGlyph>
    <TTGlyph name="S" xMin="88" yMin="-18" xMax="568" yMax="730">
      <contour>
        <pt x="88" y="306" on="1"/>
        <pt x="112" y="306" on="1"/>
        <pt x="122" y="193" on="0"/>
        <pt x="266" y="14" on="0"/>
        <pt x="351" y="14" on="1"/>
        <pt x="433" y="14" on="0"/>
        <pt x="508" y="94" on="0"/>
        <pt x="508" y="150" on="1"/>
        <pt x="508" y="199" on="0"/>
        <pt x="451" y="255" on="0"/>
        <pt x="396" y="277" on="1"/>
        <pt x="244" y="338" on="1"/>
        <pt x="90" y="399" on="0"/>
        <pt x="90" y="542" on="1"/>
        <pt x="90" y="638" on="0"/>
        <pt x="202" y="730" on="0"/>
        <pt x="286" y="730" on="1"/>
        <pt x="326" y="730" on="0"/>
        <pt x="402" y="693" on="0"/>
        <pt x="432" y="670" on="1"/>
        <pt x="456" y="652" on="0"/>
        <pt x="470" y="652" on="1"/>
        <pt x="487" y="652" on="0"/>
        <pt x="490" y="676" on="1"/>
        <pt x="494" y="712" on="1"/>
        <pt x="518" y="712" on="1"/>
        <pt x="528" y="452" on="1"/>
        <pt x="504" y="452" on="1"/>
        <pt x="480" y="560" on="0"/>
        <pt x="352" y="698" on="0"/>
        <pt x="278" y="698" on="1"/>
        <pt x="222" y="698" on="0"/>
        <pt x="150" y="625" on="0"/>
        <pt x="150" y="560" on="1"/>
        <pt x="150" y="515" on="0"/>
        <pt x="196" y="465" on="0"/>
        <pt x="241" y="447" on="1"/>
        <pt x="434" y="370" on="1"/>
        <pt x="501" y="343" on="0"/>
        <pt x="568" y="243" on="0"/>
        <pt x="568" y="188" on="1"/>
        <pt x="568" y="105" on="0"/>
        <pt x="458" y="-18" on="0"/>
        <pt x="351" y="-18" on="1"/>
        <pt x="314" y="-18" on="0"/>
        <pt x="233" y="16" on="0"/>
        <pt x="211" y="32" on="0"/>
        <pt x="161" y="67" on="0"/>
        <pt x="151" y="73" on="0"/>
        <pt x="147" y="73" on="1"/>
        <pt x="139" y="73" on="0"/>
        <pt x="124" y="52" on="0"/>
        <pt x="122" y="30" on="1"/>
        <pt x="118" y="-10" on="1"/>
        <pt x="95" y="-10" on="1"/>
      </contour>
    </TTGlyph>
    <TTGlyph name="T" xMin="72" yMin="0" xMax="662" yMax="712">
      <contour>
        <pt x="72" y="444" on="1"/>
        <pt x="80" y="712" on="1"/>
        <pt x="654" y="712" on="1"/>
        <pt x="662" y="444" on="1"/>
        <pt x="637" y="444" on="1"/>
        <pt x="637" y="455" on="0"/>
        <pt x="633" y="503" on="0"/>
        <pt x="607" y="600" on="0"/>
        <pt x="585" y="628" on="1"/>
        <pt x="544" y="680" on="0"/>
        <pt x="486" y="680" on="1"/>
        <pt x="440" y="680" on="1"/>
        <pt x="413" y="680" on="0"/>
        <pt x="413" y="653" on="1"/>
        <pt x="413" y="59" on="1"/>
        <pt x="413" y="32" on="0"/>
        <pt x="440" y="32" on="1"/>
        <pt x="536" y="32" on="1"/>
        <pt x="536" y="0" on="1"/>
        <pt x="198" y="0" on="1"/>
        <pt x="198" y="32" on="1"/>
        <pt x="294" y="32" on="1"/>
        <pt x="321" y="32" on="0"/>
        <pt x="321" y="59" on="1"/>
        <pt x="321" y="653" on="1"/>
        <pt x="321" y="680" on="0"/>
        <pt x="294" y="680" on="1"/>
        <pt x="248" y="680" on="1"/>
        <pt x="188" y="680" on="0"/>
        <pt x="149" y="628" on="1"/>
        <pt x="127" y="600" on="0"/>
        <pt x="101" y="503" on="0"/>
        <pt x="97" y="455" on="0"/>
        <pt x="97" y="444" on="1"/>
      </contour>
    </TTGlyph>
    <TTGlyph name="Thorn" xMin="62" yMin="0" xMax="636" yMax="712">
      <contour>
        <pt x="62" y="0" on="1"/>
        <pt x="62" y="32" on="1"/>
        <pt x="134" y="32" on="1"/>
        <pt x="161" y="32" on="0"/>
        <pt x="161" y="59" on="1"/>
        <pt x="161" y="653" on="1"/>
        <pt x="161" y="680" on="0"/>
        <pt x="134" y="680" on="1"/>
        <pt x="62" y="680" on="1"/>
        <pt x="62" y="712" on="1"/>
        <pt x="368" y="712" on="1"/>
        <pt x="368" y="680" on="1"/>
        <pt x="280" y="680" on="1"/>
        <pt x="253" y="680" on="0"/>
        <pt x="253" y="653" on="1"/>
        <pt x="253" y="586" on="1"/>
        <pt x="396" y="586" on="1"/>
        <pt x="502" y="586" on="0"/>
        <pt x="636" y="483" on="0"/>
        <pt x="636" y="400" on="1"/>
        <pt x="636" y="317" on="0"/>
        <pt x="502" y="210" on="0"/>
        <pt x="396" y="210" on="1"/>
        <pt x="253" y="210" on="1"/>
        <pt x="253" y="59" on="1"/>
        <pt x="253" y="32" on="0"/>
        <pt x="280" y="32" on="1"/>
        <pt x="368" y="32" on="1"/>
        <pt x="368" y="0" on="1"/>
      </contour>
      <contour>
        <pt x="253" y="242" on="1"/>
        <pt x="409" y="242" on="1"/>
        <pt x="463" y="242" on="0"/>
        <pt x="530" y="335" on="0"/>
        <pt x="530" y="400" on="1"/>
        <pt x="530" y="465" on="0"/>
        <pt x="464" y="554" on="0"/>
        <pt x="409" y="554" on="1"/>
        <pt x="280" y="554" on="1"/>
        <pt x="253" y="554" on="0"/>
        <pt x="253" y="527" on="1"/>
      </contour>
    </TTGlyph>
    <TTGlyph name="Tilde" xMin="74" yMin="810" xMax="374" yMax="904">
      <contour>
        <pt x="294" y="810" on="1"/>
        <pt x="262" y="810" on="0"/>
        <pt x="156" y="850" on="0"/>
        <pt x="132" y="850" on="1"/>
        <pt x="103" y="850" on="0"/>
        <pt x="96" y="810" on="1"/>
        <pt x="74" y="810" on="1"/>
        <pt x="74" y="849" on="0"/>
        <pt x="116" y="904" on="0"/>
        <pt x="154" y="904" on="1"/>
        <pt x="186" y="904" on="0"/>
        <pt x="292" y="864" on="0"/>
        <pt x="316" y="864" on="1"/>
        <pt x="345" y="864" on="0"/>
        <pt x="352" y="904" on="1"/>
        <pt x="374" y="904" on="1"/>
        <pt x="374" y="865" on="0"/>
        <pt x="332" y="810" on="0"/>
      </contour>
    </TTGlyph>
    <TTGlyph name="U" xMin="62" yMin="-18" xMax="762" yMax="712">
      <contour>
        <pt x="424" y="-18" on="1"/>
        <pt x="355" y="-18" on="0"/>
        <pt x="251" y="25" on="0"/>
        <pt x="191" y="98" on="0"/>
        <pt x="161" y="187" on="0"/>
        <pt x="161" y="237" on="1"/>
        <pt x="161" y="653" on="1"/>
        <pt x="161" y="680" on="0"/>
        <pt x="134" y="680" on="1"/>
        <pt x="62" y="680" on="1"/>
        <pt x="62" y="712" on="1"/>
        <pt x="353" y="712" on="1"/>
        <pt x="353" y="680" on="1"/>
        <pt x="280" y="680" on="1"/>
        <pt x="253" y="680" on="0"/>
        <pt x="253" y="653" on="1"/>
        <pt x="253" y="210" on="1"/>
        <pt x="253" y="117" on="0"/>
        <pt x="343" y="14" on="0"/>
        <pt x="424" y="14" on="1"/>
        <pt x="518" y="14" on="0"/>
        <pt x="623" y="121" on="0"/>
        <pt x="623" y="198" on="1"/>
        <pt x="623" y="599" on="1"/>
        <pt x="623" y="636" on="0"/>
        <pt x="587" y="680" on="0"/>
        <pt x="559" y="680" on="1"/>
        <pt x="524" y="680" on="1"/>
        <pt x="524" y="712" on="1"/>
        <pt x="762" y="712" on="1"/>
        <pt x="762" y="680" on="1"/>
        <pt x="727" y="680" on="1"/>
        <pt x="699" y="680" on="0"/>
        <pt x="663" y="636" on="0"/>
        <pt x="663" y="599" on="1"/>
        <pt x="663" y="208" on="1"/>
        <pt x="663" y="111" on="0"/>
        <pt x="534" y="-18" on="0"/>
      </contour>
    </TTGlyph>
    <TTGlyph name="Uacute" xMin="62" yMin="-18" xMax="762" yMax="938">
      <component glyphName="Acute" x="202" y="0" flags="0x1004"/>
      <component glyphName="U" x="0" y="0" flags="0x1204"/>
    </TTGlyph>
    <TTGlyph name="Ucircumflex" xMin="62" yMin="-18" xMax="762" yMax="920">
      <component glyphName="Circumflex" x="202" y="0" flags="0x1004"/>
      <component glyphName="U" x="0" y="0" flags="0x1204"/>
    </TTGlyph>
    <TTGlyph name="Udieresis" xMin="62" yMin="-18" xMax="762" yMax="902">
      <component glyphName="Dieresis" x="202" y="0" flags="0x1004"/>
      <component glyphName="U" x="0" y="0" flags="0x1204"/>
    </TTGlyph>
    <TTGlyph name="Ugrave" xMin="62" yMin="-18" xMax="762" yMax="938">
      <component glyphName="Grave" x="202" y="0" flags="0x1004"/>
      <component glyphName="U" x="0" y="0" flags="0x1204"/>
    </TTGlyph>
    <TTGlyph name="V" xMin="44" yMin="-18" xMax="748" yMax="712">
      <contour>
        <pt x="399" y="-18" on="1"/>
        <pt x="166" y="636" on="1"/>
        <pt x="157" y="661" on="0"/>
        <pt x="129" y="680" on="0"/>
        <pt x="107" y="680" on="1"/>
        <pt x="44" y="680" on="1"/>
        <pt x="44" y="712" on="1"/>
        <pt x="364" y="712" on="1"/>
        <pt x="364" y="680" on="1"/>
        <pt x="298" y="680" on="1"/>
        <pt x="284" y="680" on="0"/>
        <pt x="264" y="665" on="0"/>
        <pt x="264" y="655" on="1"/>
        <pt x="264" y="644" on="0"/>
        <pt x="268" y="633" on="1"/>
        <pt x="439" y="152" on="1"/>
        <pt x="571" y="558" on="1"/>
        <pt x="583" y="595" on="0"/>
        <pt x="583" y="628" on="1"/>
        <pt x="583" y="649" on="0"/>
        <pt x="558" y="680" on="0"/>
        <pt x="532" y="680" on="1"/>
        <pt x="478" y="680" on="1"/>
        <pt x="478" y="712" on="1"/>
        <pt x="748" y="712" on="1"/>
        <pt x="748" y="680" on="1"/>
        <pt x="711" y="680" on="1"/>
        <pt x="651" y="680" on="0"/>
        <pt x="627" y="607" on="1"/>
        <pt x="424" y="-18" on="1"/>
      </contour>
    </TTGlyph>
    <TTGlyph name="W" xMin="38" yMin="-18" xMax="1044" yMax="712">
      <contour>
        <pt x="349" y="-18" on="1"/>
        <pt x="159" y="636" on="1"/>
        <pt x="143" y="680" on="0"/>
        <pt x="100" y="680" on="1"/>
        <pt x="38" y="680" on="1"/>
        <pt x="38" y="712" on="1"/>
        <pt x="334" y="712" on="1"/>
        <pt x="334" y="680" on="1"/>
        <pt x="286" y="680" on="1"/>
        <pt x="272" y="680" on="0"/>
        <pt x="252" y="665" on="0"/>
        <pt x="252" y="655" on="1"/>
        <pt x="252" y="647" on="0"/>
        <pt x="256" y="633" on="1"/>
        <pt x="389" y="173" on="1"/>
        <pt x="510" y="611" on="1"/>
        <pt x="500" y="643" on="1"/>
        <pt x="487" y="680" on="0"/>
        <pt x="429" y="680" on="1"/>
        <pt x="400" y="680" on="1"/>
        <pt x="400" y="712" on="1"/>
        <pt x="696" y="712" on="1"/>
        <pt x="696" y="680" on="1"/>
        <pt x="657" y="680" on="1"/>
        <pt x="606" y="680" on="0"/>
        <pt x="606" y="628" on="1"/>
        <pt x="606" y="614" on="0"/>
        <pt x="612" y="597" on="1"/>
        <pt x="738" y="164" on="1"/>
        <pt x="863" y="558" on="1"/>
        <pt x="874" y="601" on="0"/>
        <pt x="874" y="630" on="1"/>
        <pt x="874" y="650" on="0"/>
        <pt x="838" y="680" on="0"/>
        <pt x="808" y="680" on="1"/>
        <pt x="774" y="680" on="1"/>
        <pt x="774" y="712" on="1"/>
        <pt x="1044" y="712" on="1"/>
        <pt x="1044" y="680" on="1"/>
        <pt x="1001" y="680" on="1"/>
        <pt x="943" y="680" on="0"/>
        <pt x="920" y="607" on="1"/>
        <pt x="721" y="-18" on="1"/>
        <pt x="696" y="-18" on="1"/>
        <pt x="532" y="538" on="1"/>
        <pt x="374" y="-18" on="1"/>
      </contour>
    </TTGlyph>
    <TTGlyph name="X" xMin="46" yMin="0" xMax="724" yMax="712">
      <contour>
        <pt x="46" y="0" on="1"/>
        <pt x="46" y="32" on="1"/>
        <pt x="77" y="32" on="1"/>
        <pt x="106" y="32" on="0"/>
        <pt x="145" y="52" on="0"/>
        <pt x="163" y="81" on="0"/>
        <pt x="176" y="99" on="1"/>
        <pt x="345" y="352" on="1"/>
        <pt x="196" y="628" on="1"/>
        <pt x="181" y="656" on="0"/>
        <pt x="150" y="680" on="0"/>
        <pt x="117" y="680" on="1"/>
        <pt x="56" y="680" on="1"/>
        <pt x="56" y="712" on="1"/>
        <pt x="366" y="712" on="1"/>
        <pt x="366" y="680" on="1"/>
        <pt x="306" y="680" on="1"/>
        <pt x="288" y="680" on="0"/>
        <pt x="288" y="665" on="1"/>
        <pt x="288" y="652" on="0"/>
        <pt x="296" y="639" on="1"/>
        <pt x="404" y="439" on="1"/>
        <pt x="499" y="581" on="1"/>
        <pt x="519" y="611" on="0"/>
        <pt x="519" y="638" on="1"/>
        <pt x="519" y="655" on="0"/>
        <pt x="492" y="680" on="0"/>
        <pt x="470" y="680" on="1"/>
        <pt x="439" y="680" on="1"/>
        <pt x="439" y="712" on="1"/>
        <pt x="709" y="712" on="1"/>
        <pt x="709" y="680" on="1"/>
        <pt x="664" y="680" on="1"/>
        <pt x="608" y="680" on="0"/>
        <pt x="576" y="631" on="1"/>
        <pt x="423" y="401" on="1"/>
        <pt x="600" y="76" on="1"/>
        <pt x="625" y="32" on="0"/>
        <pt x="662" y="32" on="1"/>
        <pt x="724" y="32" on="1"/>
        <pt x="724" y="0" on="1"/>
        <pt x="414" y="0" on="1"/>
        <pt x="414" y="32" on="1"/>
        <pt x="474" y="32" on="1"/>
        <pt x="501" y="32" on="0"/>
        <pt x="501" y="53" on="1"/>
        <pt x="501" y="64" on="0"/>
        <pt x="494" y="78" on="1"/>
        <pt x="366" y="314" on="1"/>
        <pt x="251" y="139" on="1"/>
        <pt x="226" y="101" on="0"/>
        <pt x="226" y="76" on="1"/>
        <pt x="226" y="58" on="0"/>
        <pt x="244" y="32" on="0"/>
        <pt x="262" y="32" on="1"/>
        <pt x="316" y="32" on="1"/>
        <pt x="316" y="0" on="1"/>
      </contour>
    </TTGlyph>
    <TTGlyph name="Y" xMin="42" yMin="0" xMax="702" yMax="712">
      <contour>
        <pt x="224" y="0" on="1"/>
        <pt x="224" y="32" on="1"/>
        <pt x="320" y="32" on="1"/>
        <pt x="347" y="32" on="0"/>
        <pt x="347" y="59" on="1"/>
        <pt x="347" y="318" on="1"/>
        <pt x="153" y="636" on="1"/>
        <pt x="138" y="662" on="0"/>
        <pt x="114" y="680" on="0"/>
        <pt x="94" y="680" on="1"/>
        <pt x="42" y="680" on="1"/>
        <pt x="42" y="712" on="1"/>
        <pt x="352" y="712" on="1"/>
        <pt x="352" y="680" on="1"/>
        <pt x="296" y="680" on="1"/>
        <pt x="281" y="680" on="0"/>
        <pt x="261" y="666" on="0"/>
        <pt x="261" y="655" on="1"/>
        <pt x="261" y="640" on="0"/>
        <pt x="266" y="633" on="1"/>
        <pt x="420" y="366" on="1"/>
        <pt x="522" y="562" on="1"/>
        <pt x="527" y="569" on="0"/>
        <pt x="539" y="611" on="0"/>
        <pt x="539" y="623" on="1"/>
        <pt x="539" y="647" on="0"/>
        <pt x="512" y="680" on="0"/>
        <pt x="484" y="680" on="1"/>
        <pt x="454" y="680" on="1"/>
        <pt x="454" y="712" on="1"/>
        <pt x="702" y="712" on="1"/>
        <pt x="702" y="680" on="1"/>
        <pt x="673" y="680" on="1"/>
        <pt x="649" y="680" on="0"/>
        <pt x="611" y="653" on="0"/>
        <pt x="595" y="630" on="0"/>
        <pt x="582" y="607" on="1"/>
        <pt x="439" y="335" on="1"/>
        <pt x="439" y="59" on="1"/>
        <pt x="439" y="32" on="0"/>
        <pt x="466" y="32" on="1"/>
        <pt x="562" y="32" on="1"/>
        <pt x="562" y="0" on="1"/>
      </contour>
    </TTGlyph>
    <TTGlyph name="Yacute" xMin="42" yMin="0" xMax="702" yMax="938">
      <component glyphName="Acute" x="172" y="0" flags="0x1004"/>
      <component glyphName="Y" x="0" y="0" flags="0x1204"/>
    </TTGlyph>
    <TTGlyph name="Z" xMin="68" yMin="0" xMax="606" yMax="712">
      <contour>
        <pt x="68" y="0" on="1"/>
        <pt x="68" y="32" on="1"/>
        <pt x="482" y="680" on="1"/>
        <pt x="294" y="680" on="1"/>
        <pt x="235" y="680" on="0"/>
        <pt x="185" y="622" on="1"/>
        <pt x="152" y="583" on="0"/>
        <pt x="113" y="468" on="0"/>
        <pt x="113" y="456" on="1"/>
        <pt x="88" y="456" on="1"/>
        <pt x="124" y="712" on="1"/>
        <pt x="588" y="712" on="1"/>
        <pt x="588" y="680" on="1"/>
        <pt x="178" y="32" on="1"/>
        <pt x="399" y="32" on="1"/>
        <pt x="454" y="32" on="0"/>
        <pt x="502" y="88" on="1"/>
        <pt x="527" y="117" on="0"/>
        <pt x="566" y="214" on="0"/>
        <pt x="574" y="248" on="1"/>
        <pt x="581" y="282" on="1"/>
        <pt x="606" y="282" on="1"/>
        <pt x="582" y="0" on="1"/>
      </contour>
    </TTGlyph>
    <TTGlyph name="a" xMin="46" yMin="-12" xMax="476" yMax="468">
      <contour>
        <pt x="130" y="103" on="1"/>
        <pt x="130" y="24" on="0"/>
        <pt x="192" y="24" on="1"/>
        <pt x="216" y="24" on="0"/>
        <pt x="255" y="47" on="0"/>
        <pt x="284" y="92" on="0"/>
        <pt x="299" y="125" on="0"/>
        <pt x="308" y="150" on="1"/>
        <pt x="308" y="245" on="1"/>
        <pt x="221" y="226" on="1"/>
        <pt x="173" y="216" on="0"/>
        <pt x="130" y="157" on="0"/>
      </contour>
      <contour>
        <pt x="46" y="106" on="1"/>
        <pt x="46" y="137" on="0"/>
        <pt x="70" y="186" on="0"/>
        <pt x="101" y="214" on="0"/>
        <pt x="155" y="236" on="0"/>
        <pt x="188" y="244" on="0"/>
        <pt x="216" y="249" on="1"/>
        <pt x="308" y="266" on="1"/>
        <pt x="308" y="351" on="1"/>
        <pt x="308" y="444" on="0"/>
        <pt x="215" y="444" on="1"/>
        <pt x="181" y="444" on="0"/>
        <pt x="125" y="409" on="0"/>
        <pt x="125" y="387" on="1"/>
        <pt x="125" y="377" on="0"/>
        <pt x="128" y="372" on="1"/>
        <pt x="132" y="364" on="0"/>
        <pt x="143" y="362" on="1"/>
        <pt x="180" y="352" on="0"/>
        <pt x="180" y="323" on="1"/>
        <pt x="180" y="284" on="0"/>
        <pt x="136" y="284" on="1"/>
        <pt x="114" y="284" on="0"/>
        <pt x="78" y="318" on="0"/>
        <pt x="78" y="350" on="1"/>
        <pt x="78" y="405" on="0"/>
        <pt x="164" y="468" on="0"/>
        <pt x="218" y="468" on="1"/>
        <pt x="284" y="468" on="0"/>
        <pt x="380" y="399" on="0"/>
        <pt x="380" y="326" on="1"/>
        <pt x="380" y="80" on="1"/>
        <pt x="380" y="30" on="0"/>
        <pt x="411" y="30" on="1"/>
        <pt x="458" y="30" on="0"/>
        <pt x="458" y="130" on="1"/>
        <pt x="476" y="130" on="1"/>
        <pt x="476" y="-12" on="0"/>
        <pt x="396" y="-12" on="1"/>
        <pt x="311" y="-12" on="0"/>
        <pt x="308" y="84" on="1"/>
        <pt x="303" y="86" on="1"/>
        <pt x="288" y="51" on="0"/>
        <pt x="221" y="-12" on="0"/>
        <pt x="176" y="-12" on="1"/>
        <pt x="123" y="-12" on="0"/>
        <pt x="46" y="40" on="0"/>
      </contour>
    </TTGlyph>
    <TTGlyph name="aacute" xMin="46" yMin="-12" xMax="476" yMax="684">
      <component glyphName="acute" x="8" y="0" flags="0x1004"/>
      <component glyphName="a" x="0" y="0" flags="0x1204"/>
    </TTGlyph>
    <TTGlyph name="acircumflex" xMin="46" yMin="-12" xMax="476" yMax="672">
      <component glyphName="circumflex" x="8" y="0" flags="0x1004"/>
      <component glyphName="a" x="0" y="0" flags="0x1204"/>
    </TTGlyph>
    <TTGlyph name="acute" xMin="195" yMin="508" xMax="364" yMax="684">
      <contour>
        <pt x="336" y="684" on="1"/>
        <pt x="364" y="684" on="0"/>
        <pt x="364" y="653" on="1"/>
        <pt x="364" y="630" on="0"/>
        <pt x="336" y="609" on="1"/>
        <pt x="208" y="508" on="1"/>
        <pt x="195" y="519" on="1"/>
        <pt x="287" y="652" on="1"/>
        <pt x="310" y="684" on="0"/>
      </contour>
    </TTGlyph>
    <TTGlyph name="adieresis" xMin="46" yMin="-12" xMax="476" yMax="648">
      <component glyphName="dieresis" x="8" y="0" flags="0x1004"/>
      <component glyphName="a" x="0" y="0" flags="0x1204"/>
    </TTGlyph>
    <TTGlyph name="ae" xMin="46" yMin="-12" xMax="656" yMax="468">
      <contour>
        <pt x="46" y="106" on="1"/>
        <pt x="46" y="137" on="0"/>
        <pt x="70" y="186" on="0"/>
        <pt x="101" y="213" on="0"/>
        <pt x="154" y="235" on="0"/>
        <pt x="188" y="244" on="0"/>
        <pt x="216" y="249" on="1"/>
        <pt x="308" y="266" on="1"/>
        <pt x="308" y="351" on="1"/>
        <pt x="308" y="444" on="0"/>
        <pt x="215" y="444" on="1"/>
        <pt x="181" y="444" on="0"/>
        <pt x="125" y="409" on="0"/>
        <pt x="125" y="387" on="1"/>
        <pt x="125" y="377" on="0"/>
        <pt x="128" y="372" on="1"/>
        <pt x="132" y="364" on="0"/>
        <pt x="143" y="362" on="1"/>
        <pt x="180" y="352" on="0"/>
        <pt x="180" y="323" on="1"/>
        <pt x="180" y="284" on="0"/>
        <pt x="136" y="284" on="1"/>
        <pt x="114" y="284" on="0"/>
        <pt x="78" y="318" on="0"/>
        <pt x="78" y="350" on="1"/>
        <pt x="78" y="405" on="0"/>
        <pt x="164" y="468" on="0"/>
        <pt x="218" y="468" on="1"/>
        <pt x="316" y="468" on="0"/>
        <pt x="356" y="408" on="1"/>
        <pt x="409" y="468" on="0"/>
        <pt x="480" y="468" on="1"/>
        <pt x="524" y="468" on="0"/>
        <pt x="595" y="423" on="0"/>
        <pt x="635" y="350" on="0"/>
        <pt x="656" y="266" on="0"/>
        <pt x="656" y="224" on="1"/>
        <pt x="380" y="224" on="1"/>
        <pt x="380" y="122" on="0"/>
        <pt x="430" y="12" on="0"/>
        <pt x="494" y="12" on="1"/>
        <pt x="514" y="12" on="0"/>
        <pt x="551" y="25" on="0"/>
        <pt x="589" y="54" on="0"/>
        <pt x="617" y="114" on="0"/>
        <pt x="622" y="156" on="1"/>
        <pt x="646" y="156" on="1"/>
        <pt x="640" y="82" on="0"/>
        <pt x="562" y="-12" on="0"/>
        <pt x="492" y="-12" on="1"/>
        <pt x="369" y="-12" on="0"/>
        <pt x="315" y="109" on="1"/>
        <pt x="298" y="59" on="0"/>
        <pt x="223" y="-12" on="0"/>
        <pt x="176" y="-12" on="1"/>
        <pt x="123" y="-12" on="0"/>
        <pt x="46" y="40" on="0"/>
      </contour>
      <contour>
        <pt x="380" y="252" on="1"/>
        <pt x="570" y="252" on="1"/>
        <pt x="570" y="330" on="0"/>
        <pt x="525" y="444" on="0"/>
        <pt x="476" y="444" on="1"/>
        <pt x="427" y="444" on="0"/>
        <pt x="380" y="329" on="0"/>
      </contour>
      <contour>
        <pt x="130" y="103" on="1"/>
        <pt x="130" y="24" on="0"/>
        <pt x="192" y="24" on="1"/>
        <pt x="216" y="24" on="0"/>
        <pt x="255" y="47" on="0"/>
        <pt x="283" y="92" on="0"/>
        <pt x="299" y="125" on="0"/>
        <pt x="308" y="150" on="1"/>
        <pt x="308" y="245" on="1"/>
        <pt x="221" y="226" on="1"/>
        <pt x="173" y="216" on="0"/>
        <pt x="130" y="157" on="0"/>
      </contour>
    </TTGlyph>
    <TTGlyph name="agrave" xMin="46" yMin="-12" xMax="476" yMax="684">
      <component glyphName="grave" x="8" y="0" flags="0x1004"/>
      <component glyphName="a" x="0" y="0" flags="0x1204"/>
    </TTGlyph>
    <TTGlyph name="ampersand" xMin="54" yMin="-18" xMax="732" yMax="703">
      <contour>
        <pt x="54" y="145" on="1"/>
        <pt x="54" y="237" on="0"/>
        <pt x="196" y="346" on="1"/>
        <pt x="226" y="369" on="1"/>
        <pt x="216" y="384" on="1"/>
        <pt x="164" y="463" on="0"/>
        <pt x="164" y="530" on="1"/>
        <pt x="164" y="605" on="0"/>
        <pt x="256" y="703" on="0"/>
        <pt x="318" y="703" on="1"/>
        <pt x="376" y="703" on="0"/>
        <pt x="435" y="630" on="0"/>
        <pt x="435" y="580" on="1"/>
        <pt x="435" y="524" on="0"/>
        <pt x="370" y="440" on="0"/>
        <pt x="311" y="393" on="1"/>
        <pt x="483" y="149" on="1"/>
        <pt x="487" y="154" on="1"/>
        <pt x="522" y="197" on="0"/>
        <pt x="568" y="297" on="0"/>
        <pt x="568" y="326" on="1"/>
        <pt x="568" y="344" on="0"/>
        <pt x="545" y="366" on="0"/>
        <pt x="529" y="366" on="1"/>
        <pt x="484" y="366" on="1"/>
        <pt x="484" y="398" on="1"/>
        <pt x="732" y="398" on="1"/>
        <pt x="732" y="366" on="1"/>
        <pt x="701" y="366" on="1"/>
        <pt x="683" y="366" on="0"/>
        <pt x="661" y="361" on="0"/>
        <pt x="628" y="335" on="0"/>
        <pt x="615" y="309" on="1"/>
        <pt x="554" y="186" on="0"/>
        <pt x="503" y="121" on="1"/>
        <pt x="538" y="72" on="0"/>
        <pt x="587" y="26" on="0"/>
        <pt x="611" y="26" on="1"/>
        <pt x="648" y="26" on="0"/>
        <pt x="692" y="68" on="0"/>
        <pt x="708" y="102" on="1"/>
        <pt x="724" y="94" on="1"/>
        <pt x="673" y="-18" on="0"/>
        <pt x="588" y="-18" on="1"/>
        <pt x="518" y="-18" on="0"/>
        <pt x="446" y="63" on="1"/>
        <pt x="354" y="-18" on="0"/>
        <pt x="249" y="-18" on="1"/>
        <pt x="158" y="-18" on="0"/>
        <pt x="54" y="64" on="0"/>
      </contour>
      <contour>
        <pt x="150" y="153" on="1"/>
        <pt x="150" y="85" on="0"/>
        <pt x="220" y="12" on="0"/>
        <pt x="261" y="12" on="1"/>
        <pt x="345" y="12" on="0"/>
        <pt x="425" y="87" on="1"/>
        <pt x="407" y="110" on="1"/>
        <pt x="246" y="341" on="1"/>
        <pt x="236" y="333" on="1"/>
        <pt x="150" y="264" on="0"/>
      </contour>
      <contour>
        <pt x="228" y="560" on="1"/>
        <pt x="228" y="504" on="0"/>
        <pt x="281" y="435" on="1"/>
        <pt x="291" y="422" on="1"/>
        <pt x="321" y="445" on="0"/>
        <pt x="357" y="477" on="0"/>
        <pt x="399" y="548" on="0"/>
        <pt x="399" y="586" on="1"/>
        <pt x="399" y="621" on="0"/>
        <pt x="353" y="673" on="0"/>
        <pt x="319" y="673" on="1"/>
        <pt x="278" y="673" on="0"/>
        <pt x="228" y="610" on="0"/>
      </contour>
    </TTGlyph>
    <TTGlyph name="aring" xMin="46" yMin="-12" xMax="476" yMax="694">
      <component glyphName="ring" x="8" y="0" flags="0x1004"/>
      <component glyphName="a" x="0" y="0" flags="0x1204"/>
    </TTGlyph>
    <TTGlyph name="asciicircum" xMin="62" yMin="336" xMax="518" yMax="700">
      <contour>
        <pt x="62" y="336" on="1"/>
        <pt x="292" y="700" on="1"/>
        <pt x="518" y="336" on="1"/>
        <pt x="470" y="336" on="1"/>
        <pt x="292" y="622" on="1"/>
        <pt x="110" y="336" on="1"/>
      </contour>
    </TTGlyph>
    <TTGlyph name="asciitilde" xMin="48" yMin="163" xMax="612" yMax="359">
      <contour>
        <pt x="122" y="290" on="1"/>
        <pt x="106" y="290" on="0"/>
        <pt x="82" y="265" on="0"/>
        <pt x="82" y="244" on="1"/>
        <pt x="82" y="206" on="0"/>
        <pt x="124" y="184" on="1"/>
        <pt x="112" y="163" on="1"/>
        <pt x="48" y="192" on="0"/>
        <pt x="48" y="253" on="1"/>
        <pt x="48" y="293" on="0"/>
        <pt x="108" y="352" on="0"/>
        <pt x="162" y="352" on="1"/>
        <pt x="225" y="352" on="0"/>
        <pt x="370" y="288" on="1"/>
        <pt x="494" y="232" on="0"/>
        <pt x="538" y="232" on="1"/>
        <pt x="554" y="232" on="0"/>
        <pt x="578" y="257" on="0"/>
        <pt x="578" y="278" on="1"/>
        <pt x="578" y="316" on="0"/>
        <pt x="536" y="338" on="1"/>
        <pt x="548" y="359" on="1"/>
        <pt x="612" y="330" on="0"/>
        <pt x="612" y="269" on="1"/>
        <pt x="612" y="229" on="0"/>
        <pt x="552" y="170" on="0"/>
        <pt x="498" y="170" on="1"/>
        <pt x="468" y="170" on="0"/>
        <pt x="389" y="192" on="0"/>
        <pt x="338" y="213" on="0"/>
        <pt x="290" y="234" on="1"/>
        <pt x="271" y="242" on="0"/>
        <pt x="235" y="258" on="0"/>
        <pt x="198" y="273" on="0"/>
        <pt x="166" y="284" on="0"/>
        <pt x="134" y="290" on="0"/>
      </contour>
    </TTGlyph>
    <TTGlyph name="asterisk" xMin="72" yMin="290" xMax="438" yMax="700">
      <contour>
        <pt x="255" y="700" on="1"/>
        <pt x="273" y="700" on="0"/>
        <pt x="293" y="676" on="0"/>
        <pt x="293" y="657" on="1"/>
        <pt x="293" y="643" on="0"/>
        <pt x="281" y="614" on="1"/>
        <pt x="267" y="579" on="0"/>
        <pt x="267" y="537" on="1"/>
        <pt x="267" y="522" on="0"/>
        <pt x="275" y="522" on="1"/>
        <pt x="280" y="522" on="0"/>
        <pt x="289" y="528" on="1"/>
        <pt x="324" y="550" on="0"/>
        <pt x="345" y="577" on="1"/>
        <pt x="374" y="616" on="0"/>
        <pt x="401" y="616" on="1"/>
        <pt x="418" y="616" on="0"/>
        <pt x="438" y="593" on="0"/>
        <pt x="438" y="579" on="1"/>
        <pt x="438" y="541" on="0"/>
        <pt x="371" y="532" on="1"/>
        <pt x="334" y="527" on="0"/>
        <pt x="297" y="506" on="1"/>
        <pt x="292" y="502" on="1"/>
        <pt x="287" y="499" on="0"/>
        <pt x="287" y="495" on="1"/>
        <pt x="287" y="491" on="0"/>
        <pt x="292" y="488" on="1"/>
        <pt x="297" y="484" on="1"/>
        <pt x="334" y="463" on="0"/>
        <pt x="371" y="458" on="1"/>
        <pt x="438" y="449" on="0"/>
        <pt x="438" y="411" on="1"/>
        <pt x="438" y="397" on="0"/>
        <pt x="418" y="374" on="0"/>
        <pt x="401" y="374" on="1"/>
        <pt x="374" y="374" on="0"/>
        <pt x="345" y="413" on="1"/>
        <pt x="324" y="440" on="0"/>
        <pt x="289" y="462" on="1"/>
        <pt x="280" y="468" on="0"/>
        <pt x="275" y="468" on="1"/>
        <pt x="267" y="468" on="0"/>
        <pt x="267" y="453" on="1"/>
        <pt x="267" y="411" on="0"/>
        <pt x="281" y="376" on="1"/>
        <pt x="293" y="347" on="0"/>
        <pt x="293" y="333" on="1"/>
        <pt x="293" y="314" on="0"/>
        <pt x="273" y="290" on="0"/>
        <pt x="255" y="290" on="1"/>
        <pt x="237" y="290" on="0"/>
        <pt x="217" y="314" on="0"/>
        <pt x="217" y="333" on="1"/>
        <pt x="217" y="347" on="0"/>
        <pt x="229" y="376" on="1"/>
        <pt x="243" y="411" on="0"/>
        <pt x="243" y="453" on="1"/>
        <pt x="243" y="468" on="0"/>
        <pt x="235" y="468" on="1"/>
        <pt x="230" y="468" on="0"/>
        <pt x="221" y="462" on="1"/>
        <pt x="186" y="440" on="0"/>
        <pt x="165" y="413" on="1"/>
        <pt x="136" y="374" on="0"/>
        <pt x="109" y="374" on="1"/>
        <pt x="92" y="374" on="0"/>
        <pt x="72" y="397" on="0"/>
        <pt x="72" y="411" on="1"/>
        <pt x="72" y="449" on="0"/>
        <pt x="139" y="458" on="1"/>
        <pt x="176" y="463" on="0"/>
        <pt x="213" y="484" on="1"/>
        <pt x="218" y="488" on="1"/>
        <pt x="223" y="491" on="0"/>
        <pt x="223" y="495" on="1"/>
        <pt x="223" y="499" on="0"/>
        <pt x="218" y="502" on="1"/>
        <pt x="213" y="506" on="1"/>
        <pt x="176" y="527" on="0"/>
        <pt x="139" y="532" on="1"/>
        <pt x="72" y="541" on="0"/>
        <pt x="72" y="579" on="1"/>
        <pt x="72" y="593" on="0"/>
        <pt x="92" y="616" on="0"/>
        <pt x="109" y="616" on="1"/>
        <pt x="136" y="616" on="0"/>
        <pt x="165" y="577" on="1"/>
        <pt x="186" y="550" on="0"/>
        <pt x="221" y="528" on="1"/>
        <pt x="230" y="522" on="0"/>
        <pt x="235" y="522" on="1"/>
        <pt x="243" y="522" on="0"/>
        <pt x="243" y="537" on="1"/>
        <pt x="243" y="579" on="0"/>
        <pt x="229" y="614" on="1"/>
        <pt x="217" y="643" on="0"/>
        <pt x="217" y="657" on="1"/>
        <pt x="217" y="676" on="0"/>
        <pt x="237" y="700" on="0"/>
      </contour>
    </TTGlyph>
    <TTGlyph name="at" xMin="48" yMin="-18" xMax="766" yMax="730">
      <contour>
        <pt x="318" y="131" on="1"/>
        <pt x="273" y="131" on="0"/>
        <pt x="206" y="195" on="0"/>
        <pt x="206" y="255" on="1"/>
        <pt x="206" y="318" on="0"/>
        <pt x="240" y="442" on="0"/>
        <pt x="273" y="481" on="1"/>
        <pt x="355" y="579" on="0"/>
        <pt x="449" y="579" on="1"/>
        <pt x="475" y="579" on="0"/>
        <pt x="516" y="541" on="0"/>
        <pt x="520" y="524" on="1"/>
        <pt x="525" y="524" on="1"/>
        <pt x="536" y="567" on="1"/>
        <pt x="608" y="567" on="1"/>
        <pt x="524" y="257" on="1"/>
        <pt x="513" y="208" on="0"/>
        <pt x="534" y="155" on="0"/>
        <pt x="554" y="155" on="1"/>
        <pt x="601" y="155" on="0"/>
        <pt x="669" y="202" on="0"/>
        <pt x="703" y="280" on="0"/>
        <pt x="718" y="357" on="0"/>
        <pt x="718" y="397" on="1"/>
        <pt x="718" y="540" on="0"/>
        <pt x="551" y="702" on="0"/>
        <pt x="411" y="702" on="1"/>
        <pt x="280" y="702" on="0"/>
        <pt x="96" y="491" on="0"/>
        <pt x="96" y="335" on="1"/>
        <pt x="96" y="184" on="0"/>
        <pt x="268" y="10" on="0"/>
        <pt x="420" y="10" on="1"/>
        <pt x="508" y="10" on="0"/>
        <pt x="596" y="68" on="1"/>
        <pt x="612" y="45" on="1"/>
        <pt x="525" y="-18" on="0"/>
        <pt x="410" y="-18" on="1"/>
        <pt x="242" y="-18" on="0"/>
        <pt x="48" y="187" on="0"/>
        <pt x="48" y="355" on="1"/>
        <pt x="48" y="510" on="0"/>
        <pt x="265" y="730" on="0"/>
        <pt x="420" y="730" on="1"/>
        <pt x="583" y="730" on="0"/>
        <pt x="766" y="530" on="0"/>
        <pt x="766" y="377" on="1"/>
        <pt x="766" y="338" on="0"/>
        <pt x="738" y="255" on="0"/>
        <pt x="685" y="179" on="0"/>
        <pt x="594" y="131" on="0"/>
        <pt x="538" y="131" on="1"/>
        <pt x="500" y="131" on="0"/>
        <pt x="447" y="171" on="0"/>
        <pt x="443" y="206" on="1"/>
        <pt x="438" y="207" on="1"/>
        <pt x="421" y="181" on="0"/>
        <pt x="357" y="131" on="0"/>
      </contour>
      <contour>
        <pt x="322" y="155" on="1"/>
        <pt x="373" y="155" on="0"/>
        <pt x="454" y="261" on="0"/>
        <pt x="474" y="335" on="1"/>
        <pt x="497" y="420" on="1"/>
        <pt x="508" y="462" on="0"/>
        <pt x="480" y="555" on="0"/>
        <pt x="449" y="555" on="1"/>
        <pt x="409" y="555" on="0"/>
        <pt x="346" y="500" on="0"/>
        <pt x="316" y="435" on="1"/>
        <pt x="298" y="396" on="0"/>
        <pt x="274" y="277" on="0"/>
        <pt x="274" y="223" on="1"/>
        <pt x="274" y="192" on="0"/>
        <pt x="304" y="155" on="0"/>
      </contour>
    </TTGlyph>
    <TTGlyph name="atilde" xMin="46" yMin="-12" xMax="476" yMax="650">
      <component glyphName="tilde" x="8" y="0" flags="0x1004"/>
      <component glyphName="a" x="0" y="0" flags="0x1204"/>
    </TTGlyph>
    <TTGlyph name="b" xMin="22" yMin="-12" xMax="464" yMax="712">
      <contour>
        <pt x="290" y="12" on="1"/>
        <pt x="338" y="12" on="0"/>
        <pt x="376" y="125" on="0"/>
        <pt x="376" y="228" on="1"/>
        <pt x="376" y="331" on="0"/>
        <pt x="338" y="444" on="0"/>
        <pt x="290" y="444" on="1"/>
        <pt x="243" y="444" on="0"/>
        <pt x="168" y="331" on="0"/>
        <pt x="168" y="262" on="1"/>
        <pt x="168" y="169" on="1"/>
        <pt x="168" y="108" on="0"/>
        <pt x="235" y="12" on="0"/>
      </contour>
      <contour>
        <pt x="96" y="0" on="1"/>
        <pt x="96" y="666" on="1"/>
        <pt x="96" y="688" on="0"/>
        <pt x="74" y="688" on="1"/>
        <pt x="22" y="688" on="1"/>
        <pt x="22" y="712" on="1"/>
        <pt x="168" y="712" on="1"/>
        <pt x="168" y="392" on="1"/>
        <pt x="174" y="390" on="1"/>
        <pt x="194" y="423" on="0"/>
        <pt x="259" y="468" on="0"/>
        <pt x="292" y="468" on="1"/>
        <pt x="371" y="468" on="0"/>
        <pt x="464" y="330" on="0"/>
        <pt x="464" y="228" on="1"/>
        <pt x="464" y="126" on="0"/>
        <pt x="367" y="-12" on="0"/>
        <pt x="288" y="-12" on="1"/>
        <pt x="201" y="-12" on="0"/>
        <pt x="146" y="84" on="1"/>
        <pt x="142" y="82" on="1"/>
        <pt x="114" y="0" on="1"/>
      </contour>
    </TTGlyph>
    <TTGlyph name="backslash" xMin="56" yMin="-198" xMax="394" yMax="730">
      <contour>
        <pt x="394" y="-198" on="1"/>
        <pt x="354" y="-198" on="1"/>
        <pt x="56" y="730" on="1"/>
        <pt x="96" y="730" on="1"/>
      </contour>
    </TTGlyph>
    <TTGlyph name="bar" xMin="120" yMin="-198" xMax="164" yMax="730">
      <contour>
        <pt x="120" y="730" on="1"/>
        <pt x="164" y="730" on="1"/>
        <pt x="164" y="-198" on="1"/>
        <pt x="120" y="-198" on="1"/>
      </contour>
    </TTGlyph>
    <TTGlyph name="braceleft" xMin="104" yMin="-196" xMax="336" yMax="730">
      <contour>
        <pt x="104" y="276" on="1"/>
        <pt x="160" y="276" on="0"/>
        <pt x="210" y="304" on="0"/>
        <pt x="210" y="354" on="1"/>
        <pt x="210" y="385" on="0"/>
        <pt x="174" y="525" on="0"/>
        <pt x="174" y="562" on="1"/>
        <pt x="174" y="681" on="0"/>
        <pt x="324" y="730" on="1"/>
        <pt x="336" y="706" on="1"/>
        <pt x="311" y="697" on="0"/>
        <pt x="282" y="684" on="0"/>
        <pt x="249" y="662" on="0"/>
        <pt x="234" y="632" on="0"/>
        <pt x="234" y="612" on="1"/>
        <pt x="234" y="576" on="0"/>
        <pt x="270" y="442" on="0"/>
        <pt x="270" y="406" on="1"/>
        <pt x="270" y="298" on="0"/>
        <pt x="176" y="268" on="1"/>
        <pt x="176" y="266" on="1"/>
        <pt x="270" y="236" on="0"/>
        <pt x="270" y="122" on="1"/>
        <pt x="270" y="86" on="0"/>
        <pt x="234" y="-42" on="0"/>
        <pt x="234" y="-78" on="1"/>
        <pt x="234" y="-116" on="0"/>
        <pt x="285" y="-154" on="0"/>
        <pt x="336" y="-172" on="1"/>
        <pt x="324" y="-196" on="1"/>
        <pt x="174" y="-147" on="0"/>
        <pt x="174" y="-28" on="1"/>
        <pt x="174" y="9" on="0"/>
        <pt x="210" y="143" on="0"/>
        <pt x="210" y="174" on="1"/>
        <pt x="210" y="224" on="0"/>
        <pt x="158" y="258" on="0"/>
        <pt x="104" y="258" on="1"/>
      </contour>
    </TTGlyph>
    <TTGlyph name="braceright" xMin="84" yMin="-196" xMax="316" yMax="730">
      <contour>
        <pt x="316" y="258" on="1"/>
        <pt x="260" y="258" on="0"/>
        <pt x="210" y="230" on="0"/>
        <pt x="210" y="180" on="1"/>
        <pt x="210" y="149" on="0"/>
        <pt x="246" y="9" on="0"/>
        <pt x="246" y="-28" on="1"/>
        <pt x="246" y="-147" on="0"/>
        <pt x="96" y="-196" on="1"/>
        <pt x="84" y="-172" on="1"/>
        <pt x="109" y="-163" on="0"/>
        <pt x="138" y="-150" on="0"/>
        <pt x="171" y="-128" on="0"/>
        <pt x="186" y="-98" on="0"/>
        <pt x="186" y="-78" on="1"/>
        <pt x="186" y="-42" on="0"/>
        <pt x="150" y="92" on="0"/>
        <pt x="150" y="128" on="1"/>
        <pt x="150" y="236" on="0"/>
        <pt x="244" y="266" on="1"/>
        <pt x="244" y="268" on="1"/>
        <pt x="150" y="298" on="0"/>
        <pt x="150" y="406" on="1"/>
        <pt x="150" y="442" on="0"/>
        <pt x="186" y="576" on="0"/>
        <pt x="186" y="612" on="1"/>
        <pt x="186" y="650" on="0"/>
        <pt x="135" y="688" on="0"/>
        <pt x="84" y="706" on="1"/>
        <pt x="96" y="730" on="1"/>
        <pt x="246" y="681" on="0"/>
        <pt x="246" y="562" on="1"/>
        <pt x="246" y="525" on="0"/>
        <pt x="210" y="385" on="0"/>
        <pt x="210" y="354" on="1"/>
        <pt x="210" y="304" on="0"/>
        <pt x="260" y="276" on="0"/>
        <pt x="316" y="276" on="1"/>
      </contour>
    </TTGlyph>
    <TTGlyph name="bracketleft" xMin="120" yMin="-198" xMax="310" yMax="730">
      <contour>
        <pt x="120" y="-186" on="1"/>
        <pt x="120" y="718" on="1"/>
        <pt x="306" y="730" on="1"/>
        <pt x="310" y="704" on="1"/>
        <pt x="214" y="688" on="1"/>
        <pt x="192" y="684" on="0"/>
        <pt x="192" y="656" on="1"/>
        <pt x="192" y="-124" on="1"/>
        <pt x="192" y="-152" on="0"/>
        <pt x="214" y="-156" on="1"/>
        <pt x="310" y="-172" on="1"/>
        <pt x="306" y="-198" on="1"/>
      </contour>
    </TTGlyph>
    <TTGlyph name="bracketright" xMin="70" yMin="-198" xMax="260" yMax="730">
      <contour>
        <pt x="260" y="-186" on="1"/>
        <pt x="74" y="-198" on="1"/>
        <pt x="70" y="-172" on="1"/>
        <pt x="166" y="-156" on="1"/>
        <pt x="188" y="-152" on="0"/>
        <pt x="188" y="-124" on="1"/>
        <pt x="188" y="656" on="1"/>
        <pt x="188" y="684" on="0"/>
        <pt x="166" y="688" on="1"/>
        <pt x="70" y="704" on="1"/>
        <pt x="74" y="730" on="1"/>
        <pt x="260" y="718" on="1"/>
      </contour>
    </TTGlyph>
    <TTGlyph name="brokenbar" xMin="120" yMin="-168" xMax="164" yMax="730">
      <contour>
        <pt x="120" y="-168" on="1"/>
        <pt x="120" y="192" on="1"/>
        <pt x="164" y="192" on="1"/>
        <pt x="164" y="-168" on="1"/>
      </contour>
      <contour>
        <pt x="120" y="370" on="1"/>
        <pt x="120" y="730" on="1"/>
        <pt x="164" y="730" on="1"/>
        <pt x="164" y="370" on="1"/>
      </contour>
    </TTGlyph>
    <TTGlyph name="bullet" xMin="136" yMin="240" xMax="364" yMax="468">
      <contour>
        <pt x="250" y="240" on="1"/>
        <pt x="202" y="240" on="0"/>
        <pt x="136" y="306" on="0"/>
        <pt x="136" y="354" on="1"/>
        <pt x="136" y="402" on="0"/>
        <pt x="202" y="468" on="0"/>
        <pt x="250" y="468" on="1"/>
        <pt x="298" y="468" on="0"/>
        <pt x="364" y="402" on="0"/>
        <pt x="364" y="354" on="1"/>
        <pt x="364" y="306" on="0"/>
        <pt x="298" y="240" on="0"/>
      </contour>
    </TTGlyph>
    <TTGlyph name="c" xMin="48" yMin="-12" xMax="402" yMax="468">
      <contour>
        <pt x="244" y="-12" on="1"/>
        <pt x="157" y="-12" on="0"/>
        <pt x="48" y="127" on="0"/>
        <pt x="48" y="228" on="1"/>
        <pt x="48" y="329" on="0"/>
        <pt x="158" y="468" on="0"/>
        <pt x="244" y="468" on="1"/>
        <pt x="312" y="468" on="0"/>
        <pt x="394" y="387" on="0"/>
        <pt x="394" y="337" on="1"/>
        <pt x="394" y="306" on="0"/>
        <pt x="362" y="271" on="0"/>
        <pt x="339" y="271" on="1"/>
        <pt x="319" y="271" on="0"/>
        <pt x="292" y="297" on="0"/>
        <pt x="292" y="315" on="1"/>
        <pt x="292" y="350" on="0"/>
        <pt x="326" y="361" on="1"/>
        <pt x="342" y="366" on="0"/>
        <pt x="342" y="379" on="1"/>
        <pt x="342" y="399" on="0"/>
        <pt x="292" y="444" on="0"/>
        <pt x="244" y="444" on="1"/>
        <pt x="181" y="444" on="0"/>
        <pt x="136" y="336" on="0"/>
        <pt x="136" y="228" on="1"/>
        <pt x="136" y="120" on="0"/>
        <pt x="180" y="12" on="0"/>
        <pt x="244" y="12" on="1"/>
        <pt x="305" y="12" on="0"/>
        <pt x="371" y="98" on="0"/>
        <pt x="378" y="156" on="1"/>
        <pt x="402" y="156" on="1"/>
        <pt x="398" y="91" on="0"/>
        <pt x="316" y="-12" on="0"/>
      </contour>
    </TTGlyph>
    <TTGlyph name="ccedilla" xMin="48" yMin="-212" xMax="402" yMax="468">
      <contour>
        <pt x="48" y="228" on="1"/>
        <pt x="48" y="329" on="0"/>
        <pt x="158" y="468" on="0"/>
        <pt x="244" y="468" on="1"/>
        <pt x="312" y="468" on="0"/>
        <pt x="394" y="387" on="0"/>
        <pt x="394" y="337" on="1"/>
        <pt x="394" y="306" on="0"/>
        <pt x="362" y="271" on="0"/>
        <pt x="339" y="271" on="1"/>
        <pt x="319" y="271" on="0"/>
        <pt x="292" y="297" on="0"/>
        <pt x="292" y="315" on="1"/>
        <pt x="292" y="350" on="0"/>
        <pt x="326" y="361" on="1"/>
        <pt x="342" y="366" on="0"/>
        <pt x="342" y="379" on="1"/>
        <pt x="342" y="399" on="0"/>
        <pt x="292" y="444" on="0"/>
        <pt x="244" y="444" on="1"/>
        <pt x="181" y="444" on="0"/>
        <pt x="136" y="336" on="0"/>
        <pt x="136" y="228" on="1"/>
        <pt x="136" y="120" on="0"/>
        <pt x="180" y="12" on="0"/>
        <pt x="244" y="12" on="1"/>
        <pt x="305" y="12" on="0"/>
        <pt x="371" y="98" on="0"/>
        <pt x="378" y="156" on="1"/>
        <pt x="402" y="156" on="1"/>
        <pt x="398" y="93" on="0"/>
        <pt x="316" y="-12" on="0"/>
        <pt x="250" y="-12" on="1"/>
        <pt x="238" y="-12" on="1"/>
        <pt x="225" y="-53" on="1"/>
        <pt x="249" y="-58" on="1"/>
        <pt x="290" y="-67" on="0"/>
        <pt x="336" y="-108" on="0"/>
        <pt x="336" y="-142" on="1"/>
        <pt x="336" y="-172" on="0"/>
        <pt x="278" y="-212" on="0"/>
        <pt x="222" y="-212" on="1"/>
        <pt x="199" y="-212" on="0"/>
        <pt x="150" y="-190" on="0"/>
        <pt x="136" y="-176" on="1"/>
        <pt x="148" y="-160" on="1"/>
        <pt x="159" y="-169" on="0"/>
        <pt x="190" y="-184" on="0"/>
        <pt x="210" y="-184" on="1"/>
        <pt x="237" y="-184" on="0"/>
        <pt x="272" y="-159" on="0"/>
        <pt x="272" y="-133" on="1"/>
        <pt x="272" y="-106" on="0"/>
        <pt x="262" y="-94" on="1"/>
        <pt x="251" y="-81" on="0"/>
        <pt x="228" y="-76" on="1"/>
        <pt x="194" y="-69" on="1"/>
        <pt x="214" y="-9" on="1"/>
        <pt x="138" y="3" on="0"/>
        <pt x="48" y="136" on="0"/>
      </contour>
    </TTGlyph>
    <TTGlyph name="cedilla" xMin="114" yMin="-212" xMax="314" yMax="0">
      <contour>
        <pt x="114" y="-176" on="1"/>
        <pt x="114" y="-176" on="0"/>
        <pt x="126" y="-160" on="1"/>
        <pt x="137" y="-169" on="0"/>
        <pt x="168" y="-184" on="0"/>
        <pt x="188" y="-184" on="1"/>
        <pt x="215" y="-184" on="0"/>
        <pt x="250" y="-159" on="0"/>
        <pt x="250" y="-133" on="1"/>
        <pt x="250" y="-106" on="0"/>
        <pt x="240" y="-94" on="1"/>
        <pt x="229" y="-81" on="0"/>
        <pt x="206" y="-76" on="1"/>
        <pt x="172" y="-69" on="1"/>
        <pt x="196" y="0" on="1"/>
        <pt x="221" y="0" on="1"/>
        <pt x="203" y="-53" on="1"/>
        <pt x="227" y="-58" on="1"/>
        <pt x="268" y="-67" on="0"/>
        <pt x="314" y="-108" on="0"/>
        <pt x="314" y="-142" on="1"/>
        <pt x="314" y="-172" on="0"/>
        <pt x="256" y="-212" on="0"/>
        <pt x="200" y="-212" on="1"/>
        <pt x="177" y="-212" on="0"/>
        <pt x="128" y="-190" on="0"/>
      </contour>
    </TTGlyph>
    <TTGlyph name="cent" xMin="112" yMin="-120" xMax="466" yMax="576">
      <contour>
        <pt x="112" y="228" on="1"/>
        <pt x="112" y="322" on="0"/>
        <pt x="213" y="459" on="0"/>
        <pt x="290" y="467" on="1"/>
        <pt x="290" y="576" on="1"/>
        <pt x="322" y="576" on="1"/>
        <pt x="322" y="467" on="1"/>
        <pt x="384" y="463" on="0"/>
        <pt x="458" y="384" on="0"/>
        <pt x="458" y="337" on="1"/>
        <pt x="458" y="306" on="0"/>
        <pt x="426" y="271" on="0"/>
        <pt x="403" y="271" on="1"/>
        <pt x="383" y="271" on="0"/>
        <pt x="356" y="297" on="0"/>
        <pt x="356" y="315" on="1"/>
        <pt x="356" y="350" on="0"/>
        <pt x="390" y="361" on="1"/>
        <pt x="406" y="366" on="0"/>
        <pt x="406" y="379" on="1"/>
        <pt x="406" y="398" on="0"/>
        <pt x="363" y="440" on="0"/>
        <pt x="322" y="443" on="1"/>
        <pt x="322" y="12" on="1"/>
        <pt x="378" y="15" on="0"/>
        <pt x="435" y="99" on="0"/>
        <pt x="442" y="156" on="1"/>
        <pt x="466" y="156" on="1"/>
        <pt x="463" y="116" on="0"/>
        <pt x="435" y="45" on="0"/>
        <pt x="369" y="-10" on="0"/>
        <pt x="322" y="-12" on="1"/>
        <pt x="322" y="-120" on="1"/>
        <pt x="290" y="-120" on="1"/>
        <pt x="290" y="-11" on="1"/>
        <pt x="206" y="-2" on="0"/>
        <pt x="112" y="132" on="0"/>
      </contour>
      <contour>
        <pt x="200" y="228" on="1"/>
        <pt x="200" y="152" on="0"/>
        <pt x="241" y="29" on="0"/>
        <pt x="290" y="15" on="1"/>
        <pt x="290" y="442" on="1"/>
        <pt x="243" y="430" on="0"/>
        <pt x="200" y="304" on="0"/>
      </contour>
    </TTGlyph>
    <TTGlyph name="circle" xMin="48" yMin="-18" xMax="772" yMax="730">
      <contour>
        <pt x="76" y="356" on="1"/>
        <pt x="76" y="214" on="0"/>
        <pt x="270" y="10" on="0"/>
        <pt x="410" y="10" on="1"/>
        <pt x="550" y="10" on="0"/>
        <pt x="744" y="214" on="0"/>
        <pt x="744" y="356" on="1"/>
        <pt x="744" y="498" on="0"/>
        <pt x="550" y="702" on="0"/>
        <pt x="410" y="702" on="1"/>
        <pt x="270" y="702" on="0"/>
        <pt x="76" y="498" on="0"/>
      </contour>
      <contour>
        <pt x="48" y="356" on="1"/>
        <pt x="48" y="512" on="0"/>
        <pt x="257" y="730" on="0"/>
        <pt x="410" y="730" on="1"/>
        <pt x="563" y="730" on="0"/>
        <pt x="772" y="512" on="0"/>
        <pt x="772" y="356" on="1"/>
        <pt x="772" y="200" on="0"/>
        <pt x="563" y="-18" on="0"/>
        <pt x="410" y="-18" on="1"/>
        <pt x="257" y="-18" on="0"/>
        <pt x="48" y="200" on="0"/>
      </contour>
    </TTGlyph>
    <TTGlyph name="circumflex" xMin="89" yMin="508" xMax="351" yMax="672">
      <contour>
        <pt x="240" y="672" on="1"/>
        <pt x="276" y="569" on="0"/>
        <pt x="351" y="521" on="1"/>
        <pt x="342" y="508" on="1"/>
        <pt x="274" y="543" on="0"/>
        <pt x="220" y="600" on="1"/>
        <pt x="166" y="543" on="0"/>
        <pt x="98" y="508" on="1"/>
        <pt x="89" y="521" on="1"/>
        <pt x="164" y="569" on="0"/>
        <pt x="200" y="672" on="1"/>
      </contour>
    </TTGlyph>
    <TTGlyph name="colon" xMin="78" yMin="-12" xMax="202" yMax="468">
      <component glyphName="period" x="0" y="0" flags="0x1204"/>
      <component glyphName="period" x="0" y="356" flags="0x1004"/>
    </TTGlyph>
    <TTGlyph name="comma" xMin="72" yMin="-168" xMax="210" yMax="140">
      <contour>
        <pt x="72" y="82" on="1"/>
        <pt x="72" y="109" on="0"/>
        <pt x="108" y="140" on="0"/>
        <pt x="130" y="140" on="1"/>
        <pt x="169" y="140" on="0"/>
        <pt x="191" y="108" on="1"/>
        <pt x="210" y="82" on="0"/>
        <pt x="210" y="37" on="1"/>
        <pt x="210" y="-25" on="0"/>
        <pt x="148" y="-136" on="0"/>
        <pt x="104" y="-168" on="1"/>
        <pt x="90" y="-152" on="1"/>
        <pt x="127" y="-124" on="0"/>
        <pt x="174" y="-44" on="0"/>
        <pt x="174" y="-4" on="1"/>
        <pt x="174" y="16" on="0"/>
        <pt x="156" y="26" on="1"/>
        <pt x="150" y="30" on="0"/>
        <pt x="122" y="30" on="1"/>
        <pt x="100" y="30" on="0"/>
        <pt x="72" y="61" on="0"/>
      </contour>
    </TTGlyph>
    <TTGlyph name="copyright" xMin="48" yMin="-18" xMax="772" yMax="730">
      <contour>
        <pt x="76" y="356" on="1"/>
        <pt x="76" y="214" on="0"/>
        <pt x="270" y="10" on="0"/>
        <pt x="410" y="10" on="1"/>
        <pt x="550" y="10" on="0"/>
        <pt x="744" y="214" on="0"/>
        <pt x="744" y="356" on="1"/>
        <pt x="744" y="498" on="0"/>
        <pt x="550" y="702" on="0"/>
        <pt x="410" y="702" on="1"/>
        <pt x="270" y="702" on="0"/>
        <pt x="76" y="498" on="0"/>
      </contour>
      <contour>
        <pt x="48" y="356" on="1"/>
        <pt x="48" y="512" on="0"/>
        <pt x="257" y="730" on="0"/>
        <pt x="410" y="730" on="1"/>
        <pt x="563" y="730" on="0"/>
        <pt x="772" y="512" on="0"/>
        <pt x="772" y="356" on="1"/>
        <pt x="772" y="200" on="0"/>
        <pt x="563" y="-18" on="0"/>
        <pt x="410" y="-18" on="1"/>
        <pt x="257" y="-18" on="0"/>
        <pt x="48" y="200" on="0"/>
      </contour>
      <contour>
        <pt x="422" y="110" on="1"/>
        <pt x="327" y="110" on="0"/>
        <pt x="220" y="248" on="0"/>
        <pt x="220" y="338" on="1"/>
        <pt x="220" y="450" on="0"/>
        <pt x="329" y="590" on="0"/>
        <pt x="424" y="590" on="1"/>
        <pt x="468" y="590" on="0"/>
        <pt x="506" y="558" on="1"/>
        <pt x="516" y="549" on="0"/>
        <pt x="526" y="549" on="1"/>
        <pt x="535" y="549" on="0"/>
        <pt x="548" y="572" on="0"/>
        <pt x="548" y="584" on="1"/>
        <pt x="566" y="584" on="1"/>
        <pt x="566" y="420" on="1"/>
        <pt x="548" y="420" on="1"/>
        <pt x="542" y="477" on="0"/>
        <pt x="462" y="566" on="0"/>
        <pt x="424" y="566" on="1"/>
        <pt x="308" y="566" on="0"/>
        <pt x="308" y="338" on="1"/>
        <pt x="308" y="306" on="0"/>
        <pt x="319" y="240" on="0"/>
        <pt x="343" y="175" on="0"/>
        <pt x="390" y="134" on="0"/>
        <pt x="422" y="134" on="1"/>
        <pt x="483" y="134" on="0"/>
        <pt x="543" y="218" on="0"/>
        <pt x="550" y="278" on="1"/>
        <pt x="574" y="278" on="1"/>
        <pt x="570" y="212" on="0"/>
        <pt x="493" y="110" on="0"/>
      </contour>
    </TTGlyph>
    <TTGlyph name="currency" xMin="52" yMin="105" xMax="528" yMax="581">
      <contour>
        <pt x="290" y="162" on="1"/>
        <pt x="368" y="162" on="0"/>
        <pt x="470" y="264" on="0"/>
        <pt x="470" y="342" on="1"/>
        <pt x="470" y="420" on="0"/>
        <pt x="368" y="524" on="0"/>
        <pt x="290" y="524" on="1"/>
        <pt x="212" y="524" on="0"/>
        <pt x="110" y="420" on="0"/>
        <pt x="110" y="342" on="1"/>
        <pt x="110" y="264" on="0"/>
        <pt x="212" y="162" on="0"/>
      </contour>
      <contour>
        <pt x="290" y="122" on="1"/>
        <pt x="211" y="122" on="0"/>
        <pt x="150" y="172" on="1"/>
        <pt x="83" y="105" on="1"/>
        <pt x="52" y="136" on="1"/>
        <pt x="119" y="203" on="1"/>
        <pt x="70" y="263" on="0"/>
        <pt x="70" y="342" on="1"/>
        <pt x="70" y="421" on="0"/>
        <pt x="120" y="482" on="1"/>
        <pt x="52" y="550" on="1"/>
        <pt x="83" y="581" on="1"/>
        <pt x="150" y="514" on="1"/>
        <pt x="211" y="564" on="0"/>
        <pt x="290" y="564" on="1"/>
        <pt x="369" y="564" on="0"/>
        <pt x="430" y="514" on="1"/>
        <pt x="497" y="581" on="1"/>
        <pt x="528" y="550" on="1"/>
        <pt x="460" y="482" on="1"/>
        <pt x="510" y="421" on="0"/>
        <pt x="510" y="342" on="1"/>
        <pt x="510" y="263" on="0"/>
        <pt x="461" y="203" on="1"/>
        <pt x="528" y="136" on="1"/>
        <pt x="497" y="105" on="1"/>
        <pt x="430" y="172" on="1"/>
        <pt x="369" y="122" on="0"/>
      </contour>
    </TTGlyph>
    <TTGlyph name="d" xMin="48" yMin="-12" xMax="490" yMax="712">
      <contour>
        <pt x="222" y="12" on="1"/>
        <pt x="277" y="12" on="0"/>
        <pt x="344" y="108" on="0"/>
        <pt x="344" y="169" on="1"/>
        <pt x="344" y="262" on="1"/>
        <pt x="344" y="331" on="0"/>
        <pt x="269" y="444" on="0"/>
        <pt x="222" y="444" on="1"/>
        <pt x="174" y="444" on="0"/>
        <pt x="136" y="331" on="0"/>
        <pt x="136" y="228" on="1"/>
        <pt x="136" y="125" on="0"/>
        <pt x="174" y="12" on="0"/>
      </contour>
      <contour>
        <pt x="344" y="0" on="1"/>
        <pt x="344" y="42" on="1"/>
        <pt x="339" y="45" on="1"/>
        <pt x="290" y="-12" on="0"/>
        <pt x="224" y="-12" on="1"/>
        <pt x="145" y="-12" on="0"/>
        <pt x="48" y="126" on="0"/>
        <pt x="48" y="228" on="1"/>
        <pt x="48" y="330" on="0"/>
        <pt x="141" y="468" on="0"/>
        <pt x="220" y="468" on="1"/>
        <pt x="253" y="468" on="0"/>
        <pt x="318" y="423" on="0"/>
        <pt x="338" y="390" on="1"/>
        <pt x="344" y="392" on="1"/>
        <pt x="344" y="666" on="1"/>
        <pt x="344" y="688" on="0"/>
        <pt x="322" y="688" on="1"/>
        <pt x="250" y="688" on="1"/>
        <pt x="250" y="712" on="1"/>
        <pt x="416" y="712" on="1"/>
        <pt x="416" y="46" on="1"/>
        <pt x="416" y="24" on="0"/>
        <pt x="438" y="24" on="1"/>
        <pt x="490" y="24" on="1"/>
        <pt x="490" y="0" on="1"/>
      </contour>
    </TTGlyph>
    <TTGlyph name="degree" xMin="154" yMin="428" xMax="426" yMax="700">
      <contour>
        <pt x="154" y="564" on="1"/>
        <pt x="154" y="621" on="0"/>
        <pt x="233" y="700" on="0"/>
        <pt x="290" y="700" on="1"/>
        <pt x="347" y="700" on="0"/>
        <pt x="426" y="621" on="0"/>
        <pt x="426" y="564" on="1"/>
        <pt x="426" y="507" on="0"/>
        <pt x="347" y="428" on="0"/>
        <pt x="290" y="428" on="1"/>
        <pt x="233" y="428" on="0"/>
        <pt x="154" y="507" on="0"/>
      </contour>
      <contour>
        <pt x="186" y="564" on="1"/>
        <pt x="186" y="519" on="0"/>
        <pt x="245" y="460" on="0"/>
        <pt x="290" y="460" on="1"/>
        <pt x="335" y="460" on="0"/>
        <pt x="394" y="519" on="0"/>
        <pt x="394" y="564" on="1"/>
        <pt x="394" y="609" on="0"/>
        <pt x="335" y="668" on="0"/>
        <pt x="290" y="668" on="1"/>
        <pt x="245" y="668" on="0"/>
        <pt x="186" y="609" on="0"/>
      </contour>
    </TTGlyph>
    <TTGlyph name="dieresis" xMin="74" yMin="544" xMax="366" yMax="648">
      <contour>
        <pt x="314" y="648" on="1"/>
        <pt x="336" y="648" on="0"/>
        <pt x="366" y="618" on="0"/>
        <pt x="366" y="596" on="1"/>
        <pt x="366" y="574" on="0"/>
        <pt x="336" y="544" on="0"/>
        <pt x="314" y="544" on="1"/>
        <pt x="292" y="544" on="0"/>
        <pt x="262" y="574" on="0"/>
        <pt x="262" y="596" on="1"/>
        <pt x="262" y="618" on="0"/>
        <pt x="292" y="648" on="0"/>
      </contour>
      <contour>
        <pt x="126" y="648" on="1"/>
        <pt x="148" y="648" on="0"/>
        <pt x="178" y="618" on="0"/>
        <pt x="178" y="596" on="1"/>
        <pt x="178" y="574" on="0"/>
        <pt x="148" y="544" on="0"/>
        <pt x="126" y="544" on="1"/>
        <pt x="104" y="544" on="0"/>
        <pt x="74" y="574" on="0"/>
        <pt x="74" y="596" on="1"/>
        <pt x="74" y="618" on="0"/>
        <pt x="104" y="648" on="0"/>
      </contour>
    </TTGlyph>
    <TTGlyph name="divide" xMin="48" yMin="-56" xMax="892" yMax="580">
      <component glyphName="minus" x="0" y="0" flags="0x1204"/>
      <component glyphName="period" x="330" y="-44" flags="0x1004"/>
      <component glyphName="period" x="330" y="468" flags="0x1004"/>
    </TTGlyph>
    <TTGlyph name="dollar" xMin="62" yMin="-84" xMax="502" yMax="758">
      <contour>
        <pt x="292" y="-16" on="1"/>
        <pt x="270" y="-16" on="0"/>
        <pt x="260" y="-15" on="1"/>
        <pt x="260" y="-84" on="1"/>
        <pt x="228" y="-84" on="1"/>
        <pt x="228" y="-11" on="1"/>
        <pt x="150" y="3" on="0"/>
        <pt x="62" y="94" on="0"/>
        <pt x="62" y="165" on="1"/>
        <pt x="62" y="200" on="0"/>
        <pt x="86" y="224" on="1"/>
        <pt x="104" y="242" on="0"/>
        <pt x="130" y="242" on="1"/>
        <pt x="146" y="242" on="0"/>
        <pt x="160" y="230" on="1"/>
        <pt x="172" y="218" on="0"/>
        <pt x="172" y="198" on="1"/>
        <pt x="172" y="181" on="0"/>
        <pt x="158" y="156" on="0"/>
        <pt x="136" y="132" on="1"/>
        <pt x="124" y="120" on="0"/>
        <pt x="124" y="99" on="1"/>
        <pt x="124" y="73" on="0"/>
        <pt x="178" y="30" on="0"/>
        <pt x="228" y="21" on="1"/>
        <pt x="228" y="333" on="1"/>
        <pt x="222" y="335" on="1"/>
        <pt x="86" y="389" on="0"/>
        <pt x="86" y="518" on="1"/>
        <pt x="86" y="581" on="0"/>
        <pt x="159" y="677" on="0"/>
        <pt x="228" y="693" on="1"/>
        <pt x="228" y="758" on="1"/>
        <pt x="260" y="758" on="1"/>
        <pt x="260" y="698" on="1"/>
        <pt x="280" y="700" on="0"/>
        <pt x="292" y="700" on="1"/>
        <pt x="308" y="700" on="0"/>
        <pt x="316" y="699" on="1"/>
        <pt x="316" y="758" on="1"/>
        <pt x="348" y="758" on="1"/>
        <pt x="348" y="695" on="1"/>
        <pt x="421" y="682" on="0"/>
        <pt x="502" y="592" on="0"/>
        <pt x="502" y="536" on="1"/>
        <pt x="502" y="491" on="0"/>
        <pt x="488" y="468" on="1"/>
        <pt x="472" y="442" on="0"/>
        <pt x="441" y="442" on="1"/>
        <pt x="422" y="442" on="0"/>
        <pt x="408" y="456" on="1"/>
        <pt x="399" y="467" on="0"/>
        <pt x="399" y="481" on="1"/>
        <pt x="399" y="500" on="0"/>
        <pt x="411" y="518" on="1"/>
        <pt x="417" y="526" on="0"/>
        <pt x="438" y="545" on="0"/>
        <pt x="441" y="550" on="1"/>
        <pt x="449" y="562" on="0"/>
        <pt x="449" y="581" on="1"/>
        <pt x="449" y="604" on="0"/>
        <pt x="398" y="653" on="0"/>
        <pt x="348" y="663" on="1"/>
        <pt x="348" y="379" on="1"/>
        <pt x="368" y="371" on="1"/>
        <pt x="431" y="346" on="0"/>
        <pt x="500" y="247" on="0"/>
        <pt x="500" y="187" on="1"/>
        <pt x="500" y="115" on="0"/>
        <pt x="421" y="6" on="0"/>
        <pt x="348" y="-10" on="1"/>
        <pt x="348" y="-84" on="1"/>
        <pt x="316" y="-84" on="1"/>
        <pt x="316" y="-15" on="1"/>
        <pt x="308" y="-16" on="0"/>
      </contour>
      <contour>
        <pt x="260" y="320" on="1"/>
        <pt x="260" y="17" on="1"/>
        <pt x="270" y="16" on="0"/>
        <pt x="292" y="16" on="1"/>
        <pt x="308" y="16" on="0"/>
        <pt x="316" y="17" on="1"/>
        <pt x="316" y="298" on="1"/>
      </contour>
      <contour>
        <pt x="260" y="414" on="1"/>
        <pt x="316" y="392" on="1"/>
        <pt x="316" y="667" on="1"/>
        <pt x="308" y="668" on="0"/>
        <pt x="292" y="668" on="1"/>
        <pt x="280" y="668" on="0"/>
        <pt x="260" y="666" on="1"/>
      </contour>
      <contour>
        <pt x="134" y="540" on="1"/>
        <pt x="134" y="497" on="0"/>
        <pt x="171" y="449" on="0"/>
        <pt x="222" y="429" on="1"/>
        <pt x="228" y="427" on="1"/>
        <pt x="228" y="660" on="1"/>
        <pt x="180" y="646" on="0"/>
        <pt x="134" y="579" on="0"/>
      </contour>
      <contour>
        <pt x="456" y="155" on="1"/>
        <pt x="456" y="207" on="0"/>
        <pt x="414" y="258" on="0"/>
        <pt x="368" y="277" on="1"/>
        <pt x="348" y="285" on="1"/>
        <pt x="348" y="23" on="1"/>
        <pt x="400" y="37" on="0"/>
        <pt x="456" y="112" on="0"/>
      </contour>
    </TTGlyph>
    <TTGlyph name="dotaccent" xMin="168" yMin="544" xMax="272" yMax="648">
      <contour>
        <pt x="220" y="544" on="1"/>
        <pt x="198" y="544" on="0"/>
        <pt x="168" y="574" on="0"/>
        <pt x="168" y="596" on="1"/>
        <pt x="168" y="618" on="0"/>
        <pt x="198" y="648" on="0"/>
        <pt x="220" y="648" on="1"/>
        <pt x="242" y="648" on="0"/>
        <pt x="272" y="618" on="0"/>
        <pt x="272" y="596" on="1"/>
        <pt x="272" y="574" on="0"/>
        <pt x="242" y="544" on="0"/>
      </contour>
    </TTGlyph>
    <TTGlyph name="dotlessi" xMin="38" yMin="0" xMax="238" yMax="456">
      <contour>
        <pt x="38" y="0" on="1"/>
        <pt x="38" y="24" on="1"/>
        <pt x="80" y="24" on="1"/>
        <pt x="102" y="24" on="0"/>
        <pt x="102" y="46" on="1"/>
        <pt x="102" y="410" on="1"/>
        <pt x="102" y="432" on="0"/>
        <pt x="80" y="432" on="1"/>
        <pt x="38" y="432" on="1"/>
        <pt x="38" y="456" on="1"/>
        <pt x="174" y="456" on="1"/>
        <pt x="174" y="46" on="1"/>
        <pt x="174" y="24" on="0"/>
        <pt x="196" y="24" on="1"/>
        <pt x="238" y="24" on="1"/>
        <pt x="238" y="0" on="1"/>
      </contour>
    </TTGlyph>
    <TTGlyph name="e" xMin="48" yMin="-12" xMax="412" yMax="468">
      <contour>
        <pt x="136" y="252" on="1"/>
        <pt x="326" y="252" on="1"/>
        <pt x="326" y="288" on="0"/>
        <pt x="316" y="352" on="0"/>
        <pt x="296" y="410" on="0"/>
        <pt x="258" y="444" on="0"/>
        <pt x="232" y="444" on="1"/>
        <pt x="206" y="444" on="0"/>
        <pt x="168" y="410" on="0"/>
        <pt x="146" y="352" on="0"/>
        <pt x="136" y="287" on="0"/>
      </contour>
      <contour>
        <pt x="48" y="228" on="1"/>
        <pt x="48" y="290" on="0"/>
        <pt x="94" y="398" on="0"/>
        <pt x="181" y="468" on="0"/>
        <pt x="236" y="468" on="1"/>
        <pt x="272" y="468" on="0"/>
        <pt x="332" y="438" on="0"/>
        <pt x="372" y="388" on="0"/>
        <pt x="400" y="324" on="0"/>
        <pt x="412" y="258" on="0"/>
        <pt x="412" y="224" on="1"/>
        <pt x="136" y="224" on="1"/>
        <pt x="136" y="175" on="0"/>
        <pt x="146" y="102" on="0"/>
        <pt x="170" y="43" on="0"/>
        <pt x="216" y="12" on="0"/>
        <pt x="250" y="12" on="1"/>
        <pt x="270" y="12" on="0"/>
        <pt x="307" y="24" on="0"/>
        <pt x="346" y="54" on="0"/>
        <pt x="373" y="114" on="0"/>
        <pt x="378" y="156" on="1"/>
        <pt x="402" y="156" on="1"/>
        <pt x="396" y="82" on="0"/>
        <pt x="318" y="-12" on="0"/>
        <pt x="248" y="-12" on="1"/>
        <pt x="158" y="-12" on="0"/>
        <pt x="48" y="122" on="0"/>
      </contour>
    </TTGlyph>
    <TTGlyph name="eacute" xMin="48" yMin="-12" xMax="412" yMax="684">
      <component glyphName="acute" x="20" y="0" flags="0x1004"/>
      <component glyphName="e" x="0" y="0" flags="0x1204"/>
    </TTGlyph>
    <TTGlyph name="ecircumflex" xMin="48" yMin="-12" xMax="412" yMax="672">
      <component glyphName="circumflex" x="20" y="0" flags="0x1004"/>
      <component glyphName="e" x="0" y="0" flags="0x1204"/>
    </TTGlyph>
    <TTGlyph name="edieresis" xMin="48" yMin="-12" xMax="412" yMax="648">
      <component glyphName="dieresis" x="20" y="0" flags="0x1004"/>
      <component glyphName="e" x="0" y="0" flags="0x1204"/>
    </TTGlyph>
    <TTGlyph name="egrave" xMin="48" yMin="-12" xMax="412" yMax="684">
      <component glyphName="grave" x="20" y="0" flags="0x1004"/>
      <component glyphName="e" x="0" y="0" flags="0x1204"/>
    </TTGlyph>
    <TTGlyph name="eight" xMin="60" yMin="-16" xMax="526" yMax="700">
      <contour>
        <pt x="289" y="668" on="1"/>
        <pt x="227" y="668" on="0"/>
        <pt x="142" y="598" on="0"/>
        <pt x="142" y="540" on="1"/>
        <pt x="142" y="498" on="0"/>
        <pt x="183" y="448" on="0"/>
        <pt x="227" y="430" on="1"/>
        <pt x="356" y="381" on="1"/>
        <pt x="436" y="424" on="0"/>
        <pt x="436" y="522" on="1"/>
        <pt x="436" y="584" on="0"/>
        <pt x="350" y="668" on="0"/>
      </contour>
      <contour>
        <pt x="281" y="-16" on="1"/>
        <pt x="189" y="-16" on="0"/>
        <pt x="60" y="88" on="0"/>
        <pt x="60" y="174" on="1"/>
        <pt x="60" y="247" on="0"/>
        <pt x="142" y="329" on="0"/>
        <pt x="188" y="342" on="1"/>
        <pt x="188" y="346" on="1"/>
        <pt x="177" y="351" on="1"/>
        <pt x="124" y="373" on="0"/>
        <pt x="68" y="459" on="0"/>
        <pt x="68" y="516" on="1"/>
        <pt x="68" y="595" on="0"/>
        <pt x="204" y="700" on="0"/>
        <pt x="289" y="700" on="1"/>
        <pt x="390" y="700" on="0"/>
        <pt x="500" y="597" on="0"/>
        <pt x="500" y="528" on="1"/>
        <pt x="500" y="474" on="0"/>
        <pt x="431" y="395" on="0"/>
        <pt x="385" y="374" on="1"/>
        <pt x="385" y="370" on="1"/>
        <pt x="408" y="361" on="1"/>
        <pt x="526" y="313" on="0"/>
        <pt x="526" y="210" on="1"/>
        <pt x="526" y="114" on="0"/>
        <pt x="396" y="-16" on="0"/>
      </contour>
      <contour>
        <pt x="292" y="16" on="1"/>
        <pt x="347" y="16" on="0"/>
        <pt x="421" y="67" on="0"/>
        <pt x="448" y="127" on="0"/>
        <pt x="448" y="156" on="1"/>
        <pt x="448" y="212" on="0"/>
        <pt x="399" y="266" on="0"/>
        <pt x="352" y="285" on="1"/>
        <pt x="217" y="334" on="1"/>
        <pt x="130" y="298" on="0"/>
        <pt x="130" y="172" on="1"/>
        <pt x="130" y="92" on="0"/>
        <pt x="227" y="16" on="0"/>
      </contour>
    </TTGlyph>
    <TTGlyph name="emdash" xMin="60" yMin="234" xMax="940" yMax="270">
      <contour>
        <pt x="60" y="234" on="1"/>
        <pt x="60" y="270" on="1"/>
        <pt x="940" y="270" on="1"/>
        <pt x="940" y="234" on="1"/>
      </contour>
    </TTGlyph>
    <TTGlyph name="endash" xMin="60" yMin="244" xMax="560" yMax="280">
      <contour>
        <pt x="60" y="244" on="1"/>
        <pt x="60" y="280" on="1"/>
        <pt x="560" y="280" on="1"/>
        <pt x="560" y="244" on="1"/>
      </contour>
    </TTGlyph>
    <TTGlyph name="equal" xMin="48" yMin="148" xMax="892" yMax="378">
      <contour>
        <pt x="48" y="338" on="1"/>
        <pt x="48" y="378" on="1"/>
        <pt x="892" y="378" on="1"/>
        <pt x="892" y="338" on="1"/>
      </contour>
      <contour>
        <pt x="48" y="148" on="1"/>
        <pt x="48" y="188" on="1"/>
        <pt x="892" y="188" on="1"/>
        <pt x="892" y="148" on="1"/>
      </contour>
    </TTGlyph>
    <TTGlyph name="eth" xMin="48" yMin="-12" xMax="448" yMax="712">
      <contour>
        <pt x="248" y="12" on="1"/>
        <pt x="360" y="12" on="0"/>
        <pt x="360" y="228" on="1"/>
        <pt x="360" y="444" on="0"/>
        <pt x="248" y="444" on="1"/>
        <pt x="136" y="444" on="0"/>
        <pt x="136" y="228" on="1"/>
        <pt x="136" y="12" on="0"/>
      </contour>
      <contour>
        <pt x="248" y="-12" on="1"/>
        <pt x="164" y="-12" on="0"/>
        <pt x="48" y="129" on="0"/>
        <pt x="48" y="228" on="1"/>
        <pt x="48" y="327" on="0"/>
        <pt x="164" y="468" on="0"/>
        <pt x="248" y="468" on="1"/>
        <pt x="280" y="468" on="0"/>
        <pt x="311" y="456" on="1"/>
        <pt x="314" y="460" on="1"/>
        <pt x="291" y="503" on="0"/>
        <pt x="230" y="580" on="1"/>
        <pt x="122" y="513" on="1"/>
        <pt x="107" y="536" on="1"/>
        <pt x="211" y="601" on="1"/>
        <pt x="166" y="658" on="0"/>
        <pt x="108" y="712" on="1"/>
        <pt x="204" y="712" on="1"/>
        <pt x="230" y="689" on="0"/>
        <pt x="271" y="638" on="1"/>
        <pt x="379" y="706" on="1"/>
        <pt x="394" y="683" on="1"/>
        <pt x="289" y="617" on="1"/>
        <pt x="324" y="574" on="0"/>
        <pt x="356" y="525" on="1"/>
        <pt x="448" y="382" on="0"/>
        <pt x="448" y="258" on="1"/>
        <pt x="448" y="131" on="0"/>
        <pt x="333" y="-12" on="0"/>
      </contour>
    </TTGlyph>
    <TTGlyph name="exclam" xMin="78" yMin="-12" xMax="202" yMax="694">
      <contour>
        <pt x="152" y="156" on="1"/>
        <pt x="128" y="156" on="1"/>
        <pt x="112" y="356" on="1"/>
        <pt x="109" y="395" on="0"/>
        <pt x="78" y="573" on="0"/>
        <pt x="78" y="622" on="1"/>
        <pt x="78" y="655" on="0"/>
        <pt x="112" y="694" on="0"/>
        <pt x="140" y="694" on="1"/>
        <pt x="168" y="694" on="0"/>
        <pt x="202" y="655" on="0"/>
        <pt x="202" y="622" on="1"/>
        <pt x="202" y="573" on="0"/>
        <pt x="171" y="395" on="0"/>
        <pt x="168" y="356" on="1"/>
      </contour>
      <contour>
        <pt x="140" y="-12" on="1"/>
        <pt x="113" y="-12" on="0"/>
        <pt x="78" y="23" on="0"/>
        <pt x="78" y="50" on="1"/>
        <pt x="78" y="77" on="0"/>
        <pt x="113" y="112" on="0"/>
        <pt x="140" y="112" on="1"/>
        <pt x="167" y="112" on="0"/>
        <pt x="202" y="77" on="0"/>
        <pt x="202" y="50" on="1"/>
        <pt x="202" y="23" on="0"/>
        <pt x="167" y="-12" on="0"/>
      </contour>
    </TTGlyph>
    <TTGlyph name="exclamdown" xMin="78" yMin="-238" xMax="202" yMax="468">
      <contour>
        <pt x="128" y="300" on="1"/>
        <pt x="152" y="300" on="1"/>
        <pt x="168" y="100" on="1"/>
        <pt x="171" y="61" on="0"/>
        <pt x="202" y="-117" on="0"/>
        <pt x="202" y="-166" on="1"/>
        <pt x="202" y="-199" on="0"/>
        <pt x="168" y="-238" on="0"/>
        <pt x="140" y="-238" on="1"/>
        <pt x="112" y="-238" on="0"/>
        <pt x="78" y="-199" on="0"/>
        <pt x="78" y="-166" on="1"/>
        <pt x="78" y="-117" on="0"/>
        <pt x="109" y="61" on="0"/>
        <pt x="112" y="100" on="1"/>
      </contour>
      <contour>
        <pt x="140" y="468" on="1"/>
        <pt x="167" y="468" on="0"/>
        <pt x="202" y="433" on="0"/>
        <pt x="202" y="406" on="1"/>
        <pt x="202" y="379" on="0"/>
        <pt x="167" y="344" on="0"/>
        <pt x="140" y="344" on="1"/>
        <pt x="113" y="344" on="0"/>
        <pt x="78" y="379" on="0"/>
        <pt x="78" y="406" on="1"/>
        <pt x="78" y="433" on="0"/>
        <pt x="113" y="468" on="0"/>
      </contour>
    </TTGlyph>
    <TTGlyph name="f" xMin="28" yMin="0" xMax="358" yMax="720">
      <contour>
        <pt x="28" y="0" on="1"/>
        <pt x="28" y="24" on="1"/>
        <pt x="80" y="24" on="1"/>
        <pt x="102" y="24" on="0"/>
        <pt x="102" y="46" on="1"/>
        <pt x="102" y="428" on="1"/>
        <pt x="28" y="428" on="1"/>
        <pt x="28" y="456" on="1"/>
        <pt x="102" y="456" on="1"/>
        <pt x="102" y="525" on="1"/>
        <pt x="102" y="623" on="0"/>
        <pt x="194" y="720" on="0"/>
        <pt x="255" y="720" on="1"/>
        <pt x="298" y="720" on="0"/>
        <pt x="358" y="667" on="0"/>
        <pt x="358" y="618" on="1"/>
        <pt x="358" y="592" on="0"/>
        <pt x="333" y="562" on="0"/>
        <pt x="311" y="562" on="1"/>
        <pt x="293" y="562" on="0"/>
        <pt x="270" y="585" on="0"/>
        <pt x="270" y="604" on="1"/>
        <pt x="270" y="628" on="0"/>
        <pt x="288" y="640" on="1"/>
        <pt x="304" y="649" on="0"/>
        <pt x="304" y="664" on="1"/>
        <pt x="304" y="696" on="0"/>
        <pt x="253" y="696" on="1"/>
        <pt x="174" y="696" on="0"/>
        <pt x="174" y="553" on="1"/>
        <pt x="174" y="456" on="1"/>
        <pt x="268" y="456" on="1"/>
        <pt x="268" y="428" on="1"/>
        <pt x="174" y="428" on="1"/>
        <pt x="174" y="46" on="1"/>
        <pt x="174" y="24" on="0"/>
        <pt x="196" y="24" on="1"/>
        <pt x="268" y="24" on="1"/>
        <pt x="268" y="0" on="1"/>
      </contour>
    </TTGlyph>
    <TTGlyph name="five" xMin="86" yMin="-16" xMax="514" yMax="700">
      <contour>
        <pt x="268" y="-16" on="1"/>
        <pt x="185" y="-16" on="0"/>
        <pt x="86" y="68" on="0"/>
        <pt x="86" y="131" on="1"/>
        <pt x="86" y="178" on="0"/>
        <pt x="134" y="228" on="0"/>
        <pt x="166" y="228" on="1"/>
        <pt x="193" y="228" on="0"/>
        <pt x="224" y="195" on="0"/>
        <pt x="224" y="170" on="1"/>
        <pt x="224" y="133" on="0"/>
        <pt x="188" y="117" on="1"/>
        <pt x="158" y="103" on="0"/>
        <pt x="158" y="84" on="1"/>
        <pt x="158" y="16" on="0"/>
        <pt x="268" y="16" on="1"/>
        <pt x="318" y="16" on="0"/>
        <pt x="384" y="83" on="0"/>
        <pt x="408" y="180" on="0"/>
        <pt x="408" y="242" on="1"/>
        <pt x="408" y="432" on="0"/>
        <pt x="272" y="432" on="1"/>
        <pt x="218" y="432" on="0"/>
        <pt x="179" y="393" on="1"/>
        <pt x="156" y="370" on="0"/>
        <pt x="156" y="338" on="1"/>
        <pt x="156" y="313" on="0"/>
        <pt x="136" y="313" on="1"/>
        <pt x="120" y="313" on="0"/>
        <pt x="120" y="338" on="1"/>
        <pt x="120" y="683" on="1"/>
        <pt x="142" y="700" on="1"/>
        <pt x="163" y="682" on="0"/>
        <pt x="244" y="658" on="0"/>
        <pt x="279" y="658" on="1"/>
        <pt x="374" y="658" on="0"/>
        <pt x="446" y="700" on="1"/>
        <pt x="458" y="686" on="1"/>
        <pt x="422" y="639" on="0"/>
        <pt x="317" y="582" on="0"/>
        <pt x="258" y="582" on="1"/>
        <pt x="195" y="582" on="0"/>
        <pt x="156" y="602" on="1"/>
        <pt x="156" y="411" on="1"/>
        <pt x="162" y="409" on="1"/>
        <pt x="213" y="468" on="0"/>
        <pt x="292" y="468" on="1"/>
        <pt x="397" y="468" on="0"/>
        <pt x="514" y="344" on="0"/>
        <pt x="514" y="242" on="1"/>
        <pt x="514" y="131" on="0"/>
        <pt x="370" y="-16" on="0"/>
      </contour>
    </TTGlyph>
    <TTGlyph name="four" xMin="56" yMin="0" xMax="526" yMax="685">
      <contour>
        <pt x="310" y="534" on="1"/>
        <pt x="102" y="228" on="1"/>
        <pt x="310" y="228" on="1"/>
      </contour>
      <contour>
        <pt x="186" y="0" on="1"/>
        <pt x="186" y="32" on="1"/>
        <pt x="283" y="32" on="1"/>
        <pt x="310" y="32" on="0"/>
        <pt x="310" y="58" on="1"/>
        <pt x="310" y="192" on="1"/>
        <pt x="56" y="192" on="1"/>
        <pt x="56" y="228" on="1"/>
        <pt x="366" y="685" on="1"/>
        <pt x="402" y="685" on="1"/>
        <pt x="402" y="228" on="1"/>
        <pt x="523" y="228" on="1"/>
        <pt x="523" y="192" on="1"/>
        <pt x="402" y="192" on="1"/>
        <pt x="402" y="58" on="1"/>
        <pt x="402" y="32" on="0"/>
        <pt x="429" y="32" on="1"/>
        <pt x="526" y="32" on="1"/>
        <pt x="526" y="0" on="1"/>
      </contour>
    </TTGlyph>
    <TTGlyph name="foursuperior" xMin="74" yMin="278" xMax="364" yMax="690">
      <contour>
        <pt x="228" y="629" on="1"/>
        <pt x="102" y="426" on="1"/>
        <pt x="228" y="426" on="1"/>
      </contour>
      <contour>
        <pt x="156" y="278" on="1"/>
        <pt x="156" y="302" on="1"/>
        <pt x="211" y="302" on="1"/>
        <pt x="228" y="302" on="0"/>
        <pt x="228" y="317" on="1"/>
        <pt x="228" y="398" on="1"/>
        <pt x="74" y="398" on="1"/>
        <pt x="74" y="426" on="1"/>
        <pt x="240" y="690" on="1"/>
        <pt x="292" y="690" on="1"/>
        <pt x="292" y="426" on="1"/>
        <pt x="364" y="426" on="1"/>
        <pt x="364" y="398" on="1"/>
        <pt x="292" y="398" on="1"/>
        <pt x="292" y="317" on="1"/>
        <pt x="292" y="302" on="0"/>
        <pt x="309" y="302" on="1"/>
        <pt x="364" y="302" on="1"/>
        <pt x="364" y="278" on="1"/>
      </contour>
    </TTGlyph>
    <TTGlyph name="g" xMin="52" yMin="-238" xMax="528" yMax="468">
      <contour>
        <pt x="52" y="-122" on="1"/>
        <pt x="52" y="-85" on="0"/>
        <pt x="110" y="-29" on="0"/>
        <pt x="150" y="-23" on="1"/>
        <pt x="150" y="-20" on="1"/>
        <pt x="62" y="-1" on="0"/>
        <pt x="62" y="54" on="1"/>
        <pt x="62" y="95" on="0"/>
        <pt x="125" y="142" on="0"/>
        <pt x="171" y="150" on="1"/>
        <pt x="171" y="153" on="1"/>
        <pt x="70" y="196" on="0"/>
        <pt x="70" y="304" on="1"/>
        <pt x="70" y="380" on="0"/>
        <pt x="175" y="468" on="0"/>
        <pt x="248" y="468" on="1"/>
        <pt x="290" y="468" on="0"/>
        <pt x="371" y="430" on="0"/>
        <pt x="381" y="416" on="1"/>
        <pt x="390" y="442" on="0"/>
        <pt x="430" y="468" on="0"/>
        <pt x="450" y="468" on="1"/>
        <pt x="484" y="468" on="0"/>
        <pt x="528" y="428" on="0"/>
        <pt x="528" y="396" on="1"/>
        <pt x="528" y="372" on="0"/>
        <pt x="505" y="342" on="0"/>
        <pt x="486" y="342" on="1"/>
        <pt x="470" y="342" on="0"/>
        <pt x="446" y="359" on="0"/>
        <pt x="446" y="378" on="1"/>
        <pt x="446" y="400" on="0"/>
        <pt x="463" y="410" on="1"/>
        <pt x="474" y="417" on="0"/>
        <pt x="474" y="428" on="1"/>
        <pt x="474" y="444" on="0"/>
        <pt x="447" y="444" on="1"/>
        <pt x="429" y="444" on="0"/>
        <pt x="400" y="415" on="0"/>
        <pt x="398" y="396" on="1"/>
        <pt x="426" y="357" on="0"/>
        <pt x="426" y="304" on="1"/>
        <pt x="426" y="229" on="0"/>
        <pt x="323" y="140" on="0"/>
        <pt x="248" y="140" on="1"/>
        <pt x="191" y="140" on="0"/>
        <pt x="102" y="109" on="0"/>
        <pt x="102" y="73" on="1"/>
        <pt x="102" y="40" on="0"/>
        <pt x="166" y="40" on="1"/>
        <pt x="187" y="40" on="0"/>
        <pt x="200" y="41" on="1"/>
        <pt x="212" y="42" on="0"/>
        <pt x="231" y="42" on="1"/>
        <pt x="334" y="42" on="1"/>
        <pt x="398" y="42" on="0"/>
        <pt x="484" y="-27" on="0"/>
        <pt x="484" y="-94" on="1"/>
        <pt x="484" y="-164" on="0"/>
        <pt x="365" y="-238" on="0"/>
        <pt x="268" y="-238" on="1"/>
        <pt x="180" y="-238" on="0"/>
        <pt x="52" y="-182" on="0"/>
      </contour>
      <contour>
        <pt x="150" y="304" on="1"/>
        <pt x="150" y="238" on="0"/>
        <pt x="202" y="164" on="0"/>
        <pt x="248" y="164" on="1"/>
        <pt x="294" y="164" on="0"/>
        <pt x="346" y="238" on="0"/>
        <pt x="346" y="304" on="1"/>
        <pt x="346" y="370" on="0"/>
        <pt x="294" y="444" on="0"/>
        <pt x="248" y="444" on="1"/>
        <pt x="202" y="444" on="0"/>
        <pt x="150" y="370" on="0"/>
      </contour>
      <contour>
        <pt x="96" y="-120" on="1"/>
        <pt x="96" y="-167" on="0"/>
        <pt x="202" y="-214" on="0"/>
        <pt x="268" y="-214" on="1"/>
        <pt x="313" y="-214" on="0"/>
        <pt x="388" y="-197" on="0"/>
        <pt x="448" y="-144" on="0"/>
        <pt x="448" y="-102" on="1"/>
        <pt x="448" y="-71" on="0"/>
        <pt x="411" y="-26" on="0"/>
        <pt x="365" y="-26" on="1"/>
        <pt x="254" y="-26" on="1"/>
        <pt x="214" y="-26" on="0"/>
        <pt x="148" y="-41" on="0"/>
        <pt x="96" y="-85" on="0"/>
      </contour>
    </TTGlyph>
    <TTGlyph name="germandbls" xMin="28" yMin="-12" xMax="478" yMax="718">
      <contour>
        <pt x="28" y="0" on="1"/>
        <pt x="28" y="24" on="1"/>
        <pt x="80" y="24" on="1"/>
        <pt x="102" y="24" on="0"/>
        <pt x="102" y="46" on="1"/>
        <pt x="102" y="509" on="1"/>
        <pt x="102" y="610" on="0"/>
        <pt x="215" y="718" on="0"/>
        <pt x="288" y="718" on="1"/>
        <pt x="358" y="718" on="0"/>
        <pt x="442" y="644" on="0"/>
        <pt x="442" y="585" on="1"/>
        <pt x="442" y="525" on="0"/>
        <pt x="352" y="445" on="0"/>
        <pt x="299" y="432" on="1"/>
        <pt x="299" y="428" on="1"/>
        <pt x="331" y="419" on="0"/>
        <pt x="390" y="383" on="0"/>
        <pt x="445" y="324" on="0"/>
        <pt x="478" y="234" on="0"/>
        <pt x="478" y="178" on="1"/>
        <pt x="478" y="92" on="0"/>
        <pt x="383" y="-12" on="0"/>
        <pt x="312" y="-12" on="1"/>
        <pt x="266" y="-12" on="0"/>
        <pt x="202" y="42" on="0"/>
        <pt x="202" y="84" on="1"/>
        <pt x="202" y="113" on="0"/>
        <pt x="232" y="144" on="0"/>
        <pt x="254" y="144" on="1"/>
        <pt x="298" y="144" on="0"/>
        <pt x="298" y="102" on="1"/>
        <pt x="298" y="79" on="0"/>
        <pt x="268" y="64" on="1"/>
        <pt x="256" y="57" on="0"/>
        <pt x="256" y="48" on="1"/>
        <pt x="256" y="31" on="0"/>
        <pt x="289" y="12" on="0"/>
        <pt x="313" y="12" on="1"/>
        <pt x="350" y="12" on="0"/>
        <pt x="390" y="86" on="0"/>
        <pt x="390" y="178" on="1"/>
        <pt x="390" y="283" on="0"/>
        <pt x="322" y="416" on="0"/>
        <pt x="260" y="416" on="1"/>
        <pt x="222" y="416" on="1"/>
        <pt x="222" y="444" on="1"/>
        <pt x="260" y="444" on="1"/>
        <pt x="314" y="444" on="0"/>
        <pt x="366" y="525" on="0"/>
        <pt x="366" y="580" on="1"/>
        <pt x="366" y="694" on="0"/>
        <pt x="283" y="694" on="1"/>
        <pt x="239" y="694" on="0"/>
        <pt x="174" y="609" on="0"/>
        <pt x="174" y="528" on="1"/>
        <pt x="174" y="0" on="1"/>
      </contour>
    </TTGlyph>
    <TTGlyph name="grave" xMin="76" yMin="508" xMax="245" yMax="684">
      <contour>
        <pt x="104" y="684" on="1"/>
        <pt x="130" y="684" on="0"/>
        <pt x="153" y="652" on="1"/>
        <pt x="245" y="519" on="1"/>
        <pt x="232" y="508" on="1"/>
        <pt x="104" y="609" on="1"/>
        <pt x="76" y="630" on="0"/>
        <pt x="76" y="653" on="1"/>
        <pt x="76" y="684" on="0"/>
      </contour>
    </TTGlyph>
    <TTGlyph name="greater" xMin="80" yMin="-156" xMax="856" yMax="684">
      <contour>
        <pt x="100" y="684" on="1"/>
        <pt x="856" y="278" on="1"/>
        <pt x="856" y="250" on="1"/>
        <pt x="100" y="-156" on="1"/>
        <pt x="80" y="-120" on="1"/>
        <pt x="794" y="264" on="1"/>
        <pt x="80" y="648" on="1"/>
      </contour>
    </TTGlyph>
    <TTGlyph name="guillemotleft" xMin="108" yMin="28" xMax="366" yMax="428">
      <contour>
        <pt x="265" y="228" on="1"/>
        <pt x="265" y="289" on="0"/>
        <pt x="320" y="384" on="0"/>
        <pt x="352" y="410" on="1"/>
        <pt x="366" y="396" on="1"/>
        <pt x="313" y="329" on="0"/>
        <pt x="313" y="228" on="1"/>
        <pt x="313" y="127" on="0"/>
        <pt x="366" y="60" on="1"/>
        <pt x="352" y="46" on="1"/>
        <pt x="320" y="72" on="0"/>
        <pt x="265" y="167" on="0"/>
      </contour>
      <contour>
        <pt x="108" y="228" on="1"/>
        <pt x="108" y="293" on="0"/>
        <pt x="179" y="399" on="0"/>
        <pt x="224" y="428" on="1"/>
        <pt x="239" y="413" on="1"/>
        <pt x="164" y="346" on="0"/>
        <pt x="164" y="228" on="1"/>
        <pt x="164" y="110" on="0"/>
        <pt x="239" y="43" on="1"/>
        <pt x="224" y="28" on="1"/>
        <pt x="179" y="57" on="0"/>
        <pt x="108" y="163" on="0"/>
      </contour>
    </TTGlyph>
    <TTGlyph name="guillemotright" xMin="114" yMin="28" xMax="372" yMax="428">
      <contour>
        <pt x="372" y="228" on="1"/>
        <pt x="372" y="163" on="0"/>
        <pt x="301" y="57" on="0"/>
        <pt x="256" y="28" on="1"/>
        <pt x="241" y="43" on="1"/>
        <pt x="316" y="110" on="0"/>
        <pt x="316" y="228" on="1"/>
        <pt x="316" y="346" on="0"/>
        <pt x="241" y="413" on="1"/>
        <pt x="256" y="428" on="1"/>
        <pt x="301" y="399" on="0"/>
        <pt x="372" y="293" on="0"/>
      </contour>
      <contour>
        <pt x="215" y="228" on="1"/>
        <pt x="215" y="167" on="0"/>
        <pt x="160" y="72" on="0"/>
        <pt x="128" y="46" on="1"/>
        <pt x="114" y="60" on="1"/>
        <pt x="167" y="127" on="0"/>
        <pt x="167" y="228" on="1"/>
        <pt x="167" y="329" on="0"/>
        <pt x="114" y="396" on="1"/>
        <pt x="128" y="410" on="1"/>
        <pt x="160" y="384" on="0"/>
        <pt x="215" y="289" on="0"/>
      </contour>
    </TTGlyph>
    <TTGlyph name="guilsinglleft" xMin="108" yMin="28" xMax="239" yMax="428">
      <contour>
        <pt x="108" y="228" on="1"/>
        <pt x="108" y="293" on="0"/>
        <pt x="179" y="399" on="0"/>
        <pt x="224" y="428" on="1"/>
        <pt x="239" y="413" on="1"/>
        <pt x="164" y="346" on="0"/>
        <pt x="164" y="228" on="1"/>
        <pt x="164" y="110" on="0"/>
        <pt x="239" y="43" on="1"/>
        <pt x="224" y="28" on="1"/>
        <pt x="179" y="57" on="0"/>
        <pt x="108" y="163" on="0"/>
      </contour>
    </TTGlyph>
    <TTGlyph name="guilsinglright" xMin="91" yMin="28" xMax="222" yMax="428">
      <contour>
        <pt x="222" y="228" on="1"/>
        <pt x="222" y="163" on="0"/>
        <pt x="151" y="57" on="0"/>
        <pt x="106" y="28" on="1"/>
        <pt x="91" y="43" on="1"/>
        <pt x="166" y="110" on="0"/>
        <pt x="166" y="228" on="1"/>
        <pt x="166" y="346" on="0"/>
        <pt x="91" y="413" on="1"/>
        <pt x="106" y="428" on="1"/>
        <pt x="151" y="399" on="0"/>
        <pt x="222" y="293" on="0"/>
      </contour>
    </TTGlyph>
    <TTGlyph name="h" xMin="28" yMin="0" xMax="512" yMax="712">
      <contour>
        <pt x="28" y="0" on="1"/>
        <pt x="28" y="24" on="1"/>
        <pt x="84" y="24" on="1"/>
        <pt x="106" y="24" on="0"/>
        <pt x="106" y="46" on="1"/>
        <pt x="106" y="666" on="1"/>
        <pt x="106" y="688" on="0"/>
        <pt x="84" y="688" on="1"/>
        <pt x="28" y="688" on="1"/>
        <pt x="28" y="712" on="1"/>
        <pt x="178" y="712" on="1"/>
        <pt x="178" y="364" on="1"/>
        <pt x="182" y="363" on="1"/>
        <pt x="208" y="413" on="0"/>
        <pt x="281" y="468" on="0"/>
        <pt x="321" y="468" on="1"/>
        <pt x="371" y="468" on="0"/>
        <pt x="402" y="442" on="1"/>
        <pt x="448" y="405" on="0"/>
        <pt x="448" y="319" on="1"/>
        <pt x="448" y="46" on="1"/>
        <pt x="448" y="24" on="0"/>
        <pt x="470" y="24" on="1"/>
        <pt x="512" y="24" on="1"/>
        <pt x="512" y="0" on="1"/>
        <pt x="312" y="0" on="1"/>
        <pt x="312" y="24" on="1"/>
        <pt x="354" y="24" on="1"/>
        <pt x="376" y="24" on="0"/>
        <pt x="376" y="46" on="1"/>
        <pt x="376" y="339" on="1"/>
        <pt x="376" y="444" on="0"/>
        <pt x="312" y="444" on="1"/>
        <pt x="267" y="444" on="0"/>
        <pt x="178" y="329" on="0"/>
        <pt x="178" y="254" on="1"/>
        <pt x="178" y="46" on="1"/>
        <pt x="178" y="24" on="0"/>
        <pt x="200" y="24" on="1"/>
        <pt x="242" y="24" on="1"/>
        <pt x="242" y="0" on="1"/>
      </contour>
    </TTGlyph>
    <TTGlyph name="hyphen" xMin="60" yMin="224" xMax="310" yMax="280">
      <contour>
        <pt x="60" y="280" on="1"/>
        <pt x="310" y="280" on="1"/>
        <pt x="310" y="224" on="1"/>
        <pt x="60" y="224" on="1"/>
      </contour>
    </TTGlyph>
    <TTGlyph name="i" xMin="38" yMin="0" xMax="238" yMax="684">
      <component glyphName="dotaccent" x="-88" y="36" flags="0x1004"/>
      <component glyphName="dotlessi" x="0" y="0" flags="0x1204"/>
    </TTGlyph>
    <TTGlyph name="iacute" xMin="38" yMin="0" xMax="276" yMax="684">
      <component glyphName="acute" x="-88" y="0" flags="0x1004"/>
      <component glyphName="dotlessi" x="0" y="0" flags="0x1204"/>
    </TTGlyph>
    <TTGlyph name="icircumflex" xMin="7" yMin="0" xMax="269" yMax="672">
      <component glyphName="circumflex" x="-82" y="0" flags="0x1004"/>
      <component glyphName="dotlessi" x="6" y="0" flags="0x1004"/>
    </TTGlyph>
    <TTGlyph name="idieresis" xMin="10" yMin="0" xMax="276" yMax="648">
      <contour>
        <pt x="50" y="0" on="1"/>
        <pt x="50" y="24" on="1"/>
        <pt x="92" y="24" on="1"/>
        <pt x="114" y="24" on="0"/>
        <pt x="114" y="46" on="1"/>
        <pt x="114" y="410" on="1"/>
        <pt x="114" y="432" on="0"/>
        <pt x="92" y="432" on="1"/>
        <pt x="50" y="432" on="1"/>
        <pt x="50" y="456" on="1"/>
        <pt x="186" y="456" on="1"/>
        <pt x="186" y="46" on="1"/>
        <pt x="186" y="24" on="0"/>
        <pt x="208" y="24" on="1"/>
        <pt x="250" y="24" on="1"/>
        <pt x="250" y="0" on="1"/>
      </contour>
      <contour>
        <pt x="172" y="596" on="1"/>
        <pt x="172" y="618" on="0"/>
        <pt x="202" y="648" on="0"/>
        <pt x="224" y="648" on="1"/>
        <pt x="246" y="648" on="0"/>
        <pt x="276" y="618" on="0"/>
        <pt x="276" y="596" on="1"/>
        <pt x="276" y="574" on="0"/>
        <pt x="246" y="544" on="0"/>
        <pt x="224" y="544" on="1"/>
        <pt x="202" y="544" on="0"/>
        <pt x="172" y="574" on="0"/>
      </contour>
      <contour>
        <pt x="10" y="596" on="1"/>
        <pt x="10" y="618" on="0"/>
        <pt x="40" y="648" on="0"/>
        <pt x="62" y="648" on="1"/>
        <pt x="84" y="648" on="0"/>
        <pt x="114" y="618" on="0"/>
        <pt x="114" y="596" on="1"/>
        <pt x="114" y="574" on="0"/>
        <pt x="84" y="544" on="0"/>
        <pt x="62" y="544" on="1"/>
        <pt x="40" y="544" on="0"/>
        <pt x="10" y="574" on="0"/>
      </contour>
    </TTGlyph>
    <TTGlyph name="igrave" xMin="-12" yMin="0" xMax="238" yMax="684">
      <component glyphName="grave" x="-88" y="0" flags="0x1004"/>
      <component glyphName="dotlessi" x="0" y="0" flags="0x1204"/>
    </TTGlyph>
    <TTGlyph name="j" xMin="-38" yMin="-238" xMax="228" yMax="684">
      <contour>
        <pt x="52" y="432" on="1"/>
        <pt x="52" y="456" on="1"/>
        <pt x="218" y="456" on="1"/>
        <pt x="218" y="-43" on="1"/>
        <pt x="218" y="-141" on="0"/>
        <pt x="126" y="-238" on="0"/>
        <pt x="65" y="-238" on="1"/>
        <pt x="22" y="-238" on="0"/>
        <pt x="-38" y="-185" on="0"/>
        <pt x="-38" y="-136" on="1"/>
        <pt x="-38" y="-110" on="0"/>
        <pt x="-13" y="-80" on="0"/>
        <pt x="9" y="-80" on="1"/>
        <pt x="27" y="-80" on="0"/>
        <pt x="50" y="-103" on="0"/>
        <pt x="50" y="-122" on="1"/>
        <pt x="50" y="-146" on="0"/>
        <pt x="32" y="-158" on="1"/>
        <pt x="16" y="-167" on="0"/>
        <pt x="16" y="-182" on="1"/>
        <pt x="16" y="-214" on="0"/>
        <pt x="67" y="-214" on="1"/>
        <pt x="146" y="-214" on="0"/>
        <pt x="146" y="-71" on="1"/>
        <pt x="146" y="410" on="1"/>
        <pt x="146" y="432" on="0"/>
        <pt x="124" y="432" on="1"/>
      </contour>
      <contour>
        <pt x="176" y="580" on="1"/>
        <pt x="154" y="580" on="0"/>
        <pt x="124" y="610" on="0"/>
        <pt x="124" y="632" on="1"/>
        <pt x="124" y="654" on="0"/>
        <pt x="154" y="684" on="0"/>
        <pt x="176" y="684" on="1"/>
        <pt x="198" y="684" on="0"/>
        <pt x="228" y="654" on="0"/>
        <pt x="228" y="632" on="1"/>
        <pt x="228" y="610" on="0"/>
        <pt x="198" y="580" on="0"/>
      </contour>
    </TTGlyph>
    <TTGlyph name="k" xMin="28" yMin="0" xMax="490" yMax="712">
      <contour>
        <pt x="28" y="0" on="1"/>
        <pt x="28" y="24" on="1"/>
        <pt x="80" y="24" on="1"/>
        <pt x="102" y="24" on="0"/>
        <pt x="102" y="46" on="1"/>
        <pt x="102" y="666" on="1"/>
        <pt x="102" y="688" on="0"/>
        <pt x="80" y="688" on="1"/>
        <pt x="28" y="688" on="1"/>
        <pt x="28" y="712" on="1"/>
        <pt x="174" y="712" on="1"/>
        <pt x="174" y="203" on="1"/>
        <pt x="310" y="370" on="1"/>
        <pt x="328" y="392" on="0"/>
        <pt x="328" y="406" on="1"/>
        <pt x="328" y="432" on="0"/>
        <pt x="294" y="432" on="1"/>
        <pt x="268" y="432" on="1"/>
        <pt x="268" y="456" on="1"/>
        <pt x="472" y="456" on="1"/>
        <pt x="472" y="432" on="1"/>
        <pt x="440" y="432" on="1"/>
        <pt x="413" y="432" on="0"/>
        <pt x="371" y="404" on="0"/>
        <pt x="344" y="371" on="1"/>
        <pt x="268" y="278" on="1"/>
        <pt x="424" y="56" on="1"/>
        <pt x="431" y="46" on="0"/>
        <pt x="440" y="32" on="0"/>
        <pt x="456" y="24" on="0"/>
        <pt x="470" y="24" on="1"/>
        <pt x="490" y="24" on="1"/>
        <pt x="490" y="0" on="1"/>
        <pt x="278" y="0" on="1"/>
        <pt x="278" y="24" on="1"/>
        <pt x="304" y="24" on="1"/>
        <pt x="331" y="24" on="0"/>
        <pt x="331" y="44" on="1"/>
        <pt x="331" y="59" on="0"/>
        <pt x="317" y="80" on="1"/>
        <pt x="220" y="220" on="1"/>
        <pt x="174" y="164" on="1"/>
        <pt x="174" y="46" on="1"/>
        <pt x="174" y="24" on="0"/>
        <pt x="196" y="24" on="1"/>
        <pt x="228" y="24" on="1"/>
        <pt x="228" y="0" on="1"/>
      </contour>
    </TTGlyph>
    <TTGlyph name="l" xMin="28" yMin="0" xMax="248" yMax="712">
      <contour>
        <pt x="28" y="0" on="1"/>
        <pt x="28" y="24" on="1"/>
        <pt x="80" y="24" on="1"/>
        <pt x="102" y="24" on="0"/>
        <pt x="102" y="46" on="1"/>
        <pt x="102" y="666" on="1"/>
        <pt x="102" y="688" on="0"/>
        <pt x="80" y="688" on="1"/>
        <pt x="28" y="688" on="1"/>
        <pt x="28" y="712" on="1"/>
        <pt x="174" y="712" on="1"/>
        <pt x="174" y="46" on="1"/>
        <pt x="174" y="24" on="0"/>
        <pt x="196" y="24" on="1"/>
        <pt x="248" y="24" on="1"/>
        <pt x="248" y="0" on="1"/>
      </contour>
    </TTGlyph>
    <TTGlyph name="less" xMin="84" yMin="-156" xMax="860" yMax="684">
      <contour>
        <pt x="840" y="-156" on="1"/>
        <pt x="84" y="250" on="1"/>
        <pt x="84" y="278" on="1"/>
        <pt x="840" y="684" on="1"/>
        <pt x="860" y="648" on="1"/>
        <pt x="146" y="264" on="1"/>
        <pt x="860" y="-120" on="1"/>
      </contour>
    </TTGlyph>
    <TTGlyph name="logicalnot" xMin="48" yMin="160" xMax="532" yMax="366">
      <contour>
        <pt x="48" y="326" on="1"/>
        <pt x="48" y="366" on="1"/>
        <pt x="532" y="366" on="1"/>
        <pt x="532" y="160" on="1"/>
        <pt x="488" y="160" on="1"/>
        <pt x="488" y="326" on="1"/>
      </contour>
    </TTGlyph>
    <TTGlyph name="m" xMin="38" yMin="0" xMax="762" yMax="468">
      <contour>
        <pt x="38" y="0" on="1"/>
        <pt x="38" y="24" on="1"/>
        <pt x="80" y="24" on="1"/>
        <pt x="102" y="24" on="0"/>
        <pt x="102" y="46" on="1"/>
        <pt x="102" y="410" on="1"/>
        <pt x="102" y="432" on="0"/>
        <pt x="80" y="432" on="1"/>
        <pt x="38" y="432" on="1"/>
        <pt x="38" y="456" on="1"/>
        <pt x="174" y="456" on="1"/>
        <pt x="174" y="368" on="1"/>
        <pt x="178" y="367" on="1"/>
        <pt x="232" y="468" on="0"/>
        <pt x="307" y="468" on="1"/>
        <pt x="359" y="468" on="0"/>
        <pt x="390" y="442" on="1"/>
        <pt x="420" y="418" on="0"/>
        <pt x="432" y="358" on="1"/>
        <pt x="436" y="357" on="1"/>
        <pt x="441" y="369" on="0"/>
        <pt x="459" y="399" on="0"/>
        <pt x="492" y="441" on="0"/>
        <pt x="541" y="468" on="0"/>
        <pt x="569" y="468" on="1"/>
        <pt x="621" y="468" on="0"/>
        <pt x="652" y="442" on="1"/>
        <pt x="698" y="405" on="0"/>
        <pt x="698" y="319" on="1"/>
        <pt x="698" y="46" on="1"/>
        <pt x="698" y="24" on="0"/>
        <pt x="720" y="24" on="1"/>
        <pt x="762" y="24" on="1"/>
        <pt x="762" y="0" on="1"/>
        <pt x="562" y="0" on="1"/>
        <pt x="562" y="24" on="1"/>
        <pt x="604" y="24" on="1"/>
        <pt x="626" y="24" on="0"/>
        <pt x="626" y="46" on="1"/>
        <pt x="626" y="339" on="1"/>
        <pt x="626" y="382" on="0"/>
        <pt x="595" y="444" on="0"/>
        <pt x="560" y="444" on="1"/>
        <pt x="516" y="444" on="0"/>
        <pt x="436" y="330" on="0"/>
        <pt x="436" y="254" on="1"/>
        <pt x="436" y="46" on="1"/>
        <pt x="436" y="24" on="0"/>
        <pt x="458" y="24" on="1"/>
        <pt x="500" y="24" on="1"/>
        <pt x="500" y="0" on="1"/>
        <pt x="300" y="0" on="1"/>
        <pt x="300" y="24" on="1"/>
        <pt x="342" y="24" on="1"/>
        <pt x="364" y="24" on="0"/>
        <pt x="364" y="46" on="1"/>
        <pt x="364" y="339" on="1"/>
        <pt x="364" y="382" on="0"/>
        <pt x="333" y="444" on="0"/>
        <pt x="298" y="444" on="1"/>
        <pt x="254" y="444" on="0"/>
        <pt x="174" y="330" on="0"/>
        <pt x="174" y="254" on="1"/>
        <pt x="174" y="46" on="1"/>
        <pt x="174" y="24" on="0"/>
        <pt x="196" y="24" on="1"/>
        <pt x="238" y="24" on="1"/>
        <pt x="238" y="0" on="1"/>
      </contour>
    </TTGlyph>
    <TTGlyph name="minus" xMin="48" yMin="244" xMax="892" yMax="284">
      <contour>
        <pt x="48" y="244" on="1"/>
        <pt x="48" y="284" on="1"/>
        <pt x="892" y="284" on="1"/>
        <pt x="892" y="244" on="1"/>
      </contour>
    </TTGlyph>
    <TTGlyph name="mu1" xMin="62" yMin="-282" xMax="578" yMax="466">
      <component glyphName="mugreek" x="0" y="0" flags="0x1004"/>
    </TTGlyph>
    <TTGlyph name="mugreek" xMin="62" yMin="-282" xMax="578" yMax="466">
      <contour>
        <pt x="62" y="354" on="1"/>
        <pt x="62" y="464" on="0"/>
        <pt x="114" y="464" on="1"/>
        <pt x="158" y="464" on="0"/>
        <pt x="158" y="376" on="1"/>
        <pt x="158" y="342" on="0"/>
        <pt x="131" y="192" on="1"/>
        <pt x="122" y="146" on="0"/>
        <pt x="120" y="125" on="1"/>
        <pt x="130" y="85" on="0"/>
        <pt x="197" y="34" on="0"/>
        <pt x="243" y="34" on="1"/>
        <pt x="272" y="34" on="0"/>
        <pt x="318" y="52" on="0"/>
        <pt x="346" y="78" on="0"/>
        <pt x="364" y="110" on="0"/>
        <pt x="370" y="135" on="0"/>
        <pt x="370" y="144" on="1"/>
        <pt x="370" y="170" on="0"/>
        <pt x="361" y="230" on="1"/>
        <pt x="350" y="304" on="0"/>
        <pt x="350" y="356" on="1"/>
        <pt x="350" y="466" on="0"/>
        <pt x="402" y="466" on="1"/>
        <pt x="430" y="466" on="0"/>
        <pt x="458" y="402" on="0"/>
        <pt x="458" y="348" on="1"/>
        <pt x="458" y="296" on="0"/>
        <pt x="432" y="135" on="0"/>
        <pt x="415" y="89" on="1"/>
        <pt x="426" y="71" on="0"/>
        <pt x="464" y="52" on="0"/>
        <pt x="483" y="52" on="1"/>
        <pt x="514" y="52" on="0"/>
        <pt x="550" y="91" on="0"/>
        <pt x="556" y="117" on="1"/>
        <pt x="578" y="90" on="0"/>
        <pt x="578" y="62" on="1"/>
        <pt x="578" y="30" on="0"/>
        <pt x="544" y="-12" on="0"/>
        <pt x="513" y="-12" on="1"/>
        <pt x="450" y="-12" on="0"/>
        <pt x="410" y="67" on="1"/>
        <pt x="403" y="66" on="1"/>
        <pt x="385" y="36" on="0"/>
        <pt x="316" y="-10" on="0"/>
        <pt x="264" y="-10" on="1"/>
        <pt x="210" y="-10" on="0"/>
        <pt x="130" y="48" on="0"/>
        <pt x="109" y="89" on="1"/>
        <pt x="104" y="58" on="0"/>
        <pt x="104" y="30" on="1"/>
        <pt x="104" y="-48" on="0"/>
        <pt x="125" y="-132" on="0"/>
        <pt x="146" y="-173" on="1"/>
        <pt x="168" y="-216" on="0"/>
        <pt x="168" y="-236" on="1"/>
        <pt x="168" y="-258" on="0"/>
        <pt x="146" y="-282" on="0"/>
        <pt x="128" y="-282" on="1"/>
        <pt x="108" y="-282" on="0"/>
        <pt x="78" y="-248" on="0"/>
        <pt x="66" y="-204" on="0"/>
        <pt x="66" y="-183" on="1"/>
        <pt x="66" y="-123" on="0"/>
        <pt x="78" y="-11" on="1"/>
        <pt x="88" y="82" on="0"/>
        <pt x="88" y="132" on="1"/>
        <pt x="78" y="164" on="0"/>
        <pt x="62" y="286" on="0"/>
      </contour>
    </TTGlyph>
    <TTGlyph name="multiply" xMin="156" yMin="-50" xMax="784" yMax="578">
      <contour>
        <pt x="188" y="-50" on="1"/>
        <pt x="156" y="-18" on="1"/>
        <pt x="439" y="264" on="1"/>
        <pt x="156" y="546" on="1"/>
        <pt x="188" y="578" on="1"/>
        <pt x="470" y="295" on="1"/>
        <pt x="752" y="578" on="1"/>
        <pt x="784" y="546" on="1"/>
        <pt x="501" y="264" on="1"/>
        <pt x="784" y="-18" on="1"/>
        <pt x="752" y="-50" on="1"/>
        <pt x="470" y="233" on="1"/>
      </contour>
    </TTGlyph>
    <TTGlyph name="n" xMin="38" yMin="0" xMax="508" yMax="468">
      <contour>
        <pt x="38" y="0" on="1"/>
        <pt x="38" y="24" on="1"/>
        <pt x="80" y="24" on="1"/>
        <pt x="102" y="24" on="0"/>
        <pt x="102" y="46" on="1"/>
        <pt x="102" y="410" on="1"/>
        <pt x="102" y="432" on="0"/>
        <pt x="80" y="432" on="1"/>
        <pt x="38" y="432" on="1"/>
        <pt x="38" y="456" on="1"/>
        <pt x="174" y="456" on="1"/>
        <pt x="174" y="364" on="1"/>
        <pt x="178" y="363" on="1"/>
        <pt x="204" y="413" on="0"/>
        <pt x="277" y="468" on="0"/>
        <pt x="317" y="468" on="1"/>
        <pt x="367" y="468" on="0"/>
        <pt x="398" y="442" on="1"/>
        <pt x="444" y="405" on="0"/>
        <pt x="444" y="319" on="1"/>
        <pt x="444" y="46" on="1"/>
        <pt x="444" y="24" on="0"/>
        <pt x="466" y="24" on="1"/>
        <pt x="508" y="24" on="1"/>
        <pt x="508" y="0" on="1"/>
        <pt x="308" y="0" on="1"/>
        <pt x="308" y="24" on="1"/>
        <pt x="350" y="24" on="1"/>
        <pt x="372" y="24" on="0"/>
        <pt x="372" y="46" on="1"/>
        <pt x="372" y="339" on="1"/>
        <pt x="372" y="444" on="0"/>
        <pt x="308" y="444" on="1"/>
        <pt x="263" y="444" on="0"/>
        <pt x="174" y="329" on="0"/>
        <pt x="174" y="254" on="1"/>
        <pt x="174" y="46" on="1"/>
        <pt x="174" y="24" on="0"/>
        <pt x="196" y="24" on="1"/>
        <pt x="238" y="24" on="1"/>
        <pt x="238" y="0" on="1"/>
      </contour>
    </TTGlyph>
    <TTGlyph name="nine" xMin="78" yMin="-16" xMax="500" yMax="700">
      <contour>
        <pt x="282" y="668" on="1"/>
        <pt x="240" y="668" on="0"/>
        <pt x="185" y="604" on="0"/>
        <pt x="166" y="524" on="0"/>
        <pt x="166" y="478" on="1"/>
        <pt x="166" y="398" on="0"/>
        <pt x="214" y="292" on="0"/>
        <pt x="270" y="292" on="1"/>
        <pt x="323" y="292" on="0"/>
        <pt x="394" y="395" on="0"/>
        <pt x="394" y="478" on="1"/>
        <pt x="394" y="561" on="0"/>
        <pt x="342" y="668" on="0"/>
      </contour>
      <contour>
        <pt x="247" y="-16" on="1"/>
        <pt x="176" y="-16" on="0"/>
        <pt x="132" y="32" on="1"/>
        <pt x="104" y="65" on="0"/>
        <pt x="104" y="111" on="1"/>
        <pt x="104" y="146" on="0"/>
        <pt x="129" y="168" on="1"/>
        <pt x="146" y="183" on="0"/>
        <pt x="170" y="183" on="1"/>
        <pt x="193" y="183" on="0"/>
        <pt x="206" y="165" on="1"/>
        <pt x="214" y="155" on="0"/>
        <pt x="214" y="136" on="1"/>
        <pt x="214" y="121" on="0"/>
        <pt x="201" y="106" on="1"/>
        <pt x="192" y="96" on="0"/>
        <pt x="182" y="89" on="1"/>
        <pt x="166" y="77" on="0"/>
        <pt x="166" y="61" on="1"/>
        <pt x="166" y="43" on="0"/>
        <pt x="207" y="16" on="0"/>
        <pt x="249" y="16" on="1"/>
        <pt x="330" y="16" on="0"/>
        <pt x="372" y="107" on="1"/>
        <pt x="389" y="144" on="0"/>
        <pt x="407" y="256" on="0"/>
        <pt x="407" y="294" on="1"/>
        <pt x="407" y="339" on="1"/>
        <pt x="400" y="342" on="1"/>
        <pt x="382" y="304" on="0"/>
        <pt x="307" y="255" on="0"/>
        <pt x="272" y="255" on="1"/>
        <pt x="205" y="255" on="0"/>
        <pt x="159" y="288" on="1"/>
        <pt x="120" y="316" on="0"/>
        <pt x="78" y="411" on="0"/>
        <pt x="78" y="465" on="1"/>
        <pt x="78" y="552" on="0"/>
        <pt x="189" y="700" on="0"/>
        <pt x="282" y="700" on="1"/>
        <pt x="380" y="700" on="0"/>
        <pt x="500" y="522" on="0"/>
        <pt x="500" y="370" on="1"/>
        <pt x="500" y="288" on="0"/>
        <pt x="458" y="130" on="0"/>
        <pt x="418" y="78" on="1"/>
        <pt x="345" y="-16" on="0"/>
      </contour>
    </TTGlyph>
    <TTGlyph name="ntilde" xMin="38" yMin="0" xMax="508" yMax="650">
      <component glyphName="tilde" x="56" y="0" flags="0x1004"/>
      <component glyphName="n" x="0" y="0" flags="0x1204"/>
    </TTGlyph>
    <TTGlyph name="numbersign" xMin="81" yMin="0" xMax="610" yMax="684">
      <contour>
        <pt x="280" y="684" on="1"/>
        <pt x="324" y="684" on="1"/>
        <pt x="294" y="490" on="1"/>
        <pt x="440" y="490" on="1"/>
        <pt x="470" y="684" on="1"/>
        <pt x="514" y="684" on="1"/>
        <pt x="484" y="490" on="1"/>
        <pt x="610" y="490" on="1"/>
        <pt x="610" y="450" on="1"/>
        <pt x="479" y="450" on="1"/>
        <pt x="445" y="236" on="1"/>
        <pt x="607" y="236" on="1"/>
        <pt x="607" y="196" on="1"/>
        <pt x="437" y="196" on="1"/>
        <pt x="407" y="0" on="1"/>
        <pt x="363" y="0" on="1"/>
        <pt x="393" y="196" on="1"/>
        <pt x="248" y="196" on="1"/>
        <pt x="217" y="0" on="1"/>
        <pt x="173" y="0" on="1"/>
        <pt x="204" y="196" on="1"/>
        <pt x="81" y="196" on="1"/>
        <pt x="81" y="236" on="1"/>
        <pt x="209" y="236" on="1"/>
        <pt x="245" y="450" on="1"/>
        <pt x="81" y="450" on="1"/>
        <pt x="81" y="490" on="1"/>
        <pt x="251" y="490" on="1"/>
      </contour>
      <contour>
        <pt x="289" y="450" on="1"/>
        <pt x="253" y="236" on="1"/>
        <pt x="401" y="236" on="1"/>
        <pt x="435" y="450" on="1"/>
      </contour>
    </TTGlyph>
    <TTGlyph name="o" xMin="48" yMin="-12" xMax="448" yMax="468">
      <contour>
        <pt x="248" y="12" on="1"/>
        <pt x="360" y="12" on="0"/>
        <pt x="360" y="228" on="1"/>
        <pt x="360" y="444" on="0"/>
        <pt x="248" y="444" on="1"/>
        <pt x="136" y="444" on="0"/>
        <pt x="136" y="228" on="1"/>
        <pt x="136" y="12" on="0"/>
      </contour>
      <contour>
        <pt x="248" y="-12" on="1"/>
        <pt x="164" y="-12" on="0"/>
        <pt x="48" y="129" on="0"/>
        <pt x="48" y="228" on="1"/>
        <pt x="48" y="327" on="0"/>
        <pt x="164" y="468" on="0"/>
        <pt x="248" y="468" on="1"/>
        <pt x="332" y="468" on="0"/>
        <pt x="448" y="327" on="0"/>
        <pt x="448" y="228" on="1"/>
        <pt x="448" y="129" on="0"/>
        <pt x="332" y="-12" on="0"/>
      </contour>
    </TTGlyph>
    <TTGlyph name="oacute" xMin="48" yMin="-12" xMax="448" yMax="684">
      <component glyphName="acute" x="28" y="0" flags="0x1004"/>
      <component glyphName="o" x="0" y="0" flags="0x1204"/>
    </TTGlyph>
    <TTGlyph name="ocircumflex" xMin="48" yMin="-12" xMax="448" yMax="672">
      <component glyphName="circumflex" x="28" y="0" flags="0x1004"/>
      <component glyphName="o" x="0" y="0" flags="0x1204"/>
    </TTGlyph>
    <TTGlyph name="odieresis" xMin="48" yMin="-12" xMax="448" yMax="648">
      <component glyphName="dieresis" x="28" y="0" flags="0x1004"/>
      <component glyphName="o" x="0" y="0" flags="0x1204"/>
    </TTGlyph>
    <TTGlyph name="ograve" xMin="48" yMin="-12" xMax="448" yMax="684">
      <component glyphName="grave" x="28" y="0" flags="0x1004"/>
      <component glyphName="o" x="0" y="0" flags="0x1204"/>
    </TTGlyph>
    <TTGlyph name="one" xMin="120" yMin="0" xMax="460" yMax="684">
      <contour>
        <pt x="120" y="0" on="1"/>
        <pt x="120" y="32" on="1"/>
        <pt x="216" y="32" on="1"/>
        <pt x="244" y="32" on="0"/>
        <pt x="244" y="58" on="1"/>
        <pt x="244" y="549" on="1"/>
        <pt x="120" y="549" on="1"/>
        <pt x="120" y="585" on="1"/>
        <pt x="175" y="585" on="1"/>
        <pt x="229" y="585" on="0"/>
        <pt x="296" y="643" on="0"/>
        <pt x="304" y="684" on="1"/>
        <pt x="336" y="684" on="1"/>
        <pt x="336" y="58" on="1"/>
        <pt x="336" y="32" on="0"/>
        <pt x="364" y="32" on="1"/>
        <pt x="460" y="32" on="1"/>
        <pt x="460" y="0" on="1"/>
      </contour>
    </TTGlyph>
    <TTGlyph name="onehalf" xMin="112" yMin="-18" xMax="778" yMax="702">
      <component glyphName="twosuperior" x="420" y="-280" flags="0x1004"/>
      <component glyphName="onesuperior" x="0" y="0" flags="0x1004"/>
      <component glyphName="uni2215" x="160" y="0" flags="0x1004"/>
    </TTGlyph>
    <TTGlyph name="onequarter" xMin="112" yMin="-18" xMax="784" yMax="702">
      <component glyphName="foursuperior" x="420" y="-280" flags="0x1004"/>
      <component glyphName="onesuperior" x="0" y="0" flags="0x1004"/>
      <component glyphName="uni2215" x="160" y="0" flags="0x1004"/>
    </TTGlyph>
    <TTGlyph name="onesuperior" xMin="112" yMin="278" xMax="336" yMax="690">
      <contour>
        <pt x="112" y="278" on="1"/>
        <pt x="112" y="302" on="1"/>
        <pt x="175" y="302" on="1"/>
        <pt x="192" y="302" on="0"/>
        <pt x="192" y="317" on="1"/>
        <pt x="192" y="594" on="1"/>
        <pt x="112" y="594" on="1"/>
        <pt x="112" y="622" on="1"/>
        <pt x="152" y="622" on="1"/>
        <pt x="187" y="622" on="0"/>
        <pt x="228" y="663" on="0"/>
        <pt x="234" y="690" on="1"/>
        <pt x="256" y="690" on="1"/>
        <pt x="256" y="317" on="1"/>
        <pt x="256" y="302" on="0"/>
        <pt x="273" y="302" on="1"/>
        <pt x="336" y="302" on="1"/>
        <pt x="336" y="278" on="1"/>
      </contour>
    </TTGlyph>
    <TTGlyph name="ordfeminine" xMin="62" yMin="362" xMax="320" yMax="700">
      <contour>
        <pt x="70" y="386" on="1"/>
        <pt x="310" y="386" on="1"/>
        <pt x="310" y="362" on="1"/>
        <pt x="70" y="362" on="1"/>
      </contour>
      <contour>
        <pt x="118" y="478" on="1"/>
        <pt x="118" y="460" on="0"/>
        <pt x="139" y="441" on="0"/>
        <pt x="151" y="441" on="1"/>
        <pt x="171" y="441" on="0"/>
        <pt x="197" y="460" on="0"/>
        <pt x="208" y="480" on="1"/>
        <pt x="208" y="574" on="1"/>
        <pt x="169" y="554" on="1"/>
        <pt x="118" y="528" on="0"/>
      </contour>
      <contour>
        <pt x="62" y="473" on="1"/>
        <pt x="62" y="502" on="0"/>
        <pt x="109" y="547" on="0"/>
        <pt x="158" y="569" on="1"/>
        <pt x="208" y="592" on="1"/>
        <pt x="208" y="630" on="1"/>
        <pt x="208" y="682" on="0"/>
        <pt x="157" y="682" on="1"/>
        <pt x="135" y="682" on="0"/>
        <pt x="102" y="664" on="0"/>
        <pt x="102" y="651" on="1"/>
        <pt x="102" y="645" on="0"/>
        <pt x="106" y="639" on="0"/>
        <pt x="112" y="639" on="1"/>
        <pt x="122" y="639" on="0"/>
        <pt x="134" y="624" on="0"/>
        <pt x="134" y="615" on="1"/>
        <pt x="134" y="603" on="0"/>
        <pt x="117" y="590" on="0"/>
        <pt x="106" y="590" on="1"/>
        <pt x="89" y="590" on="0"/>
        <pt x="68" y="608" on="0"/>
        <pt x="68" y="627" on="1"/>
        <pt x="68" y="660" on="0"/>
        <pt x="123" y="700" on="0"/>
        <pt x="156" y="700" on="1"/>
        <pt x="197" y="700" on="0"/>
        <pt x="256" y="660" on="0"/>
        <pt x="256" y="615" on="1"/>
        <pt x="256" y="474" on="1"/>
        <pt x="256" y="437" on="0"/>
        <pt x="279" y="437" on="1"/>
        <pt x="306" y="437" on="0"/>
        <pt x="306" y="497" on="1"/>
        <pt x="320" y="497" on="1"/>
        <pt x="320" y="412" on="0"/>
        <pt x="268" y="412" on="1"/>
        <pt x="241" y="412" on="0"/>
        <pt x="211" y="440" on="0"/>
        <pt x="209" y="462" on="1"/>
        <pt x="207" y="463" on="1"/>
        <pt x="192" y="440" on="0"/>
        <pt x="154" y="412" on="0"/>
        <pt x="132" y="412" on="1"/>
        <pt x="62" y="412" on="0"/>
      </contour>
    </TTGlyph>
    <TTGlyph name="ordmasculine" xMin="70" yMin="362" xMax="310" yMax="700">
      <contour>
        <pt x="70" y="386" on="1"/>
        <pt x="310" y="386" on="1"/>
        <pt x="310" y="362" on="1"/>
        <pt x="70" y="362" on="1"/>
      </contour>
      <contour>
        <pt x="189" y="430" on="1"/>
        <pt x="224" y="430" on="0"/>
        <pt x="254" y="506" on="0"/>
        <pt x="254" y="556" on="1"/>
        <pt x="254" y="606" on="0"/>
        <pt x="224" y="682" on="0"/>
        <pt x="189" y="682" on="1"/>
        <pt x="155" y="682" on="0"/>
        <pt x="126" y="607" on="0"/>
        <pt x="126" y="556" on="1"/>
        <pt x="126" y="505" on="0"/>
        <pt x="155" y="430" on="0"/>
      </contour>
      <contour>
        <pt x="189" y="412" on="1"/>
        <pt x="139" y="412" on="0"/>
        <pt x="70" y="496" on="0"/>
        <pt x="70" y="556" on="1"/>
        <pt x="70" y="616" on="0"/>
        <pt x="139" y="700" on="0"/>
        <pt x="189" y="700" on="1"/>
        <pt x="240" y="700" on="0"/>
        <pt x="310" y="616" on="0"/>
        <pt x="310" y="556" on="1"/>
        <pt x="310" y="496" on="0"/>
        <pt x="240" y="412" on="0"/>
      </contour>
    </TTGlyph>
    <TTGlyph name="oslash" xMin="48" yMin="-12" xMax="448" yMax="468">
      <contour>
        <pt x="248" y="-12" on="1"/>
        <pt x="172" y="-12" on="0"/>
        <pt x="117" y="46" on="1"/>
        <pt x="70" y="-12" on="1"/>
        <pt x="48" y="6" on="1"/>
        <pt x="99" y="68" on="1"/>
        <pt x="48" y="136" on="0"/>
        <pt x="48" y="228" on="1"/>
        <pt x="48" y="327" on="0"/>
        <pt x="164" y="468" on="0"/>
        <pt x="248" y="468" on="1"/>
        <pt x="324" y="468" on="0"/>
        <pt x="379" y="410" on="1"/>
        <pt x="426" y="468" on="1"/>
        <pt x="448" y="450" on="1"/>
        <pt x="397" y="388" on="1"/>
        <pt x="448" y="320" on="0"/>
        <pt x="448" y="228" on="1"/>
        <pt x="448" y="129" on="0"/>
        <pt x="332" y="-12" on="0"/>
      </contour>
      <contour>
        <pt x="248" y="12" on="1"/>
        <pt x="360" y="12" on="0"/>
        <pt x="360" y="228" on="1"/>
        <pt x="360" y="288" on="0"/>
        <pt x="351" y="332" on="1"/>
        <pt x="154" y="90" on="1"/>
        <pt x="181" y="12" on="0"/>
      </contour>
      <contour>
        <pt x="248" y="444" on="1"/>
        <pt x="136" y="444" on="0"/>
        <pt x="136" y="228" on="1"/>
        <pt x="136" y="168" on="0"/>
        <pt x="145" y="124" on="1"/>
        <pt x="342" y="366" on="1"/>
        <pt x="315" y="444" on="0"/>
      </contour>
    </TTGlyph>
    <TTGlyph name="otilde" xMin="48" yMin="-12" xMax="448" yMax="650">
      <component glyphName="tilde" x="28" y="0" flags="0x1004"/>
      <component glyphName="o" x="0" y="0" flags="0x1204"/>
    </TTGlyph>
    <TTGlyph name="p" xMin="28" yMin="-230" xMax="470" yMax="468">
      <contour>
        <pt x="296" y="12" on="1"/>
        <pt x="344" y="12" on="0"/>
        <pt x="382" y="125" on="0"/>
        <pt x="382" y="228" on="1"/>
        <pt x="382" y="331" on="0"/>
        <pt x="344" y="444" on="0"/>
        <pt x="296" y="444" on="1"/>
        <pt x="249" y="444" on="0"/>
        <pt x="174" y="331" on="0"/>
        <pt x="174" y="262" on="1"/>
        <pt x="174" y="169" on="1"/>
        <pt x="174" y="108" on="0"/>
        <pt x="241" y="12" on="0"/>
      </contour>
      <contour>
        <pt x="28" y="-230" on="1"/>
        <pt x="28" y="-206" on="1"/>
        <pt x="80" y="-206" on="1"/>
        <pt x="102" y="-206" on="0"/>
        <pt x="102" y="-184" on="1"/>
        <pt x="102" y="410" on="1"/>
        <pt x="102" y="432" on="0"/>
        <pt x="80" y="432" on="1"/>
        <pt x="28" y="432" on="1"/>
        <pt x="28" y="456" on="1"/>
        <pt x="174" y="456" on="1"/>
        <pt x="174" y="392" on="1"/>
        <pt x="180" y="390" on="1"/>
        <pt x="200" y="423" on="0"/>
        <pt x="265" y="468" on="0"/>
        <pt x="298" y="468" on="1"/>
        <pt x="377" y="468" on="0"/>
        <pt x="470" y="330" on="0"/>
        <pt x="470" y="228" on="1"/>
        <pt x="470" y="126" on="0"/>
        <pt x="373" y="-12" on="0"/>
        <pt x="294" y="-12" on="1"/>
        <pt x="228" y="-12" on="0"/>
        <pt x="179" y="45" on="1"/>
        <pt x="174" y="42" on="1"/>
        <pt x="174" y="-184" on="1"/>
        <pt x="174" y="-206" on="0"/>
        <pt x="196" y="-206" on="1"/>
        <pt x="248" y="-206" on="1"/>
        <pt x="248" y="-230" on="1"/>
      </contour>
    </TTGlyph>
    <TTGlyph name="paragraph" xMin="64" yMin="-156" xMax="476" yMax="712">
      <contour>
        <pt x="476" y="712" on="1"/>
        <pt x="476" y="678" on="1"/>
        <pt x="408" y="678" on="1"/>
        <pt x="408" y="-156" on="1"/>
        <pt x="370" y="-156" on="1"/>
        <pt x="370" y="678" on="1"/>
        <pt x="270" y="678" on="1"/>
        <pt x="270" y="-156" on="1"/>
        <pt x="232" y="-156" on="1"/>
        <pt x="232" y="386" on="1"/>
        <pt x="159" y="386" on="0"/>
        <pt x="64" y="473" on="0"/>
        <pt x="64" y="544" on="1"/>
        <pt x="64" y="616" on="0"/>
        <pt x="160" y="712" on="0"/>
        <pt x="232" y="712" on="1"/>
      </contour>
    </TTGlyph>
    <TTGlyph name="parenleft" xMin="98" yMin="-198" xMax="324" yMax="730">
      <contour>
        <pt x="98" y="266" on="1"/>
        <pt x="98" y="407" on="0"/>
        <pt x="205" y="648" on="0"/>
        <pt x="294" y="730" on="1"/>
        <pt x="324" y="706" on="1"/>
        <pt x="148" y="521" on="0"/>
        <pt x="148" y="266" on="1"/>
        <pt x="148" y="11" on="0"/>
        <pt x="324" y="-174" on="1"/>
        <pt x="294" y="-198" on="1"/>
        <pt x="205" y="-116" on="0"/>
        <pt x="98" y="125" on="0"/>
      </contour>
    </TTGlyph>
    <TTGlyph name="parenright" xMin="48" yMin="-198" xMax="274" yMax="730">
      <contour>
        <pt x="274" y="266" on="1"/>
        <pt x="274" y="125" on="0"/>
        <pt x="167" y="-116" on="0"/>
        <pt x="78" y="-198" on="1"/>
        <pt x="48" y="-174" on="1"/>
        <pt x="224" y="11" on="0"/>
        <pt x="224" y="266" on="1"/>
        <pt x="224" y="521" on="0"/>
        <pt x="48" y="706" on="1"/>
        <pt x="78" y="730" on="1"/>
        <pt x="167" y="648" on="0"/>
        <pt x="274" y="407" on="0"/>
      </contour>
    </TTGlyph>
    <TTGlyph name="percent" xMin="96" yMin="-18" xMax="764" yMax="702">
      <contour>
        <pt x="624" y="702" on="1"/>
        <pt x="660" y="702" on="1"/>
        <pt x="234" y="-18" on="1"/>
        <pt x="198" y="-18" on="1"/>
      </contour>
      <contour>
        <pt x="628" y="4" on="1"/>
        <pt x="658" y="4" on="0"/>
        <pt x="692" y="52" on="0"/>
        <pt x="700" y="114" on="0"/>
        <pt x="700" y="162" on="1"/>
        <pt x="700" y="210" on="0"/>
        <pt x="692" y="273" on="0"/>
        <pt x="658" y="322" on="0"/>
        <pt x="628" y="322" on="1"/>
        <pt x="605" y="322" on="0"/>
        <pt x="575" y="297" on="0"/>
        <pt x="562" y="247" on="0"/>
        <pt x="558" y="198" on="0"/>
        <pt x="558" y="162" on="1"/>
        <pt x="558" y="126" on="0"/>
        <pt x="562" y="78" on="0"/>
        <pt x="575" y="29" on="0"/>
        <pt x="605" y="4" on="0"/>
      </contour>
      <contour>
        <pt x="628" y="-16" on="1"/>
        <pt x="570" y="-16" on="0"/>
        <pt x="494" y="85" on="0"/>
        <pt x="494" y="162" on="1"/>
        <pt x="494" y="239" on="0"/>
        <pt x="570" y="342" on="0"/>
        <pt x="628" y="342" on="1"/>
        <pt x="686" y="342" on="0"/>
        <pt x="764" y="239" on="0"/>
        <pt x="764" y="162" on="1"/>
        <pt x="764" y="85" on="0"/>
        <pt x="686" y="-16" on="0"/>
      </contour>
      <contour>
        <pt x="230" y="362" on="1"/>
        <pt x="260" y="362" on="0"/>
        <pt x="294" y="410" on="0"/>
        <pt x="302" y="472" on="0"/>
        <pt x="302" y="520" on="1"/>
        <pt x="302" y="568" on="0"/>
        <pt x="294" y="631" on="0"/>
        <pt x="260" y="680" on="0"/>
        <pt x="230" y="680" on="1"/>
        <pt x="207" y="680" on="0"/>
        <pt x="177" y="655" on="0"/>
        <pt x="164" y="605" on="0"/>
        <pt x="160" y="556" on="0"/>
        <pt x="160" y="520" on="1"/>
        <pt x="160" y="484" on="0"/>
        <pt x="164" y="436" on="0"/>
        <pt x="177" y="387" on="0"/>
        <pt x="207" y="362" on="0"/>
      </contour>
      <contour>
        <pt x="230" y="342" on="1"/>
        <pt x="172" y="342" on="0"/>
        <pt x="96" y="443" on="0"/>
        <pt x="96" y="520" on="1"/>
        <pt x="96" y="597" on="0"/>
        <pt x="172" y="700" on="0"/>
        <pt x="230" y="700" on="1"/>
        <pt x="288" y="700" on="0"/>
        <pt x="366" y="597" on="0"/>
        <pt x="366" y="520" on="1"/>
        <pt x="366" y="443" on="0"/>
        <pt x="288" y="342" on="0"/>
      </contour>
    </TTGlyph>
    <TTGlyph name="period" xMin="78" yMin="-12" xMax="202" yMax="112">
      <contour>
        <pt x="140" y="-12" on="1"/>
        <pt x="113" y="-12" on="0"/>
        <pt x="78" y="23" on="0"/>
        <pt x="78" y="50" on="1"/>
        <pt x="78" y="77" on="0"/>
        <pt x="113" y="112" on="0"/>
        <pt x="140" y="112" on="1"/>
        <pt x="167" y="112" on="0"/>
        <pt x="202" y="77" on="0"/>
        <pt x="202" y="50" on="1"/>
        <pt x="202" y="23" on="0"/>
        <pt x="167" y="-12" on="0"/>
      </contour>
    </TTGlyph>
    <TTGlyph name="periodcentered" xMin="78" yMin="254" xMax="202" yMax="378">
      <component glyphName="period" x="0" y="266" flags="0x1004"/>
    </TTGlyph>
    <TTGlyph name="plus" xMin="48" yMin="-156" xMax="892" yMax="684">
      <contour>
        <pt x="48" y="244" on="1"/>
        <pt x="48" y="284" on="1"/>
        <pt x="448" y="284" on="1"/>
        <pt x="448" y="684" on="1"/>
        <pt x="492" y="684" on="1"/>
        <pt x="492" y="284" on="1"/>
        <pt x="892" y="284" on="1"/>
        <pt x="892" y="244" on="1"/>
        <pt x="492" y="244" on="1"/>
        <pt x="492" y="-156" on="1"/>
        <pt x="448" y="-156" on="1"/>
        <pt x="448" y="244" on="1"/>
      </contour>
    </TTGlyph>
    <TTGlyph name="plusminus" xMin="48" yMin="-40" xMax="892" yMax="652">
      <contour>
        <pt x="48" y="338" on="1"/>
        <pt x="48" y="378" on="1"/>
        <pt x="448" y="378" on="1"/>
        <pt x="448" y="652" on="1"/>
        <pt x="492" y="652" on="1"/>
        <pt x="492" y="378" on="1"/>
        <pt x="892" y="378" on="1"/>
        <pt x="892" y="338" on="1"/>
        <pt x="492" y="338" on="1"/>
        <pt x="492" y="64" on="1"/>
        <pt x="448" y="64" on="1"/>
        <pt x="448" y="338" on="1"/>
      </contour>
      <contour>
        <pt x="48" y="-40" on="1"/>
        <pt x="48" y="0" on="1"/>
        <pt x="884" y="0" on="1"/>
        <pt x="884" y="-40" on="1"/>
      </contour>
    </TTGlyph>
    <TTGlyph name="q" xMin="48" yMin="-230" xMax="490" yMax="468">
      <contour>
        <pt x="270" y="-230" on="1"/>
        <pt x="270" y="-206" on="1"/>
        <pt x="322" y="-206" on="1"/>
        <pt x="344" y="-206" on="0"/>
        <pt x="344" y="-184" on="1"/>
        <pt x="344" y="42" on="1"/>
        <pt x="339" y="45" on="1"/>
        <pt x="290" y="-12" on="0"/>
        <pt x="224" y="-12" on="1"/>
        <pt x="145" y="-12" on="0"/>
        <pt x="48" y="126" on="0"/>
        <pt x="48" y="228" on="1"/>
        <pt x="48" y="330" on="0"/>
        <pt x="145" y="468" on="0"/>
        <pt x="224" y="468" on="1"/>
        <pt x="272" y="468" on="0"/>
        <pt x="342" y="404" on="0"/>
        <pt x="360" y="362" on="1"/>
        <pt x="367" y="364" on="1"/>
        <pt x="398" y="456" on="1"/>
        <pt x="416" y="456" on="1"/>
        <pt x="416" y="-184" on="1"/>
        <pt x="416" y="-206" on="0"/>
        <pt x="438" y="-206" on="1"/>
        <pt x="490" y="-206" on="1"/>
        <pt x="490" y="-230" on="1"/>
      </contour>
      <contour>
        <pt x="222" y="12" on="1"/>
        <pt x="277" y="12" on="0"/>
        <pt x="344" y="108" on="0"/>
        <pt x="344" y="169" on="1"/>
        <pt x="344" y="278" on="1"/>
        <pt x="344" y="337" on="0"/>
        <pt x="271" y="444" on="0"/>
        <pt x="222" y="444" on="1"/>
        <pt x="174" y="444" on="0"/>
        <pt x="136" y="330" on="0"/>
        <pt x="136" y="228" on="1"/>
        <pt x="136" y="126" on="0"/>
        <pt x="174" y="12" on="0"/>
      </contour>
    </TTGlyph>
    <TTGlyph name="question" xMin="64" yMin="-12" xMax="428" yMax="694">
      <contour>
        <pt x="232" y="694" on="1"/>
        <pt x="314" y="694" on="0"/>
        <pt x="428" y="613" on="0"/>
        <pt x="428" y="542" on="1"/>
        <pt x="428" y="511" on="0"/>
        <pt x="404" y="455" on="0"/>
        <pt x="354" y="405" on="0"/>
        <pt x="316" y="375" on="0"/>
        <pt x="281" y="351" on="1"/>
        <pt x="192" y="290" on="0"/>
        <pt x="192" y="232" on="1"/>
        <pt x="192" y="184" on="0"/>
        <pt x="248" y="184" on="1"/>
        <pt x="274" y="184" on="0"/>
        <pt x="308" y="220" on="0"/>
        <pt x="308" y="250" on="1"/>
        <pt x="308" y="266" on="0"/>
        <pt x="303" y="276" on="1"/>
        <pt x="321" y="284" on="1"/>
        <pt x="332" y="266" on="0"/>
        <pt x="332" y="249" on="1"/>
        <pt x="332" y="209" on="0"/>
        <pt x="279" y="154" on="0"/>
        <pt x="248" y="154" on="1"/>
        <pt x="209" y="154" on="0"/>
        <pt x="158" y="196" on="0"/>
        <pt x="158" y="235" on="1"/>
        <pt x="158" y="265" on="0"/>
        <pt x="181" y="307" on="0"/>
        <pt x="206" y="334" on="1"/>
        <pt x="282" y="416" on="1"/>
        <pt x="311" y="448" on="0"/>
        <pt x="340" y="504" on="0"/>
        <pt x="340" y="542" on="1"/>
        <pt x="340" y="595" on="0"/>
        <pt x="282" y="664" on="0"/>
        <pt x="225" y="664" on="1"/>
        <pt x="179" y="664" on="0"/>
        <pt x="108" y="616" on="0"/>
        <pt x="108" y="586" on="1"/>
        <pt x="108" y="563" on="0"/>
        <pt x="114" y="557" on="1"/>
        <pt x="119" y="553" on="0"/>
        <pt x="124" y="553" on="1"/>
        <pt x="131" y="553" on="0"/>
        <pt x="134" y="554" on="1"/>
        <pt x="141" y="556" on="0"/>
        <pt x="152" y="556" on="1"/>
        <pt x="169" y="556" on="0"/>
        <pt x="188" y="533" on="0"/>
        <pt x="188" y="516" on="1"/>
        <pt x="188" y="495" on="0"/>
        <pt x="160" y="468" on="0"/>
        <pt x="133" y="468" on="1"/>
        <pt x="105" y="468" on="0"/>
        <pt x="64" y="515" on="0"/>
        <pt x="64" y="555" on="1"/>
        <pt x="64" y="614" on="0"/>
        <pt x="169" y="694" on="0"/>
      </contour>
      <contour>
        <pt x="248" y="-12" on="1"/>
        <pt x="221" y="-12" on="0"/>
        <pt x="186" y="23" on="0"/>
        <pt x="186" y="50" on="1"/>
        <pt x="186" y="77" on="0"/>
        <pt x="221" y="112" on="0"/>
        <pt x="248" y="112" on="1"/>
        <pt x="275" y="112" on="0"/>
        <pt x="310" y="77" on="0"/>
        <pt x="310" y="50" on="1"/>
        <pt x="310" y="23" on="0"/>
        <pt x="275" y="-12" on="0"/>
      </contour>
    </TTGlyph>
    <TTGlyph name="questiondown" xMin="34" yMin="-238" xMax="398" yMax="468">
      <contour>
        <pt x="230" y="-238" on="1"/>
        <pt x="148" y="-238" on="0"/>
        <pt x="34" y="-157" on="0"/>
        <pt x="34" y="-86" on="1"/>
        <pt x="34" y="-55" on="0"/>
        <pt x="58" y="1" on="0"/>
        <pt x="108" y="51" on="0"/>
        <pt x="146" y="81" on="0"/>
        <pt x="181" y="105" on="1"/>
        <pt x="270" y="166" on="0"/>
        <pt x="270" y="224" on="1"/>
        <pt x="270" y="272" on="0"/>
        <pt x="214" y="272" on="1"/>
        <pt x="188" y="272" on="0"/>
        <pt x="154" y="236" on="0"/>
        <pt x="154" y="206" on="1"/>
        <pt x="154" y="190" on="0"/>
        <pt x="159" y="180" on="1"/>
        <pt x="141" y="172" on="1"/>
        <pt x="130" y="190" on="0"/>
        <pt x="130" y="207" on="1"/>
        <pt x="130" y="247" on="0"/>
        <pt x="183" y="302" on="0"/>
        <pt x="214" y="302" on="1"/>
        <pt x="253" y="302" on="0"/>
        <pt x="304" y="260" on="0"/>
        <pt x="304" y="221" on="1"/>
        <pt x="304" y="191" on="0"/>
        <pt x="281" y="149" on="0"/>
        <pt x="256" y="122" on="1"/>
        <pt x="180" y="40" on="1"/>
        <pt x="151" y="8" on="0"/>
        <pt x="122" y="-48" on="0"/>
        <pt x="122" y="-86" on="1"/>
        <pt x="122" y="-139" on="0"/>
        <pt x="180" y="-208" on="0"/>
        <pt x="237" y="-208" on="1"/>
        <pt x="283" y="-208" on="0"/>
        <pt x="354" y="-160" on="0"/>
        <pt x="354" y="-130" on="1"/>
        <pt x="354" y="-107" on="0"/>
        <pt x="348" y="-101" on="1"/>
        <pt x="343" y="-97" on="0"/>
        <pt x="338" y="-97" on="1"/>
        <pt x="331" y="-97" on="0"/>
        <pt x="328" y="-98" on="1"/>
        <pt x="321" y="-100" on="0"/>
        <pt x="310" y="-100" on="1"/>
        <pt x="293" y="-100" on="0"/>
        <pt x="274" y="-77" on="0"/>
        <pt x="274" y="-60" on="1"/>
        <pt x="274" y="-39" on="0"/>
        <pt x="302" y="-12" on="0"/>
        <pt x="329" y="-12" on="1"/>
        <pt x="357" y="-12" on="0"/>
        <pt x="398" y="-59" on="0"/>
        <pt x="398" y="-99" on="1"/>
        <pt x="398" y="-158" on="0"/>
        <pt x="293" y="-238" on="0"/>
      </contour>
      <contour>
        <pt x="214" y="468" on="1"/>
        <pt x="241" y="468" on="0"/>
        <pt x="276" y="433" on="0"/>
        <pt x="276" y="406" on="1"/>
        <pt x="276" y="379" on="0"/>
        <pt x="241" y="344" on="0"/>
        <pt x="214" y="344" on="1"/>
        <pt x="187" y="344" on="0"/>
        <pt x="152" y="379" on="0"/>
        <pt x="152" y="406" on="1"/>
        <pt x="152" y="433" on="0"/>
        <pt x="187" y="468" on="0"/>
      </contour>
    </TTGlyph>
    <TTGlyph name="quotedbl" xMin="86" yMin="520" xMax="308" yMax="730">
      <component glyphName="quotesingle" x="0" y="0" flags="0x1004"/>
      <component glyphName="quotesingle" x="154" y="0" flags="0x1004"/>
    </TTGlyph>
    <TTGlyph name="quotedblbase" xMin="72" yMin="-168" xMax="396" yMax="140">
      <component glyphName="comma" x="186" y="0" flags="0x1004"/>
      <component glyphName="comma" x="0" y="0" flags="0x1004"/>
    </TTGlyph>
    <TTGlyph name="quotedblleft" xMin="70" yMin="422" xMax="394" yMax="730">
      <component glyphName="quoteleft" x="186" y="0" flags="0x1004"/>
      <component glyphName="quoteleft" x="0" y="0" flags="0x1004"/>
    </TTGlyph>
    <TTGlyph name="quotedblright" xMin="72" yMin="422" xMax="396" yMax="730">
      <component glyphName="comma" x="186" y="590" flags="0x1004"/>
      <component glyphName="comma" x="0" y="590" flags="0x1004"/>
    </TTGlyph>
    <TTGlyph name="quoteleft" xMin="70" yMin="422" xMax="208" yMax="730">
      <contour>
        <pt x="208" y="480" on="1"/>
        <pt x="208" y="453" on="0"/>
        <pt x="172" y="422" on="0"/>
        <pt x="150" y="422" on="1"/>
        <pt x="111" y="422" on="0"/>
        <pt x="89" y="454" on="1"/>
        <pt x="70" y="480" on="0"/>
        <pt x="70" y="525" on="1"/>
        <pt x="70" y="587" on="0"/>
        <pt x="132" y="698" on="0"/>
        <pt x="176" y="730" on="1"/>
        <pt x="190" y="714" on="1"/>
        <pt x="153" y="686" on="0"/>
        <pt x="106" y="606" on="0"/>
        <pt x="106" y="566" on="1"/>
        <pt x="106" y="546" on="0"/>
        <pt x="124" y="536" on="1"/>
        <pt x="130" y="532" on="0"/>
        <pt x="158" y="532" on="1"/>
        <pt x="180" y="532" on="0"/>
        <pt x="208" y="501" on="0"/>
      </contour>
    </TTGlyph>
    <TTGlyph name="quoteright" xMin="72" yMin="422" xMax="210" yMax="730">
      <component glyphName="comma" x="0" y="590" flags="0x1004"/>
    </TTGlyph>
    <TTGlyph name="quotesinglbase" xMin="72" yMin="-168" xMax="210" yMax="140">
      <component glyphName="comma" x="0" y="0" flags="0x1204"/>
    </TTGlyph>
    <TTGlyph name="quotesingle" xMin="86" yMin="520" xMax="154" yMax="730">
      <contour>
        <pt x="120" y="730" on="1"/>
        <pt x="154" y="730" on="0"/>
        <pt x="154" y="684" on="1"/>
        <pt x="154" y="680" on="0"/>
        <pt x="152" y="666" on="1"/>
        <pt x="132" y="520" on="1"/>
        <pt x="108" y="520" on="1"/>
        <pt x="88" y="666" on="1"/>
        <pt x="86" y="680" on="0"/>
        <pt x="86" y="684" on="1"/>
        <pt x="86" y="730" on="0"/>
      </contour>
    </TTGlyph>
    <TTGlyph name="r" xMin="38" yMin="0" xMax="390" yMax="468">
      <contour>
        <pt x="38" y="0" on="1"/>
        <pt x="38" y="24" on="1"/>
        <pt x="80" y="24" on="1"/>
        <pt x="102" y="24" on="0"/>
        <pt x="102" y="46" on="1"/>
        <pt x="102" y="410" on="1"/>
        <pt x="102" y="432" on="0"/>
        <pt x="80" y="432" on="1"/>
        <pt x="38" y="432" on="1"/>
        <pt x="38" y="456" on="1"/>
        <pt x="174" y="456" on="1"/>
        <pt x="174" y="330" on="1"/>
        <pt x="178" y="329" on="1"/>
        <pt x="195" y="377" on="0"/>
        <pt x="244" y="444" on="0"/>
        <pt x="264" y="454" on="1"/>
        <pt x="289" y="468" on="0"/>
        <pt x="314" y="468" on="1"/>
        <pt x="352" y="468" on="0"/>
        <pt x="390" y="419" on="0"/>
        <pt x="390" y="386" on="1"/>
        <pt x="390" y="362" on="0"/>
        <pt x="362" y="318" on="0"/>
        <pt x="334" y="318" on="1"/>
        <pt x="315" y="318" on="0"/>
        <pt x="289" y="337" on="0"/>
        <pt x="289" y="356" on="1"/>
        <pt x="289" y="385" on="0"/>
        <pt x="316" y="400" on="1"/>
        <pt x="338" y="412" on="0"/>
        <pt x="338" y="427" on="1"/>
        <pt x="338" y="444" on="0"/>
        <pt x="310" y="444" on="1"/>
        <pt x="293" y="444" on="0"/>
        <pt x="258" y="426" on="0"/>
        <pt x="217" y="367" on="0"/>
        <pt x="200" y="318" on="1"/>
        <pt x="174" y="244" on="0"/>
        <pt x="174" y="178" on="1"/>
        <pt x="174" y="46" on="1"/>
        <pt x="174" y="24" on="0"/>
        <pt x="196" y="24" on="1"/>
        <pt x="238" y="24" on="1"/>
        <pt x="238" y="0" on="1"/>
      </contour>
    </TTGlyph>
    <TTGlyph name="registered" xMin="48" yMin="-18" xMax="772" yMax="730">
      <component glyphName="uni0280" x="162" y="130" flags="0x1004"/>
      <component glyphName="circle" x="0" y="0" flags="0x1004"/>
    </TTGlyph>
    <TTGlyph name="ring" xMin="123" yMin="500" xMax="317" yMax="694">
      <contour>
        <pt x="220" y="500" on="1"/>
        <pt x="180" y="500" on="0"/>
        <pt x="123" y="557" on="0"/>
        <pt x="123" y="598" on="1"/>
        <pt x="123" y="638" on="0"/>
        <pt x="179" y="694" on="0"/>
        <pt x="220" y="694" on="1"/>
        <pt x="261" y="694" on="0"/>
        <pt x="317" y="638" on="0"/>
        <pt x="317" y="598" on="1"/>
        <pt x="317" y="557" on="0"/>
        <pt x="260" y="500" on="0"/>
      </contour>
      <contour>
        <pt x="220" y="524" on="1"/>
        <pt x="251" y="524" on="0"/>
        <pt x="293" y="566" on="0"/>
        <pt x="293" y="598" on="1"/>
        <pt x="293" y="629" on="0"/>
        <pt x="252" y="670" on="0"/>
        <pt x="220" y="670" on="1"/>
        <pt x="188" y="670" on="0"/>
        <pt x="147" y="629" on="0"/>
        <pt x="147" y="598" on="1"/>
        <pt x="147" y="566" on="0"/>
        <pt x="189" y="524" on="0"/>
      </contour>
    </TTGlyph>
    <TTGlyph name="s" xMin="52" yMin="-12" xMax="392" yMax="468">
      <contour>
        <pt x="52" y="345" on="1"/>
        <pt x="52" y="406" on="0"/>
        <pt x="128" y="468" on="0"/>
        <pt x="186" y="468" on="1"/>
        <pt x="239" y="468" on="0"/>
        <pt x="283" y="436" on="1"/>
        <pt x="305" y="420" on="0"/>
        <pt x="316" y="420" on="1"/>
        <pt x="330" y="420" on="0"/>
        <pt x="332" y="438" on="1"/>
        <pt x="334" y="458" on="1"/>
        <pt x="352" y="458" on="1"/>
        <pt x="352" y="306" on="1"/>
        <pt x="334" y="306" on="1"/>
        <pt x="320" y="341" on="1"/>
        <pt x="298" y="395" on="0"/>
        <pt x="225" y="444" on="0"/>
        <pt x="185" y="444" on="1"/>
        <pt x="148" y="444" on="0"/>
        <pt x="100" y="407" on="0"/>
        <pt x="100" y="374" on="1"/>
        <pt x="100" y="351" on="0"/>
        <pt x="125" y="322" on="0"/>
        <pt x="146" y="312" on="1"/>
        <pt x="182" y="293" on="0"/>
        <pt x="188" y="291" on="1"/>
        <pt x="296" y="246" on="1"/>
        <pt x="344" y="226" on="0"/>
        <pt x="368" y="198" on="1"/>
        <pt x="392" y="168" on="0"/>
        <pt x="392" y="118" on="1"/>
        <pt x="392" y="51" on="0"/>
        <pt x="316" y="-12" on="0"/>
        <pt x="254" y="-12" on="1"/>
        <pt x="216" y="-12" on="0"/>
        <pt x="160" y="15" on="0"/>
        <pt x="128" y="42" on="0"/>
        <pt x="117" y="42" on="1"/>
        <pt x="89" y="42" on="0"/>
        <pt x="82" y="8" on="1"/>
        <pt x="78" y="-12" on="1"/>
        <pt x="60" y="-12" on="1"/>
        <pt x="60" y="186" on="1"/>
        <pt x="78" y="186" on="1"/>
        <pt x="112" y="114" on="1"/>
        <pt x="129" y="77" on="0"/>
        <pt x="204" y="12" on="0"/>
        <pt x="255" y="12" on="1"/>
        <pt x="301" y="12" on="0"/>
        <pt x="346" y="57" on="0"/>
        <pt x="346" y="96" on="1"/>
        <pt x="346" y="141" on="0"/>
        <pt x="282" y="167" on="1"/>
        <pt x="168" y="213" on="1"/>
        <pt x="52" y="260" on="0"/>
      </contour>
    </TTGlyph>
    <TTGlyph name="section" xMin="100" yMin="-186" xMax="470" yMax="700">
      <contour>
        <pt x="298" y="700" on="1"/>
        <pt x="344" y="700" on="0"/>
        <pt x="416" y="641" on="0"/>
        <pt x="416" y="600" on="1"/>
        <pt x="416" y="574" on="0"/>
        <pt x="386" y="544" on="0"/>
        <pt x="364" y="544" on="1"/>
        <pt x="343" y="544" on="0"/>
        <pt x="314" y="570" on="0"/>
        <pt x="314" y="588" on="1"/>
        <pt x="314" y="598" on="0"/>
        <pt x="321" y="614" on="0"/>
        <pt x="330" y="621" on="0"/>
        <pt x="350" y="635" on="0"/>
        <pt x="350" y="646" on="1"/>
        <pt x="350" y="676" on="0"/>
        <pt x="298" y="676" on="1"/>
        <pt x="262" y="676" on="0"/>
        <pt x="208" y="635" on="0"/>
        <pt x="208" y="598" on="1"/>
        <pt x="208" y="568" on="0"/>
        <pt x="228" y="520" on="0"/>
        <pt x="251" y="494" on="0"/>
        <pt x="276" y="472" on="1"/>
        <pt x="404" y="362" on="1"/>
        <pt x="441" y="331" on="0"/>
        <pt x="470" y="273" on="0"/>
        <pt x="470" y="226" on="1"/>
        <pt x="470" y="150" on="0"/>
        <pt x="360" y="80" on="1"/>
        <pt x="418" y="18" on="0"/>
        <pt x="418" y="-52" on="1"/>
        <pt x="418" y="-114" on="0"/>
        <pt x="330" y="-186" on="0"/>
        <pt x="270" y="-186" on="1"/>
        <pt x="225" y="-186" on="0"/>
        <pt x="152" y="-126" on="0"/>
        <pt x="152" y="-84" on="1"/>
        <pt x="152" y="-58" on="0"/>
        <pt x="182" y="-30" on="0"/>
        <pt x="206" y="-30" on="1"/>
        <pt x="225" y="-30" on="0"/>
        <pt x="254" y="-55" on="0"/>
        <pt x="254" y="-72" on="1"/>
        <pt x="254" y="-98" on="0"/>
        <pt x="230" y="-113" on="1"/>
        <pt x="218" y="-120" on="0"/>
        <pt x="218" y="-132" on="1"/>
        <pt x="218" y="-146" on="0"/>
        <pt x="248" y="-162" on="0"/>
        <pt x="270" y="-162" on="1"/>
        <pt x="306" y="-162" on="0"/>
        <pt x="360" y="-120" on="0"/>
        <pt x="360" y="-84" on="1"/>
        <pt x="360" y="-45" on="0"/>
        <pt x="329" y="12" on="0"/>
        <pt x="294" y="42" on="1"/>
        <pt x="166" y="150" on="1"/>
        <pt x="132" y="181" on="0"/>
        <pt x="100" y="242" on="0"/>
        <pt x="100" y="286" on="1"/>
        <pt x="100" y="364" on="0"/>
        <pt x="210" y="434" on="1"/>
        <pt x="150" y="488" on="0"/>
        <pt x="150" y="562" on="1"/>
        <pt x="150" y="624" on="0"/>
        <pt x="239" y="700" on="0"/>
      </contour>
      <contour>
        <pt x="342" y="94" on="1"/>
        <pt x="374" y="112" on="0"/>
        <pt x="432" y="165" on="0"/>
        <pt x="432" y="186" on="1"/>
        <pt x="432" y="245" on="0"/>
        <pt x="388" y="280" on="1"/>
        <pt x="248" y="400" on="1"/>
        <pt x="228" y="420" on="1"/>
        <pt x="138" y="364" on="0"/>
        <pt x="138" y="326" on="1"/>
        <pt x="138" y="271" on="0"/>
        <pt x="180" y="234" on="1"/>
        <pt x="320" y="116" on="1"/>
      </contour>
    </TTGlyph>
    <TTGlyph name="seven" xMin="90" yMin="-16" xMax="488" yMax="684">
      <contour>
        <pt x="104" y="684" on="1"/>
        <pt x="488" y="684" on="1"/>
        <pt x="488" y="632" on="0"/>
        <pt x="457" y="498" on="0"/>
        <pt x="420" y="443" on="1"/>
        <pt x="363" y="357" on="1"/>
        <pt x="322" y="278" on="0"/>
        <pt x="322" y="227" on="1"/>
        <pt x="322" y="184" on="0"/>
        <pt x="328" y="152" on="1"/>
        <pt x="334" y="117" on="1"/>
        <pt x="342" y="77" on="0"/>
        <pt x="342" y="47" on="1"/>
        <pt x="342" y="-16" on="0"/>
        <pt x="283" y="-16" on="1"/>
        <pt x="247" y="-16" on="0"/>
        <pt x="204" y="36" on="0"/>
        <pt x="204" y="80" on="1"/>
        <pt x="204" y="111" on="0"/>
        <pt x="229" y="189" on="0"/>
        <pt x="251" y="232" on="0"/>
        <pt x="305" y="326" on="0"/>
        <pt x="309" y="333" on="1"/>
        <pt x="389" y="448" on="1"/>
        <pt x="440" y="521" on="0"/>
        <pt x="440" y="576" on="1"/>
        <pt x="440" y="602" on="0"/>
        <pt x="409" y="602" on="1"/>
        <pt x="202" y="602" on="1"/>
        <pt x="162" y="602" on="0"/>
        <pt x="129" y="567" on="0"/>
        <pt x="123" y="535" on="1"/>
        <pt x="112" y="476" on="1"/>
        <pt x="90" y="476" on="1"/>
      </contour>
    </TTGlyph>
    <TTGlyph name="six" xMin="80" yMin="-16" xMax="502" yMax="700">
      <contour>
        <pt x="298" y="16" on="1"/>
        <pt x="340" y="16" on="0"/>
        <pt x="395" y="80" on="0"/>
        <pt x="414" y="160" on="0"/>
        <pt x="414" y="206" on="1"/>
        <pt x="414" y="286" on="0"/>
        <pt x="366" y="392" on="0"/>
        <pt x="310" y="392" on="1"/>
        <pt x="257" y="392" on="0"/>
        <pt x="186" y="289" on="0"/>
        <pt x="186" y="206" on="1"/>
        <pt x="186" y="123" on="0"/>
        <pt x="238" y="16" on="0"/>
      </contour>
      <contour>
        <pt x="298" y="-16" on="1"/>
        <pt x="200" y="-16" on="0"/>
        <pt x="80" y="162" on="0"/>
        <pt x="80" y="314" on="1"/>
        <pt x="80" y="396" on="0"/>
        <pt x="122" y="554" on="0"/>
        <pt x="162" y="606" on="1"/>
        <pt x="235" y="700" on="0"/>
        <pt x="333" y="700" on="1"/>
        <pt x="404" y="700" on="0"/>
        <pt x="448" y="652" on="1"/>
        <pt x="476" y="619" on="0"/>
        <pt x="476" y="573" on="1"/>
        <pt x="476" y="538" on="0"/>
        <pt x="451" y="516" on="1"/>
        <pt x="434" y="501" on="0"/>
        <pt x="410" y="501" on="1"/>
        <pt x="387" y="501" on="0"/>
        <pt x="374" y="519" on="1"/>
        <pt x="366" y="529" on="0"/>
        <pt x="366" y="548" on="1"/>
        <pt x="366" y="563" on="0"/>
        <pt x="379" y="578" on="1"/>
        <pt x="388" y="588" on="0"/>
        <pt x="398" y="595" on="1"/>
        <pt x="414" y="607" on="0"/>
        <pt x="414" y="623" on="1"/>
        <pt x="414" y="641" on="0"/>
        <pt x="373" y="668" on="0"/>
        <pt x="331" y="668" on="1"/>
        <pt x="250" y="668" on="0"/>
        <pt x="208" y="577" on="1"/>
        <pt x="191" y="540" on="0"/>
        <pt x="173" y="428" on="0"/>
        <pt x="173" y="390" on="1"/>
        <pt x="173" y="345" on="1"/>
        <pt x="180" y="342" on="1"/>
        <pt x="198" y="380" on="0"/>
        <pt x="273" y="429" on="0"/>
        <pt x="308" y="429" on="1"/>
        <pt x="375" y="429" on="0"/>
        <pt x="421" y="396" on="1"/>
        <pt x="460" y="368" on="0"/>
        <pt x="502" y="273" on="0"/>
        <pt x="502" y="219" on="1"/>
        <pt x="502" y="132" on="0"/>
        <pt x="391" y="-16" on="0"/>
      </contour>
    </TTGlyph>
    <TTGlyph name="slash" xMin="56" yMin="-198" xMax="394" yMax="730">
      <contour>
        <pt x="96" y="-198" on="1"/>
        <pt x="56" y="-198" on="1"/>
        <pt x="354" y="730" on="1"/>
        <pt x="394" y="730" on="1"/>
      </contour>
    </TTGlyph>
    <TTGlyph name="softhyphen" xMin="60" yMin="224" xMax="310" yMax="280">
      <component glyphName="hyphen" x="0" y="0" flags="0x1004"/>
    </TTGlyph>
    <TTGlyph name="sterling" xMin="64" yMin="-18" xMax="638" yMax="700">
      <contour>
        <pt x="162" y="-12" on="1"/>
        <pt x="121" y="-12" on="0"/>
        <pt x="64" y="27" on="0"/>
        <pt x="64" y="66" on="1"/>
        <pt x="64" y="101" on="0"/>
        <pt x="123" y="146" on="0"/>
        <pt x="156" y="146" on="1"/>
        <pt x="207" y="146" on="0"/>
        <pt x="267" y="117" on="1"/>
        <pt x="276" y="156" on="0"/>
        <pt x="276" y="216" on="1"/>
        <pt x="276" y="258" on="0"/>
        <pt x="269" y="353" on="1"/>
        <pt x="217" y="362" on="0"/>
        <pt x="204" y="362" on="1"/>
        <pt x="183" y="362" on="0"/>
        <pt x="158" y="357" on="0"/>
        <pt x="141" y="347" on="0"/>
        <pt x="128" y="340" on="1"/>
        <pt x="114" y="362" on="1"/>
        <pt x="146" y="390" on="0"/>
        <pt x="196" y="390" on="1"/>
        <pt x="215" y="390" on="0"/>
        <pt x="267" y="380" on="1"/>
        <pt x="266" y="394" on="0"/>
        <pt x="266" y="430" on="1"/>
        <pt x="266" y="543" on="0"/>
        <pt x="395" y="700" on="0"/>
        <pt x="484" y="700" on="1"/>
        <pt x="536" y="700" on="0"/>
        <pt x="605" y="651" on="0"/>
        <pt x="627" y="599" on="0"/>
        <pt x="627" y="577" on="1"/>
        <pt x="627" y="543" on="0"/>
        <pt x="597" y="502" on="0"/>
        <pt x="567" y="502" on="1"/>
        <pt x="546" y="502" on="0"/>
        <pt x="517" y="528" on="0"/>
        <pt x="517" y="549" on="1"/>
        <pt x="517" y="581" on="0"/>
        <pt x="542" y="594" on="1"/>
        <pt x="555" y="601" on="0"/>
        <pt x="565" y="611" on="0"/>
        <pt x="565" y="623" on="1"/>
        <pt x="565" y="642" on="0"/>
        <pt x="526" y="674" on="0"/>
        <pt x="484" y="674" on="1"/>
        <pt x="435" y="674" on="0"/>
        <pt x="357" y="587" on="0"/>
        <pt x="357" y="502" on="1"/>
        <pt x="357" y="364" on="1"/>
        <pt x="399" y="356" on="0"/>
        <pt x="418" y="356" on="1"/>
        <pt x="434" y="356" on="0"/>
        <pt x="457" y="360" on="0"/>
        <pt x="473" y="366" on="0"/>
        <pt x="480" y="370" on="1"/>
        <pt x="494" y="378" on="1"/>
        <pt x="508" y="356" on="1"/>
        <pt x="480" y="328" on="0"/>
        <pt x="426" y="328" on="1"/>
        <pt x="409" y="328" on="0"/>
        <pt x="357" y="337" on="1"/>
        <pt x="357" y="272" on="1"/>
        <pt x="357" y="164" on="0"/>
        <pt x="309" y="95" on="1"/>
        <pt x="387" y="48" on="0"/>
        <pt x="499" y="48" on="1"/>
        <pt x="544" y="48" on="0"/>
        <pt x="610" y="123" on="0"/>
        <pt x="620" y="168" on="1"/>
        <pt x="638" y="161" on="1"/>
        <pt x="603" y="-18" on="0"/>
        <pt x="459" y="-18" on="1"/>
        <pt x="399" y="-18" on="0"/>
        <pt x="279" y="57" on="1"/>
        <pt x="257" y="32" on="0"/>
        <pt x="192" y="-12" on="0"/>
      </contour>
      <contour>
        <pt x="162" y="12" on="1"/>
        <pt x="186" y="12" on="0"/>
        <pt x="236" y="50" on="0"/>
        <pt x="251" y="79" on="1"/>
        <pt x="242" y="85" on="0"/>
        <pt x="225" y="97" on="0"/>
        <pt x="205" y="108" on="0"/>
        <pt x="186" y="117" on="0"/>
        <pt x="162" y="122" on="0"/>
        <pt x="150" y="122" on="1"/>
        <pt x="125" y="122" on="0"/>
        <pt x="92" y="89" on="0"/>
        <pt x="92" y="66" on="1"/>
        <pt x="92" y="12" on="0"/>
      </contour>
    </TTGlyph>
    <TTGlyph name="t" xMin="28" yMin="-12" xMax="316" yMax="648">
      <contour>
        <pt x="206" y="-12" on="1"/>
        <pt x="161" y="-12" on="0"/>
        <pt x="102" y="52" on="0"/>
        <pt x="102" y="107" on="1"/>
        <pt x="102" y="428" on="1"/>
        <pt x="28" y="428" on="1"/>
        <pt x="28" y="456" on="1"/>
        <pt x="50" y="456" on="1"/>
        <pt x="95" y="456" on="0"/>
        <pt x="146" y="553" on="0"/>
        <pt x="146" y="612" on="1"/>
        <pt x="146" y="648" on="1"/>
        <pt x="174" y="648" on="1"/>
        <pt x="174" y="456" on="1"/>
        <pt x="298" y="456" on="1"/>
        <pt x="298" y="428" on="1"/>
        <pt x="174" y="428" on="1"/>
        <pt x="174" y="102" on="1"/>
        <pt x="174" y="32" on="0"/>
        <pt x="227" y="32" on="1"/>
        <pt x="298" y="32" on="0"/>
        <pt x="298" y="152" on="1"/>
        <pt x="316" y="152" on="1"/>
        <pt x="316" y="129" on="0"/>
        <pt x="314" y="99" on="0"/>
        <pt x="303" y="46" on="0"/>
        <pt x="281" y="14" on="0"/>
        <pt x="237" y="-12" on="0"/>
      </contour>
    </TTGlyph>
    <TTGlyph name="thorn" xMin="26" yMin="-252" xMax="452" yMax="684">
      <contour>
        <pt x="364" y="334" on="1"/>
        <pt x="364" y="424" on="0"/>
        <pt x="302" y="424" on="1"/>
        <pt x="257" y="424" on="0"/>
        <pt x="170" y="300" on="0"/>
        <pt x="170" y="232" on="1"/>
        <pt x="170" y="27" on="1"/>
        <pt x="222" y="53" on="0"/>
        <pt x="260" y="88" on="1"/>
        <pt x="309" y="134" on="0"/>
        <pt x="364" y="264" on="0"/>
      </contour>
      <contour>
        <pt x="36" y="-252" on="1"/>
        <pt x="26" y="-228" on="1"/>
        <pt x="78" y="-206" on="1"/>
        <pt x="98" y="-197" on="0"/>
        <pt x="98" y="-178" on="1"/>
        <pt x="98" y="608" on="1"/>
        <pt x="98" y="626" on="0"/>
        <pt x="82" y="626" on="1"/>
        <pt x="75" y="626" on="0"/>
        <pt x="66" y="622" on="1"/>
        <pt x="36" y="611" on="1"/>
        <pt x="26" y="635" on="1"/>
        <pt x="142" y="684" on="1"/>
        <pt x="170" y="684" on="1"/>
        <pt x="170" y="352" on="1"/>
        <pt x="176" y="350" on="1"/>
        <pt x="204" y="405" on="0"/>
        <pt x="292" y="468" on="0"/>
        <pt x="336" y="468" on="1"/>
        <pt x="382" y="468" on="0"/>
        <pt x="452" y="410" on="0"/>
        <pt x="452" y="349" on="1"/>
        <pt x="452" y="281" on="0"/>
        <pt x="364" y="137" on="0"/>
        <pt x="294" y="78" on="1"/>
        <pt x="238" y="31" on="0"/>
        <pt x="170" y="0" on="1"/>
        <pt x="170" y="-199" on="1"/>
      </contour>
    </TTGlyph>
</ttFont>
